G04 ================== begin FILE IDENTIFICATION RECORD ==================*
G04 Layout Name:  echolight.brd*
G04 Film Name:    GND*
G04 File Format:  Gerber RS274X*
G04 File Origin:  Cadence Allegro 25.1-P001*
G04 Origin Date:  Sun Jan 18 15:03:02 2026*
G04 *
G04 Layer:  VIA CLASS/GND*
G04 Layer:  PIN/GND*
G04 Layer:  ETCH/GND*
G04 *
G04 Offset:    (0.0000 0.0000)*
G04 Mirror:    No*
G04 Mode:      Positive*
G04 Rotation:  0*
G04 FullContactRelief:  No*
G04 UndefLineWidth:     0.1000*
G04 ================== end FILE IDENTIFICATION RECORD ====================*
%FSLAX25Y25*MOMM*%
%IR0*IPPOS*OFA0.00000B0.00000*MIA0B0*SFA1.00000B1.00000*%
%ADD10C,.5*%
%ADD11C,.7*%
%ADD12C,.508*%
%ADD13C,1.605*%
%ADD14C,1.7018*%
%ADD17C,3.4544*%
%ADD15C,1.397*%
%ADD16C,2.3876*%
%ADD18C,.127*%
%ADD23C,.7544*%
%ADD20C,.9544*%
%ADD19C,.9148*%
%ADD25C,1.6514*%
%ADD22C,3.8612*%
%ADD26C,1.9562*%
%ADD21C,2.7944*%
%ADD24C,1.8594*%
G75*
%LPD*%
G75*
G36*
G01X22762500Y25237500D02*
X30590000D01*
X30640000Y25187500D01*
Y15507500D01*
X30627500Y15495000D01*
X22207500D01*
X22165000Y15537500D01*
Y24640000D01*
X22762500D01*
Y25237500D01*
G37*
%LPC*%
G75*
G36*
G01X24824780Y21230070D02*
G02X24855000Y21245220I30220J-22565D01*
G02X24885230Y21230070I6J-37723D01*
G03X24902200Y21231130I8139J6077D01*
G02X24935000Y21250220I32800J-18633D01*
G02Y21174780I0J-37720D01*
G02X24904770Y21189930I-6J37723D01*
G03X24887800Y21188870I-8139J-6077D01*
G02X24855000Y21169780I-32800J18633D01*
G02X24824520Y21185280I0J37719D01*
G03X24808170Y21185380I-8212J-5983D01*
G02X24777950Y21170230I-30220J22565D01*
G02Y21245670I0J37720D01*
G02X24808430Y21230170I0J-37719D01*
G03X24824780Y21230070I8212J5983D01*
G37*
G54D23*
X23612500Y19195000D03*
Y19462500D03*
X25605000Y20307500D03*
X25922500D03*
X24658300Y21018500D03*
X24747500Y21500000D03*
X24557500Y21507500D03*
X24855000Y21497500D03*
X24955000Y21500000D03*
X25730000Y21872500D03*
G54D20*
X24404460Y16545000D03*
X25352500Y18545000D03*
X23687700Y18925250D03*
X22532500Y19350000D03*
X25350000Y19577500D03*
X23410000Y20530000D03*
X23944960Y20442500D03*
X24800000Y20870000D03*
X24860000Y20965000D03*
X23625000Y21355000D03*
X24092500Y21315000D03*
X24238720Y21295550D03*
X24657500Y21275000D03*
X24482500Y21295000D03*
Y21667500D03*
X25605000Y22242500D03*
X26823620Y23336380D03*
X26850000Y24122500D03*
X28943310Y24388400D03*
G54D19*
X24287500Y15701040D03*
G54D25*
X26823620Y22279650D03*
Y22029650D03*
Y22529650D03*
G54D22*
X29743410Y17657400D03*
X28143210Y23181900D03*
G54D26*
X24917500Y23470000D03*
X25447500D03*
G54D21*
X28143210Y16834440D03*
G54D24*
X24296210Y19735040D03*
X24550210D03*
%LPD*%
G75*
G54D10*
X22290000Y15635940D03*
Y15735940D03*
Y15835940D03*
Y15935940D03*
Y16035940D03*
Y16135940D03*
Y16235940D03*
Y16335940D03*
Y16435940D03*
Y16535940D03*
Y16635940D03*
Y16735940D03*
Y16835940D03*
Y16935940D03*
Y17035940D03*
Y17135940D03*
Y17235940D03*
Y17335940D03*
Y17435940D03*
Y17535940D03*
Y17635940D03*
Y17735940D03*
Y17835940D03*
Y17935940D03*
Y18035940D03*
Y18135940D03*
Y18235940D03*
Y18335940D03*
Y18435940D03*
Y18535940D03*
Y18635940D03*
Y18735940D03*
Y18835940D03*
Y18935940D03*
X22338420Y18964540D03*
X22254500Y19438000D03*
X22267500Y19055000D03*
X22290000Y19635940D03*
Y19735940D03*
Y19835940D03*
Y19935940D03*
Y20035940D03*
Y20135940D03*
Y20235940D03*
Y20335940D03*
Y20435940D03*
Y20535940D03*
Y20635940D03*
Y20735940D03*
Y20835940D03*
Y20935940D03*
Y21035940D03*
Y21135940D03*
Y21235940D03*
Y21335940D03*
Y21435940D03*
Y21535940D03*
Y21635940D03*
Y21735940D03*
Y21835940D03*
Y21935940D03*
Y22035940D03*
Y22135940D03*
Y22235940D03*
Y22335940D03*
Y22435940D03*
Y22535940D03*
Y22635940D03*
Y22735940D03*
Y22835940D03*
Y22935940D03*
Y23035940D03*
Y23135940D03*
Y23235940D03*
Y23335940D03*
Y23435940D03*
Y23535940D03*
Y23635940D03*
Y23735940D03*
Y23835940D03*
Y23935940D03*
Y24035940D03*
Y24135940D03*
Y24235940D03*
Y24335940D03*
Y24435940D03*
X22351230Y24515000D03*
X22688720Y15620000D03*
X22588720D03*
X22488720D03*
X22388720D03*
X22592980Y18709980D03*
X22508120Y18794830D03*
X22423270Y18879680D03*
X22712770Y18686150D03*
X22737500Y19375000D03*
X22653810Y19472940D03*
X22607500Y19230000D03*
X22500000Y19217500D03*
X22617500Y19347500D03*
X22465870Y19509350D03*
X22565350Y19519570D03*
X22695000Y22132500D03*
X22451230Y24515000D03*
X22551230D03*
X22651230D03*
X22751230D03*
X23088720Y15620000D03*
X22988720D03*
X22888720D03*
X22788720D03*
X22832770Y18686150D03*
X22952770D03*
X23072770D03*
X22818400Y19269750D03*
X22938400D03*
X23058400D03*
X23178400D03*
X23136070Y20654690D03*
X23016070D03*
X23127960Y20817040D03*
X23127500Y21095000D03*
X23125570Y20937790D03*
X23005570D03*
X23012500Y21105000D03*
X23004750Y23118690D03*
Y22998690D03*
Y23238690D03*
Y23358690D03*
Y23478690D03*
Y23598690D03*
Y23718690D03*
Y23838690D03*
Y23958690D03*
Y24078690D03*
Y24198690D03*
Y24318690D03*
X22851230Y24515000D03*
X22887500Y24608190D03*
Y24708190D03*
Y24808190D03*
X23004750Y24438690D03*
Y24558690D03*
Y24678690D03*
Y24798690D03*
X23087500Y25112500D03*
X22887500Y24908190D03*
Y25008190D03*
X23004750Y24918690D03*
X22837500Y25194000D03*
X22957500D03*
X23588720Y15620000D03*
X23488720D03*
X23388720D03*
X23288720D03*
X23188720D03*
X23527500Y18602500D03*
X23192770Y18686150D03*
X23312770D03*
X23432770D03*
X23298400Y19269750D03*
X23291150Y19382500D03*
X23582500Y19695000D03*
X23317390Y19685860D03*
X23402240Y19770720D03*
X23487090Y19855570D03*
X23291150Y19502500D03*
X23296260Y19590090D03*
X23205000Y20075000D03*
X23300000Y20272500D03*
X23571950Y19940420D03*
X23302500Y20407500D03*
X23256070Y20654690D03*
X23197500Y20420000D03*
X23525000Y20357500D03*
X23312500Y20612500D03*
X23492500Y20587500D03*
X23402500Y20637500D03*
X23504000Y20463300D03*
X23510000Y20940000D03*
X23245570Y20937790D03*
X23417800Y20878420D03*
X23550310Y20814530D03*
X23452280Y21355000D03*
X23481230Y21450720D03*
X23542500Y21260000D03*
X23359640Y22649640D03*
X23192750Y23118690D03*
Y22998690D03*
Y23478690D03*
Y23358690D03*
Y23238690D03*
Y23958690D03*
Y23838690D03*
Y23718690D03*
Y23598690D03*
Y24318690D03*
Y24198690D03*
Y24078690D03*
Y24558690D03*
Y24438690D03*
Y24798690D03*
Y24678690D03*
X23187500Y25112500D03*
X23287500D03*
X23387500D03*
X23487500D03*
X23587500D03*
X23192750Y24918690D03*
X23187500Y25112500D03*
X23185000Y25020000D03*
X23988720Y15620000D03*
X23888720D03*
X23788720D03*
X23688720D03*
X23966460Y16020620D03*
X23936150Y16152500D03*
Y16272500D03*
Y16392500D03*
Y16512500D03*
Y16632500D03*
Y16752500D03*
Y16872500D03*
Y16992500D03*
Y17112500D03*
Y17232500D03*
Y17352500D03*
Y17472500D03*
Y17592500D03*
Y17712500D03*
Y17832500D03*
Y17952500D03*
Y18072500D03*
Y18192500D03*
X23847500Y18640000D03*
X23772500Y18565000D03*
X23936150Y18312500D03*
Y18432500D03*
Y18552500D03*
X23642500Y18557500D03*
X23936150Y18672500D03*
Y18792500D03*
Y18912500D03*
Y19032500D03*
X23855000Y18902500D03*
X23847500Y19002500D03*
X23612500Y19195000D03*
X23936150Y19152500D03*
Y19272500D03*
Y19392500D03*
X23855000Y19220000D03*
X23612500Y19462500D03*
X23936150Y19512500D03*
Y19752500D03*
Y19632500D03*
X23850000Y19822500D03*
X23852500Y19720000D03*
X23855000Y19480000D03*
X23710000Y19740000D03*
X23947500Y19905000D03*
X23625750Y20244600D03*
Y20124600D03*
Y20004600D03*
Y20604600D03*
Y20484600D03*
Y20364600D03*
X23870020Y20499980D03*
X23670310Y20814530D03*
X23625750Y20724600D03*
X23746310Y21477940D03*
X23627310Y21182300D03*
X23845000Y21245000D03*
X23842500Y21367500D03*
X23733460Y21229850D03*
X23687500Y25112500D03*
X23787500D03*
X23887500D03*
X23987500D03*
X24117400Y15715800D03*
X24088720Y15620000D03*
X24018740Y15826240D03*
X24051310Y15935770D03*
X24231740Y16545000D03*
X24220000Y16330000D03*
Y16215000D03*
X24217500Y16450000D03*
X24394680Y16742230D03*
X24309830Y16657380D03*
X24395000Y19062340D03*
X24289860Y19517160D03*
X24193240Y19542930D03*
X24118290Y19609130D03*
X24140160Y19887220D03*
X24393540Y19930070D03*
X24387500Y20578850D03*
X24377500Y20388650D03*
X24210430Y20497330D03*
X24295290Y20412480D03*
X24330310Y20664530D03*
X24325770Y21146370D03*
X24228500Y21123130D03*
X24020280Y21471900D03*
X24420000Y21227500D03*
X24340000Y21352500D03*
X24422500Y21162500D03*
X24172500Y21350000D03*
X24350000Y21885000D03*
X24324330Y21705710D03*
X24222500Y21542500D03*
X24087500Y25112500D03*
X24187500D03*
X24287500D03*
X24387500D03*
X24788250Y15620000D03*
X24688250D03*
X24588250D03*
X24488250D03*
X24457650Y15715200D03*
X24601350Y16107500D03*
Y15987500D03*
Y15867500D03*
X24540000Y15782500D03*
X24601350Y16467500D03*
Y16347500D03*
Y16227500D03*
X24564390Y16911930D03*
X24747230Y16828750D03*
X24479540Y16827080D03*
X24662380Y16743900D03*
X24582500Y16690000D03*
X24747230Y16828750D03*
X24601350Y16587500D03*
X24662380Y16743900D03*
X24649240Y16996790D03*
X24808650Y17362500D03*
Y17242500D03*
X24817500Y17145000D03*
X24734090Y17081640D03*
X24808650Y17722500D03*
Y17602500D03*
Y17482500D03*
Y17842500D03*
Y17962500D03*
Y18082500D03*
Y18202500D03*
Y18322500D03*
Y18442500D03*
Y18562500D03*
Y18682500D03*
Y18802500D03*
Y18922500D03*
Y19042500D03*
Y19162500D03*
Y19282500D03*
Y19402500D03*
X24537500Y19525000D03*
X24665000Y19527500D03*
X24808650Y19522500D03*
Y19642500D03*
Y19762500D03*
X24805060Y20216670D03*
X24492390Y19945200D03*
X24808650Y19882500D03*
Y20002500D03*
Y20122500D03*
X24810310Y20664530D03*
X24690310D03*
X24570310D03*
X24800000Y20310000D03*
X24822500Y20527500D03*
X24507500Y20578850D03*
X24497500Y20388650D03*
X24617500D03*
X24737500D03*
X24627500Y20578850D03*
X24450310Y20664530D03*
X24747500Y20578850D03*
X24658300Y21018500D03*
X24428380Y21095880D03*
X24489300Y20896070D03*
X24552500Y20945000D03*
X24645000Y20860000D03*
X24747500Y21500000D03*
X24557500Y21507500D03*
X24777950Y21207950D03*
X24640000Y21500000D03*
X24468770Y21829640D03*
X24694690Y23470000D03*
X24717130Y23567450D03*
X24770650Y23302440D03*
X24779930Y23645270D03*
X24487500Y25112500D03*
X24587500D03*
X24687500D03*
X24787500D03*
X25188250Y15620000D03*
X25088250D03*
X24988250D03*
X24888250D03*
X24832080Y16913610D03*
X24916930Y16998460D03*
X25001350Y17356570D03*
Y17236570D03*
Y17116570D03*
Y17716570D03*
Y17596570D03*
Y17476570D03*
Y17836570D03*
Y17956570D03*
Y18076570D03*
Y18196570D03*
X25179780Y18545000D03*
X25208730Y18640720D03*
X25001350Y18316570D03*
Y18436570D03*
Y18556570D03*
Y18676570D03*
Y18796570D03*
Y18916570D03*
Y19036570D03*
Y19156570D03*
Y19276570D03*
Y19396570D03*
Y19516570D03*
Y19636570D03*
Y19756570D03*
Y19876570D03*
Y19996570D03*
Y20116570D03*
Y20236570D03*
X24930310Y20664530D03*
X24892670Y20467380D03*
X24977520Y20382520D03*
X25135000Y20963360D03*
X24862500Y20810000D03*
X24855000Y21497500D03*
X24955000Y21500000D03*
X24855000Y21207500D03*
X24935000Y21212500D03*
X25117270Y21512120D03*
X25054500Y21322940D03*
X25096520Y21232200D03*
X25077540Y21134010D03*
X25135000Y21151360D03*
X24947500Y21130000D03*
X24894810Y21655280D03*
X24994770Y21657780D03*
X25079540Y21604730D03*
X25224690Y23470000D03*
X25247130Y23567450D03*
X25120430Y23561990D03*
X25140230Y23463970D03*
X25115160Y23367160D03*
X25050270Y23291070D03*
X24858720Y23255080D03*
X24870440Y23687780D03*
X24970440Y23686430D03*
X25059760Y23641480D03*
X24887500Y25112500D03*
X24987500D03*
X25087500D03*
X25187500D03*
X25588250Y15620000D03*
X25488250D03*
X25388250D03*
X25288250D03*
X25521610Y18580110D03*
X25512730Y18480500D03*
X25450130Y18402520D03*
X25354810Y18372300D03*
X25258710Y18399960D03*
X25248110Y18775610D03*
X25285870Y18704350D03*
X25473810Y18667940D03*
X25447630Y19435020D03*
X25352310Y19404800D03*
X25471310Y19700440D03*
X25519110Y19612610D03*
X25510230Y19513000D03*
X25251610Y19884110D03*
X25511010Y20174670D03*
X25451080Y20254720D03*
X25605000Y20307500D03*
Y20470220D03*
X25449280Y20354710D03*
X25506290Y20436860D03*
X25615000Y20963360D03*
X25495000D03*
X25375000D03*
X25255000D03*
X25615000Y21151360D03*
X25495000D03*
X25375000D03*
X25255000D03*
X25649040Y21609040D03*
X25567280Y21872500D03*
X25601580Y21772570D03*
X25432280Y22242500D03*
X25511210Y22097460D03*
X25650000Y22310000D03*
X25490000Y22187500D03*
X25522500Y22310000D03*
X25637850Y22412070D03*
X25650430Y23561990D03*
X25645160Y23367160D03*
X25580270Y23291070D03*
X25488640Y23251020D03*
X25388720Y23255080D03*
X25295000Y23295000D03*
X25255000Y23372500D03*
X25309930Y23645270D03*
X25400440Y23687780D03*
X25500440Y23686430D03*
X25589760Y23641480D03*
X25287500Y25112500D03*
X25387500D03*
X25487500D03*
X25587500D03*
X25988250Y15620000D03*
X25888250D03*
X25788250D03*
X25688250D03*
X26024450Y20180680D03*
X25931030Y20145000D03*
X25834390Y20170700D03*
X25771020Y20248060D03*
X25701320Y20176350D03*
X25922500Y20307500D03*
X25954000Y20660000D03*
X25700160Y20439490D03*
X25916940Y20470130D03*
X26013100Y20442670D03*
X26075040Y20364160D03*
X25766000Y20660000D03*
X25954000Y20540000D03*
X25766000D03*
Y20900000D03*
X25954000Y20780000D03*
X25766000D03*
X25946330Y20989260D03*
X26031180Y21074120D03*
X25735000Y20963360D03*
Y21151360D03*
X25855000D03*
X26002940Y21466620D03*
X25730000Y21872500D03*
X26051030Y21684410D03*
X25966170Y21769260D03*
X25784230Y21719080D03*
X25684270Y21716340D03*
X25881320Y21854120D03*
X25833240Y21636330D03*
X25918090Y21551470D03*
X25778580Y22027800D03*
X25796470Y21938970D03*
X25682500Y22147500D03*
X25670230Y23463970D03*
X25687500Y25112500D03*
X25787500D03*
X25887500D03*
X25987500D03*
X26388250Y15620000D03*
X26288250D03*
X26188250D03*
X26088250D03*
X26210120Y20249980D03*
X26349640Y20619580D03*
X26464680Y20504540D03*
X26264780Y20534730D03*
X26379830Y20419680D03*
X26179930Y20449880D03*
X26294980Y20334830D03*
X26434490Y20704430D03*
X26079260Y20856330D03*
X26164120Y20941180D03*
X26248970Y21026030D03*
X26088500Y21300000D03*
X26276500Y21180000D03*
Y21300000D03*
Y21420000D03*
X26088500Y21180000D03*
X26220730Y21514700D03*
X26087800Y21381770D03*
X26135880Y21599560D03*
X26087500Y25112500D03*
X26187500D03*
X26287500D03*
X26387500D03*
X26888250Y15620000D03*
X26788250D03*
X26688250D03*
X26588250D03*
X26488250D03*
X26549530Y20589390D03*
X26634390Y20674240D03*
X26773900Y21043850D03*
X26519340Y20789290D03*
X26604190Y20874140D03*
X26689050Y20958990D03*
X26719240Y20759090D03*
X26804090Y20843950D03*
X26888950Y20928800D03*
X26725000Y21300000D03*
X26839010Y21822650D03*
X26740440Y21839480D03*
X26661170Y21900440D03*
X26619610Y21991390D03*
X26625390Y22091230D03*
X26636100Y22190650D03*
X26616250Y22288660D03*
X26657910Y22404650D03*
X26618690Y22496640D03*
X26627040Y22596290D03*
X26681010Y22680470D03*
X26729620Y22736380D03*
Y22616380D03*
Y22856380D03*
Y22976380D03*
Y23096380D03*
X26729830Y23191340D03*
X26650900Y23336380D03*
X26679850Y23432100D03*
X26756990Y23495730D03*
X26856470Y23505950D03*
X26687500Y23267500D03*
X26783370Y24281850D03*
X26882850Y24292070D03*
X26487500Y25112500D03*
X26587500D03*
X26687500D03*
X26787500D03*
X26887500D03*
X27288250Y15620000D03*
X27188250D03*
X27088250D03*
X26988250D03*
X26973800Y21013650D03*
X27029490Y21510040D03*
D03*
Y21390040D03*
D03*
Y21270040D03*
D03*
Y21150040D03*
D03*
Y21630040D03*
Y21750040D03*
Y21630040D03*
X27003390Y21925890D03*
X27029490Y21750040D03*
Y21870040D03*
D03*
X27027420Y22319050D03*
X27022190Y22219190D03*
X27010560Y22119860D03*
X27031050Y22021990D03*
X26957700Y22688110D03*
X27016230Y22607030D03*
X27030060Y22507990D03*
X26995970Y22413980D03*
X26917620Y22736380D03*
Y22616380D03*
Y22856380D03*
Y22976380D03*
Y23096380D03*
X26944930Y23459320D03*
X26992730Y23371490D03*
X26983850Y23271880D03*
X26921250Y23193900D03*
X27280000Y23647500D03*
X26947630Y23980020D03*
X26971310Y24245440D03*
X27019110Y24157610D03*
X27010230Y24058000D03*
X26987500Y25112500D03*
X27087500D03*
X27187500D03*
X27287500D03*
X27688250Y15620000D03*
X27588250D03*
X27488250D03*
X27388250D03*
X27387500Y25112500D03*
X27487500D03*
X27587500D03*
X27687500D03*
X28088250Y15620000D03*
X27988250D03*
X27888250D03*
X27788250D03*
X27878490Y16834440D03*
X27897380Y16932640D03*
X28083340Y16576580D03*
X27991960Y16617190D03*
X27922160Y16688800D03*
X27951350Y17016830D03*
X28032690Y17074990D03*
X28129810Y17098820D03*
X28135790Y22863930D03*
X28037420Y22881950D03*
X27949520Y22929620D03*
X27880760Y23002230D03*
X27825150Y23181900D03*
X27840870Y23280660D03*
X27886480Y23369650D03*
X27957460Y23440090D03*
X28046810Y23485000D03*
X27787500Y25112500D03*
X27887500D03*
X27987500D03*
X28087500D03*
X28488250Y15620000D03*
X28388250D03*
X28288250D03*
X28188250D03*
X28377860Y16956990D03*
X28406570Y16861200D03*
X28397710Y16761600D03*
X28352530Y16672380D03*
X28277480Y16606300D03*
X28183270Y16572770D03*
X28228840Y17084930D03*
X28315650Y17035290D03*
X28461230Y23176950D03*
X28443980Y23078450D03*
X28396990Y22990180D03*
X28324920Y22920850D03*
X28234880Y22877340D03*
X28145690Y23499950D03*
X28244320Y23483460D03*
X28332950Y23437160D03*
X28402830Y23365630D03*
X28447050Y23275940D03*
X28187500Y25112500D03*
X28287500D03*
X28387500D03*
X28487500D03*
X28943310Y15624190D03*
X28888250Y15620000D03*
X28788250D03*
X28688250D03*
X28588250D03*
X28587500Y25112500D03*
X28687500D03*
X28787500D03*
X28887500D03*
X29288250Y15620000D03*
X29188250D03*
X29088250D03*
X28988250D03*
X28987500Y25112500D03*
X29087500D03*
X29187500D03*
X29287500D03*
X29788250Y15620000D03*
X29688250D03*
X29588250D03*
X29488250D03*
X29388250D03*
X29735990Y17339430D03*
X29637620Y17357450D03*
X29549720Y17405120D03*
X29425350Y17657400D03*
X29441070Y17756160D03*
X29480960Y17477730D03*
X29486680Y17845150D03*
X29557660Y17915590D03*
X29647010Y17960500D03*
X29745890Y17975450D03*
X29387500Y25112500D03*
X29487500D03*
X29587500D03*
X29687500D03*
X29787500D03*
X30188250Y15620000D03*
X30088250D03*
X29988250D03*
X29888250D03*
X29925120Y17396350D03*
X29835080Y17352840D03*
X30047250Y17751440D03*
X30061430Y17652450D03*
X30044180Y17553950D03*
X29997190Y17465680D03*
X29844520Y17958960D03*
X29933150Y17912660D03*
X30003030Y17841130D03*
X29887500Y25112500D03*
X29987500D03*
X30087500D03*
X30187500D03*
X30515000Y15716360D03*
X30488250Y15620000D03*
X30388250D03*
X30288250D03*
X30515000Y16116360D03*
Y16016360D03*
Y15916360D03*
Y15816360D03*
Y16516360D03*
Y16416360D03*
Y16316360D03*
Y16216360D03*
Y16916360D03*
Y16816360D03*
Y16716360D03*
Y16616360D03*
Y17316360D03*
Y17216360D03*
Y17116360D03*
Y17016360D03*
Y17716360D03*
Y17616360D03*
Y17516360D03*
Y17416360D03*
Y18216360D03*
Y18116360D03*
Y18016360D03*
Y17916360D03*
Y17816360D03*
Y18616360D03*
Y18516360D03*
Y18416360D03*
Y18316360D03*
Y19016360D03*
Y18916360D03*
Y18816360D03*
Y18716360D03*
Y19416360D03*
Y19316360D03*
Y19216360D03*
Y19116360D03*
Y19816360D03*
Y19716360D03*
Y19616360D03*
Y19516360D03*
Y20216360D03*
Y20116360D03*
Y20016360D03*
Y19916360D03*
Y20616360D03*
Y20516360D03*
Y20416360D03*
Y20316360D03*
Y21016360D03*
Y20916360D03*
Y20816360D03*
Y20716360D03*
Y21516360D03*
Y21416360D03*
Y21316360D03*
Y21216360D03*
Y21116360D03*
Y21916360D03*
Y21816360D03*
Y21716360D03*
Y21616360D03*
Y22316360D03*
Y22216360D03*
Y22116360D03*
Y22016360D03*
Y22716360D03*
Y22616360D03*
Y22516360D03*
Y22416360D03*
Y23116360D03*
Y23016360D03*
Y22916360D03*
Y22816360D03*
Y23516360D03*
Y23416360D03*
Y23316360D03*
Y23216360D03*
Y23916360D03*
Y23816360D03*
Y23716360D03*
Y23616360D03*
Y24416360D03*
Y24316360D03*
Y24216360D03*
Y24116360D03*
Y24016360D03*
Y24816360D03*
Y24716360D03*
Y24616360D03*
Y24516360D03*
X30287500Y25112500D03*
X30387500D03*
X30487500D03*
X30515000Y25016360D03*
Y24916360D03*
G54D11*
X22532500Y19350000D03*
X23410000Y20530000D03*
X23687700Y18925250D03*
X23944960Y20442500D03*
X23625000Y21355000D03*
X24404460Y16545000D03*
X24092500Y21315000D03*
X24238720Y21295550D03*
X24800000Y20870000D03*
X24657500Y21275000D03*
X24482500Y21295000D03*
Y21667500D03*
X24860000Y20965000D03*
X25352500Y18545000D03*
X25350000Y19577500D03*
X25605000Y22242500D03*
X26823620Y23336380D03*
X26850000Y24122500D03*
X28943310Y24388400D03*
G54D12*
X24287500Y15701040D03*
G54D13*
X24296210Y19735040D03*
X24550210D03*
G54D14*
X24917500Y23470000D03*
X25447500D03*
G54D15*
X26823620Y22279650D03*
Y22029650D03*
Y22529650D03*
G54D16*
X28143210Y16834440D03*
G54D17*
Y23181900D03*
X29743410Y17657400D03*
G54D18*
G01X24935000Y21212500D02*
X24930000D01*
X24920000Y21202500D01*
G01X26823620Y22279650D02*
X26911270D01*
G01X26735970D02*
X26823620D01*
G01D02*
Y22367300D01*
G01Y22192000D02*
Y22279650D01*
M02*
