G04 ================== begin FILE IDENTIFICATION RECORD ==================*
G04 Layout Name:  echolight.brd*
G04 Film Name:    SPTP*
G04 File Format:  Gerber RS274X*
G04 File Origin:  Cadence Allegro 25.1-P001*
G04 Origin Date:  Sun Jan 18 15:03:02 2026*
G04 *
G04 Layer:  BOARD GEOMETRY/DESIGN_OUTLINE*
G04 Layer:  PACKAGE GEOMETRY/PASTEMASK_TOP*
G04 Layer:  VIA CLASS/PASTEMASK_TOP*
G04 Layer:  PIN/PASTEMASK_TOP*
G04 *
G04 Offset:    (0.0000 0.0000)*
G04 Mirror:    No*
G04 Mode:      Positive*
G04 Rotation:  0*
G04 FullContactRelief:  No*
G04 UndefLineWidth:     0.1000*
G04 ================== end FILE IDENTIFICATION RECORD ====================*
%FSLAX25Y25*MOMM*%
%IR0*IPPOS*OFA0.00000B0.00000*MIA0B0*SFA1.00000B1.00000*%
%ADD39R,.9398X.9652*%
%ADD24R,.97X.8999*%
%ADD37R,.6556X.4999*%
%ADD29R,.95X1.0056*%
%ADD34R,.508X1.3208*%
%ADD44R,.4064X1.3462*%
%ADD27R,.127X.127*%
%ADD43R,1.1176X.4572*%
%ADD11O,.0467X.2967*%
%AMMACRO38*
4,1,44,.5451,.5088,
.5451,-.5088,
.543008,-.532454,
.536841,-.555385,
.526786,-.576897,
.513147,-.596335,
.496341,-.613111,
.476876,-.626713,
.455346,-.636728,
.432403,-.642853,
.408746,-.6449,
.4087,-.6449,
-.4087,-.6449,
-.432358,-.64286,
-.455303,-.636744,
-.476837,-.626735,
-.496306,-.61314,
-.513118,-.59637,
-.526763,-.576936,
-.536825,-.555428,
-.543,-.532499,
-.5451,-.508846,
-.5451,-.5088,
-.5451,.5088,
-.543008,.532454,
-.536841,.555385,
-.526786,.576897,
-.513147,.596335,
-.496341,.613111,
-.476876,.626713,
-.455346,.636728,
-.432403,.642853,
-.408746,.6449,
-.4087,.6449,
.4087,.6449,
.432358,.64286,
.455303,.636744,
.476837,.626735,
.496306,.61314,
.513118,.59637,
.526763,.576936,
.536825,.555428,
.543,.532499,
.5451,.508846,
.5451,.5088,
0.0*
%
%ADD38MACRO38*%
%AMMACRO23*
4,1,44,-.1435,.2949,
.1435,.2949,
.17065,.292553,
.19698,.285527,
.221691,.274036,
.24403,.258428,
.26332,.239179,
.278974,.216872,
.290516,.192186,
.297597,.16587,
.3,.138725,
.3,.1387,
.3,-.1387,
.297601,-.165846,
.290525,-.192162,
.278986,-.21685,
.263335,-.23916,
.244049,-.258412,
.221712,-.274024,
.197004,-.285519,
.170675,-.292549,
.143525,-.2949,
.1435,-.2949,
-.1435,-.2949,
-.17065,-.292553,
-.19698,-.285527,
-.221691,-.274036,
-.24403,-.258428,
-.26332,-.239179,
-.278974,-.216872,
-.290516,-.192186,
-.297597,-.16587,
-.3,-.138725,
-.3,-.1387,
-.3,.1387,
-.297601,.165846,
-.290525,.192162,
-.278986,.21685,
-.263335,.23916,
-.244049,.258412,
-.221712,.274024,
-.197004,.285519,
-.170675,.292549,
-.143525,.2949,
-.1435,.2949,
0.0*
%
%ADD23MACRO23*%
%AMMACRO18*
4,1,44,.2949,.1435,
.2949,-.1435,
.292553,-.17065,
.285527,-.19698,
.274036,-.221691,
.258428,-.24403,
.239179,-.26332,
.216872,-.278974,
.192186,-.290516,
.16587,-.297597,
.138725,-.3,
.1387,-.3,
-.1387,-.3,
-.165846,-.297601,
-.192162,-.290525,
-.21685,-.278986,
-.23916,-.263335,
-.258412,-.244049,
-.274024,-.221712,
-.285519,-.197004,
-.292549,-.170675,
-.2949,-.143525,
-.2949,-.1435,
-.2949,.1435,
-.292553,.17065,
-.285527,.19698,
-.274036,.221691,
-.258428,.24403,
-.239179,.26332,
-.216872,.278974,
-.192186,.290516,
-.16587,.297597,
-.138725,.3,
-.1387,.3,
.1387,.3,
.165846,.297601,
.192162,.290525,
.21685,.278986,
.23916,.263335,
.258412,.244049,
.274024,.221712,
.285519,.197004,
.292549,.170675,
.2949,.143525,
.2949,.1435,
0.0*
%
%ADD18MACRO18*%
%ADD17R,.3X.3*%
%ADD40R,.4X.5001*%
%ADD12R,.5001X.5001*%
%ADD16R,.38X.4*%
%ADD41R,2.1082X1.6002*%
%ADD22R,.5X.6056*%
%ADD36R,1.016X1.7526*%
%ADD32R,1.016X1.1938*%
%ADD42R,1.8034X1.905*%
%ADD35R,.8X.6556*%
%ADD45R,1.905X1.905*%
%ADD10R,.0254X.0254*%
%ADD33R,.7556X.8001*%
%ADD31R,.8128X.762*%
%ADD13R,1.8999X1.1001*%
%ADD26O,.5999X.24*%
%ADD28R,.6096X.5334*%
%ADD25O,.24X.5999*%
%ADD30R,.5588X.7112*%
%ADD20R,.7112X.5588*%
%ADD19R,.508X.5588*%
%ADD14R,.54X.5999*%
%ADD21R,.9799X.92*%
%ADD46R,6.477X7.4676*%
%AMMACRO15*
4,1,44,.1435,-.2949,
-.1435,-.2949,
-.17065,-.292553,
-.19698,-.285527,
-.221691,-.274036,
-.24403,-.258428,
-.26332,-.239179,
-.278974,-.216872,
-.290516,-.192186,
-.297597,-.16587,
-.3,-.138725,
-.3,-.1387,
-.3,.1387,
-.297601,.165846,
-.290525,.192162,
-.278986,.21685,
-.263335,.23916,
-.244049,.258412,
-.221712,.274024,
-.197004,.285519,
-.170675,.292549,
-.143525,.2949,
-.1435,.2949,
.1435,.2949,
.17065,.292553,
.19698,.285527,
.221691,.274036,
.24403,.258428,
.26332,.239179,
.278974,.216872,
.290516,.192186,
.297597,.16587,
.3,.138725,
.3,.1387,
.3,-.1387,
.297601,-.165846,
.290525,-.192162,
.278986,-.21685,
.263335,-.23916,
.244049,-.258412,
.221712,-.274024,
.197004,-.285519,
.170675,-.292549,
.143525,-.2949,
.1435,-.2949,
0.0*
%
%ADD15MACRO15*%
%ADD47C,.1*%
G75*
%LPD*%
G75*
G36*
G01X22257500Y19227000D02*
X22382500D01*
Y19289000D01*
X22257500D01*
Y19227000D01*
G37*
G36*
G01X24080310Y20910880D02*
X23931710D01*
Y20762280D01*
X24080310D01*
Y20910880D01*
G37*
G36*
G01Y21079480D02*
X23931710D01*
Y20930880D01*
X24080310D01*
Y21079480D01*
G37*
G36*
G01X24294580Y15782010D02*
X24287500Y15782320D01*
X24262380Y15778340D01*
X24239730Y15766800D01*
X24221740Y15748820D01*
X24210200Y15726160D01*
X24206220Y15701040D01*
X24210200Y15675920D01*
X24221740Y15653270D01*
X24239730Y15635280D01*
X24262380Y15623740D01*
X24287500Y15619760D01*
X24294580Y15620070D01*
X24291930Y15650430D01*
X24287500Y15650240D01*
X24271800Y15652730D01*
X24257640Y15659940D01*
X24246400Y15671180D01*
X24239190Y15685340D01*
X24236700Y15701040D01*
X24239190Y15716740D01*
X24246400Y15730900D01*
X24257640Y15742140D01*
X24271800Y15749350D01*
X24287500Y15751840D01*
X24291930Y15751650D01*
X24294580Y15782010D01*
G37*
G36*
G01D02*
X24287500Y15782320D01*
X24262380Y15778340D01*
X24239730Y15766800D01*
X24221740Y15748820D01*
X24210200Y15726160D01*
X24206220Y15701040D01*
X24210200Y15675920D01*
X24221740Y15653270D01*
X24239730Y15635280D01*
X24262380Y15623740D01*
X24287500Y15619760D01*
X24294580Y15620070D01*
X24291930Y15650430D01*
X24287500Y15650240D01*
X24271800Y15652730D01*
X24257640Y15659940D01*
X24246400Y15671180D01*
X24239190Y15685340D01*
X24236700Y15701040D01*
X24239190Y15716740D01*
X24246400Y15730900D01*
X24257640Y15742140D01*
X24271800Y15749350D01*
X24287500Y15751840D01*
X24291930Y15751650D01*
X24294580Y15782010D01*
G37*
G36*
G01X24280420D02*
X24287500Y15782320D01*
X24312620Y15778340D01*
X24335270Y15766800D01*
X24353260Y15748820D01*
X24364800Y15726160D01*
X24368780Y15701040D01*
X24364800Y15675920D01*
X24353260Y15653270D01*
X24335270Y15635280D01*
X24312620Y15623740D01*
X24287500Y15619760D01*
X24280420Y15620070D01*
X24283070Y15650430D01*
X24287500Y15650240D01*
X24303200Y15652730D01*
X24317360Y15659940D01*
X24328600Y15671180D01*
X24335810Y15685340D01*
X24338300Y15701040D01*
X24335810Y15716740D01*
X24328600Y15730900D01*
X24317360Y15742140D01*
X24303200Y15749350D01*
X24287500Y15751840D01*
X24283070Y15751650D01*
X24280420Y15782010D01*
G37*
G36*
G01D02*
X24287500Y15782320D01*
X24312620Y15778340D01*
X24335270Y15766800D01*
X24353260Y15748820D01*
X24364800Y15726160D01*
X24368780Y15701040D01*
X24364800Y15675920D01*
X24353260Y15653270D01*
X24335270Y15635280D01*
X24312620Y15623740D01*
X24287500Y15619760D01*
X24280420Y15620070D01*
X24283070Y15650430D01*
X24287500Y15650240D01*
X24303200Y15652730D01*
X24317360Y15659940D01*
X24328600Y15671180D01*
X24335810Y15685340D01*
X24338300Y15701040D01*
X24335810Y15716740D01*
X24328600Y15730900D01*
X24317360Y15742140D01*
X24303200Y15749350D01*
X24287500Y15751840D01*
X24283070Y15751650D01*
X24280420Y15782010D01*
G37*
G36*
G01X24294580D02*
X24287500Y15782320D01*
X24262380Y15778340D01*
X24239730Y15766800D01*
X24221740Y15748820D01*
X24210200Y15726160D01*
X24206220Y15701040D01*
X24210200Y15675920D01*
X24221740Y15653270D01*
X24239730Y15635280D01*
X24262380Y15623740D01*
X24287500Y15619760D01*
X24294580Y15620070D01*
X24291930Y15650430D01*
X24287500Y15650240D01*
X24271800Y15652730D01*
X24257640Y15659940D01*
X24246400Y15671180D01*
X24239190Y15685340D01*
X24236700Y15701040D01*
X24239190Y15716740D01*
X24246400Y15730900D01*
X24257640Y15742140D01*
X24271800Y15749350D01*
X24287500Y15751840D01*
X24291930Y15751650D01*
X24294580Y15782010D01*
G37*
G36*
G01X24280420D02*
X24287500Y15782320D01*
X24312620Y15778340D01*
X24335270Y15766800D01*
X24353260Y15748820D01*
X24364800Y15726160D01*
X24368780Y15701040D01*
X24364800Y15675920D01*
X24353260Y15653270D01*
X24335270Y15635280D01*
X24312620Y15623740D01*
X24287500Y15619760D01*
X24280420Y15620070D01*
X24283070Y15650430D01*
X24287500Y15650240D01*
X24303200Y15652730D01*
X24317360Y15659940D01*
X24328600Y15671180D01*
X24335810Y15685340D01*
X24338300Y15701040D01*
X24335810Y15716740D01*
X24328600Y15730900D01*
X24317360Y15742140D01*
X24303200Y15749350D01*
X24287500Y15751840D01*
X24283070Y15751650D01*
X24280420Y15782010D01*
G37*
G36*
G01X24100310Y20762280D02*
X24248910D01*
Y20910880D01*
X24100310D01*
Y20762280D01*
G37*
G36*
G01Y20930880D02*
X24248910D01*
Y21079480D01*
X24100310D01*
Y20930880D01*
G37*
G54D10*
X22320000Y19258000D03*
X24090310Y20920880D03*
G54D20*
X23577160Y19575650D03*
X23681300D03*
X25352070Y18932500D03*
X25247930D03*
X26844000Y21150040D03*
X26948140D03*
G54D11*
X22320000Y19163000D03*
X22255000D03*
X22254500Y19353000D03*
X22320000D03*
X22385000Y19163000D03*
Y19353000D03*
G54D21*
X23409310Y20187500D03*
Y20342500D03*
X23947500Y20020000D03*
Y20175000D03*
X23880570Y21545580D03*
X23626200Y21702300D03*
Y21547300D03*
X23880570Y21700580D03*
X24350000Y21702500D03*
Y21547500D03*
G54D30*
X24395310Y19433980D03*
Y19329840D03*
G54D12*
X22695000Y21855000D03*
Y21955000D03*
G54D13*
X22836180Y21051870D03*
Y20801870D03*
G54D31*
X24640640Y21630040D03*
Y21784980D03*
G54D22*
X23205000Y20209720D03*
Y20320280D03*
X24115000Y21547220D03*
Y21657780D03*
G54D40*
X25930310Y22300040D03*
X25860310D03*
Y22430040D03*
X25930310D03*
G54D14*
X23115800Y21399000D03*
X23202200D03*
G54D32*
X25166520Y19387540D03*
X25336700D03*
G54D41*
X26532560Y24558220D03*
X27152560D03*
G54D23*
X23280310Y21019140D03*
Y21100140D03*
Y20736040D03*
Y20817040D03*
G54D15*
X22952700Y21933000D03*
Y22014000D03*
G54D33*
X25194470Y19735040D03*
X25350030D03*
G54D42*
X26462560Y24813220D03*
X27222560D03*
G54D24*
X23261810Y21895000D03*
Y22052000D03*
G54D25*
X23915310Y20680880D03*
X23965310D03*
Y21160880D03*
X23915310D03*
X24015310Y20680880D03*
X24065310D03*
X24115310D03*
X24165310D03*
X24215310D03*
X24265310D03*
Y21160880D03*
X24215310D03*
X24165310D03*
X24115310D03*
X24065310D03*
X24015310D03*
G54D16*
X22924600Y21700000D03*
X22980800D03*
G54D43*
X26686460Y23647540D03*
Y23742540D03*
Y23837540D03*
X26960780D03*
Y23647540D03*
G54D34*
X25156610Y20069130D03*
Y20307890D03*
X25346610Y20069130D03*
X25251610Y20307890D03*
X25346610D03*
G54D26*
X23850310Y21045880D03*
Y20995880D03*
Y20945880D03*
Y20895880D03*
Y20845880D03*
Y20795880D03*
Y20745880D03*
Y21095880D03*
X24330310Y20745880D03*
Y20795880D03*
Y20845880D03*
Y20895880D03*
Y20945880D03*
Y20995880D03*
Y21045880D03*
Y21095880D03*
G54D35*
X25008410Y20754760D03*
Y20920320D03*
G54D17*
X23130000Y22335040D03*
Y22395040D03*
X23099330Y22890000D03*
Y22950000D03*
G54D44*
X26842560Y24545720D03*
X26777560D03*
X26712560D03*
X26972560D03*
X26907560D03*
G54D45*
X26722560Y24813220D03*
X26962560D03*
G54D36*
X25049390Y22029650D03*
X25333870D03*
G54D18*
X23114500Y22650000D03*
X23270000Y21702500D03*
X23351000D03*
X23195500Y22650000D03*
G54D27*
X24287500Y15635000D03*
G54D46*
X28943310Y16450900D03*
Y24388400D03*
G54D19*
X23552770Y18767500D03*
X23563280Y19077730D03*
X23554670Y19329800D03*
X23677230Y18767500D03*
X23687740Y19077730D03*
X23679130Y19329800D03*
G54D28*
X24197500Y15908440D03*
Y15826240D03*
X24377500Y15908440D03*
X24287500D03*
X24377500Y15826240D03*
G54D37*
X25241330Y22365040D03*
Y22645040D03*
X25351890Y22365040D03*
Y22645040D03*
G54D47*
G01X22034500Y15367000D02*
Y25367000D01*
X30767500D01*
Y15367000D01*
X22034500D01*
G54D38*
X25314810Y21391040D03*
X25482810D03*
X25314810Y21609040D03*
X25482810D03*
G54D29*
X24412500Y16393060D03*
Y16247500D03*
G54D39*
X25860000Y20907500D03*
Y21057360D03*
M02*
