G04 ================== begin FILE IDENTIFICATION RECORD ==================*
G04 Layout Name:  echolight.brd*
G04 Film Name:    TOP*
G04 File Format:  Gerber RS274X*
G04 File Origin:  Cadence Allegro 25.1-P001*
G04 Origin Date:  Sun Jan 18 15:03:02 2026*
G04 *
G04 Layer:  VIA CLASS/TOP*
G04 Layer:  PIN/TOP*
G04 Layer:  ETCH/TOP*
G04 *
G04 Offset:    (0.0000 0.0000)*
G04 Mirror:    No*
G04 Mode:      Positive*
G04 Rotation:  0*
G04 FullContactRelief:  No*
G04 UndefLineWidth:     0.1000*
G04 ================== end FILE IDENTIFICATION RECORD ====================*
%FSLAX25Y25*MOMM*%
%IR0*IPPOS*OFA0.00000B0.00000*MIA0B0*SFA1.00000B1.00000*%
%ADD47R,.9398X.9652*%
%ADD27R,.97X.8999*%
%ADD12O,.2499X.4999*%
%ADD44R,.6556X.4999*%
%ADD10C,.5*%
%ADD11R,1.35X.65*%
%ADD14C,.7*%
%ADD34R,.95X1.0056*%
%ADD41R,.508X1.3208*%
%ADD32C,.508*%
%ADD53R,.4064X1.3462*%
%ADD31R,.127X.127*%
%ADD52R,1.1176X.4572*%
%ADD13R,.8499X1.7501*%
%AMMACRO46*
4,1,44,.5451,.5088,
.5451,-.5088,
.543008,-.532454,
.536841,-.555385,
.526786,-.576897,
.513147,-.596335,
.496341,-.613111,
.476876,-.626713,
.455346,-.636728,
.432403,-.642853,
.408746,-.6449,
.4087,-.6449,
-.4087,-.6449,
-.432358,-.64286,
-.455303,-.636744,
-.476837,-.626735,
-.496306,-.61314,
-.513118,-.59637,
-.526763,-.576936,
-.536825,-.555428,
-.543,-.532499,
-.5451,-.508846,
-.5451,-.5088,
-.5451,.5088,
-.543008,.532454,
-.536841,.555385,
-.526786,.576897,
-.513147,.596335,
-.496341,.613111,
-.476876,.626713,
-.455346,.636728,
-.432403,.642853,
-.408746,.6449,
-.4087,.6449,
.4087,.6449,
.432358,.64286,
.455303,.636744,
.476837,.626735,
.496306,.61314,
.513118,.59637,
.526763,.576936,
.536825,.555428,
.543,.532499,
.5451,.508846,
.5451,.5088,
0.0*
%
%ADD46MACRO46*%
%AMMACRO26*
4,1,44,-.1435,.2949,
.1435,.2949,
.17065,.292553,
.19698,.285527,
.221691,.274036,
.24403,.258428,
.26332,.239179,
.278974,.216872,
.290516,.192186,
.297597,.16587,
.3,.138725,
.3,.1387,
.3,-.1387,
.297601,-.165846,
.290525,-.192162,
.278986,-.21685,
.263335,-.23916,
.244049,-.258412,
.221712,-.274024,
.197004,-.285519,
.170675,-.292549,
.143525,-.2949,
.1435,-.2949,
-.1435,-.2949,
-.17065,-.292553,
-.19698,-.285527,
-.221691,-.274036,
-.24403,-.258428,
-.26332,-.239179,
-.278974,-.216872,
-.290516,-.192186,
-.297597,-.16587,
-.3,-.138725,
-.3,-.1387,
-.3,.1387,
-.297601,.165846,
-.290525,.192162,
-.278986,.21685,
-.263335,.23916,
-.244049,.258412,
-.221712,.274024,
-.197004,.285519,
-.170675,.292549,
-.143525,.2949,
-.1435,.2949,
0.0*
%
%ADD26MACRO26*%
%AMMACRO21*
4,1,44,.2949,.1435,
.2949,-.1435,
.292553,-.17065,
.285527,-.19698,
.274036,-.221691,
.258428,-.24403,
.239179,-.26332,
.216872,-.278974,
.192186,-.290516,
.16587,-.297597,
.138725,-.3,
.1387,-.3,
-.1387,-.3,
-.165846,-.297601,
-.192162,-.290525,
-.21685,-.278986,
-.23916,-.263335,
-.258412,-.244049,
-.274024,-.221712,
-.285519,-.197004,
-.292549,-.170675,
-.2949,-.143525,
-.2949,-.1435,
-.2949,.1435,
-.292553,.17065,
-.285527,.19698,
-.274036,.221691,
-.258428,.24403,
-.239179,.26332,
-.216872,.278974,
-.192186,.290516,
-.16587,.297597,
-.138725,.3,
-.1387,.3,
.1387,.3,
.165846,.297601,
.192162,.290525,
.21685,.278986,
.23916,.263335,
.258412,.244049,
.274024,.221712,
.285519,.197004,
.292549,.170675,
.2949,.143525,
.2949,.1435,
0.0*
%
%ADD21MACRO21*%
%ADD20R,.3X.3*%
%ADD48R,.4X.5001*%
%ADD15R,.5001X.5001*%
%ADD19R,.38X.4*%
%ADD49R,2.1082X1.6002*%
%ADD37C,1.605*%
%ADD25R,.5X.6056*%
%ADD43R,1.016X1.7526*%
%ADD45C,1.7018*%
%ADD39R,1.016X1.1938*%
%ADD50R,1.8034X1.905*%
%ADD36R,1.605X1.605*%
%ADD56C,3.4544*%
%ADD51C,1.397*%
%ADD30R,3.4501X3.4501*%
%ADD42R,.8X.6556*%
%ADD54R,1.905X1.905*%
%ADD40R,.7556X.8001*%
%ADD38R,.8128X.762*%
%ADD16R,1.8999X1.1001*%
%ADD55C,2.3876*%
%ADD29O,.5999X.24*%
%ADD33R,.6096X.5334*%
%ADD28O,.24X.5999*%
%ADD35R,.5588X.7112*%
%ADD23R,.7112X.5588*%
%ADD22R,.508X.5588*%
%ADD17R,.54X.5999*%
%ADD24R,.9799X.92*%
%ADD57R,6.477X7.4676*%
%AMMACRO18*
4,1,44,.1435,-.2949,
-.1435,-.2949,
-.17065,-.292553,
-.19698,-.285527,
-.221691,-.274036,
-.24403,-.258428,
-.26332,-.239179,
-.278974,-.216872,
-.290516,-.192186,
-.297597,-.16587,
-.3,-.138725,
-.3,-.1387,
-.3,.1387,
-.297601,.165846,
-.290525,.192162,
-.278986,.21685,
-.263335,.23916,
-.244049,.258412,
-.221712,.274024,
-.197004,.285519,
-.170675,.292549,
-.143525,.2949,
-.1435,.2949,
.1435,.2949,
.17065,.292553,
.19698,.285527,
.221691,.274036,
.24403,.258428,
.26332,.239179,
.278974,.216872,
.290516,.192186,
.297597,.16587,
.3,.138725,
.3,.1387,
.3,-.1387,
.297601,-.165846,
.290525,-.192162,
.278986,-.21685,
.263335,-.23916,
.244049,-.258412,
.221712,-.274024,
.197004,-.285519,
.170675,-.292549,
.143525,-.2949,
.1435,-.2949,
0.0*
%
%ADD18MACRO18*%
%ADD58C,.24*%
%ADD59C,.235*%
%ADD60C,.127*%
%ADD61C,.38*%
G75*
%LPD*%
G75*
G36*
G01X24294580Y15782010D02*
X24287500Y15782320D01*
X24262380Y15778340D01*
X24239730Y15766800D01*
X24221740Y15748820D01*
X24210200Y15726160D01*
X24206220Y15701040D01*
X24210200Y15675920D01*
X24221740Y15653270D01*
X24239730Y15635280D01*
X24262380Y15623740D01*
X24287500Y15619760D01*
X24294580Y15620070D01*
X24291930Y15650430D01*
X24287500Y15650240D01*
X24271800Y15652730D01*
X24257640Y15659940D01*
X24246400Y15671180D01*
X24239190Y15685340D01*
X24236700Y15701040D01*
X24239190Y15716740D01*
X24246400Y15730900D01*
X24257640Y15742140D01*
X24271800Y15749350D01*
X24287500Y15751840D01*
X24291930Y15751650D01*
X24294580Y15782010D01*
G37*
G36*
G01X24280420D02*
X24287500Y15782320D01*
X24312620Y15778340D01*
X24335270Y15766800D01*
X24353260Y15748820D01*
X24364800Y15726160D01*
X24368780Y15701040D01*
X24364800Y15675920D01*
X24353260Y15653270D01*
X24335270Y15635280D01*
X24312620Y15623740D01*
X24287500Y15619760D01*
X24280420Y15620070D01*
X24283070Y15650430D01*
X24287500Y15650240D01*
X24303200Y15652730D01*
X24317360Y15659940D01*
X24328600Y15671180D01*
X24335810Y15685340D01*
X24338300Y15701040D01*
X24335810Y15716740D01*
X24328600Y15730900D01*
X24317360Y15742140D01*
X24303200Y15749350D01*
X24287500Y15751840D01*
X24283070Y15751650D01*
X24280420Y15782010D01*
G37*
G54D10*
X22290000Y15635940D03*
Y15735940D03*
Y15835940D03*
Y15935940D03*
Y16035940D03*
Y16135940D03*
Y16235940D03*
Y16335940D03*
Y16435940D03*
Y16535940D03*
Y16635940D03*
Y16735940D03*
Y16835940D03*
Y16935940D03*
Y17035940D03*
Y17135940D03*
Y17235940D03*
Y17335940D03*
Y17435940D03*
Y17535940D03*
Y17635940D03*
Y17735940D03*
Y17835940D03*
Y17935940D03*
Y18035940D03*
Y18135940D03*
Y18235940D03*
Y18335940D03*
Y18435940D03*
Y18535940D03*
Y18635940D03*
Y18735940D03*
Y18835940D03*
Y18935940D03*
X22338420Y18964540D03*
X22254500Y19438000D03*
X22267500Y19055000D03*
X22290000Y19635940D03*
Y19735940D03*
Y19835940D03*
Y19935940D03*
Y20035940D03*
Y20135940D03*
Y20235940D03*
Y20335940D03*
Y20435940D03*
Y20535940D03*
Y20635940D03*
Y20735940D03*
Y20835940D03*
Y20935940D03*
Y21035940D03*
Y21135940D03*
Y21235940D03*
Y21335940D03*
Y21435940D03*
Y21535940D03*
Y21635940D03*
Y21735940D03*
Y21835940D03*
Y21935940D03*
Y22035940D03*
Y22135940D03*
Y22235940D03*
Y22335940D03*
Y22435940D03*
Y22535940D03*
Y22635940D03*
Y22735940D03*
Y22835940D03*
Y22935940D03*
Y23035940D03*
Y23135940D03*
Y23235940D03*
Y23335940D03*
Y23435940D03*
Y23535940D03*
Y23635940D03*
Y23735940D03*
Y23835940D03*
Y23935940D03*
Y24035940D03*
Y24135940D03*
Y24235940D03*
Y24335940D03*
Y24435940D03*
X22351230Y24515000D03*
X22688720Y15620000D03*
X22588720D03*
X22488720D03*
X22388720D03*
X22592980Y18709980D03*
X22508120Y18794830D03*
X22423270Y18879680D03*
X22712770Y18686150D03*
X22737500Y19375000D03*
X22653810Y19472940D03*
X22607500Y19230000D03*
X22500000Y19217500D03*
X22617500Y19347500D03*
X22465870Y19509350D03*
X22565350Y19519570D03*
X22695000Y22132500D03*
X22451230Y24515000D03*
X22551230D03*
X22651230D03*
X22751230D03*
X23088720Y15620000D03*
X22988720D03*
X22888720D03*
X22788720D03*
X22832770Y18686150D03*
X22952770D03*
X23072770D03*
X22818400Y19269750D03*
X22938400D03*
X23058400D03*
X23178400D03*
X23136070Y20654690D03*
X23016070D03*
X23127960Y20817040D03*
X23127500Y21095000D03*
X23125570Y20937790D03*
X23005570D03*
X23012500Y21105000D03*
X23004750Y23118690D03*
Y22998690D03*
Y23238690D03*
Y23358690D03*
Y23478690D03*
Y23598690D03*
Y23718690D03*
Y23838690D03*
Y23958690D03*
Y24078690D03*
Y24198690D03*
Y24318690D03*
X22851230Y24515000D03*
X22887500Y24608190D03*
Y24708190D03*
Y24808190D03*
X23004750Y24438690D03*
Y24558690D03*
Y24678690D03*
Y24798690D03*
X23087500Y25112500D03*
X22887500Y24908190D03*
Y25008190D03*
X23004750Y24918690D03*
X22837500Y25194000D03*
X22957500D03*
X23588720Y15620000D03*
X23488720D03*
X23388720D03*
X23288720D03*
X23188720D03*
X23527500Y18602500D03*
X23192770Y18686150D03*
X23312770D03*
X23432770D03*
X23298400Y19269750D03*
X23291150Y19382500D03*
X23582500Y19695000D03*
X23317390Y19685860D03*
X23402240Y19770720D03*
X23487090Y19855570D03*
X23291150Y19502500D03*
X23296260Y19590090D03*
X23205000Y20075000D03*
X23300000Y20272500D03*
X23571950Y19940420D03*
X23302500Y20407500D03*
X23256070Y20654690D03*
X23197500Y20420000D03*
X23525000Y20357500D03*
X23312500Y20612500D03*
X23492500Y20587500D03*
X23402500Y20637500D03*
X23504000Y20463300D03*
X23510000Y20940000D03*
X23245570Y20937790D03*
X23417800Y20878420D03*
X23550310Y20814530D03*
X23452280Y21355000D03*
X23481230Y21450720D03*
X23542500Y21260000D03*
X23359640Y22649640D03*
X23192750Y23118690D03*
Y22998690D03*
Y23478690D03*
Y23358690D03*
Y23238690D03*
Y23958690D03*
Y23838690D03*
Y23718690D03*
Y23598690D03*
Y24318690D03*
Y24198690D03*
Y24078690D03*
Y24558690D03*
Y24438690D03*
Y24798690D03*
Y24678690D03*
X23187500Y25112500D03*
X23287500D03*
X23387500D03*
X23487500D03*
X23587500D03*
X23192750Y24918690D03*
X23187500Y25112500D03*
X23185000Y25020000D03*
X23988720Y15620000D03*
X23888720D03*
X23788720D03*
X23688720D03*
X23966460Y16020620D03*
X23936150Y16152500D03*
Y16272500D03*
Y16392500D03*
Y16512500D03*
Y16632500D03*
Y16752500D03*
Y16872500D03*
Y16992500D03*
Y17112500D03*
Y17232500D03*
Y17352500D03*
Y17472500D03*
Y17592500D03*
Y17712500D03*
Y17832500D03*
Y17952500D03*
Y18072500D03*
Y18192500D03*
X23847500Y18640000D03*
X23772500Y18565000D03*
X23936150Y18312500D03*
Y18432500D03*
Y18552500D03*
X23642500Y18557500D03*
X23936150Y18672500D03*
Y18792500D03*
Y18912500D03*
Y19032500D03*
X23855000Y18902500D03*
X23847500Y19002500D03*
X23612500Y19195000D03*
X23936150Y19152500D03*
Y19272500D03*
Y19392500D03*
X23855000Y19220000D03*
X23612500Y19462500D03*
X23936150Y19512500D03*
Y19752500D03*
Y19632500D03*
X23850000Y19822500D03*
X23852500Y19720000D03*
X23855000Y19480000D03*
X23710000Y19740000D03*
X23947500Y19905000D03*
X23625750Y20244600D03*
Y20124600D03*
Y20004600D03*
Y20604600D03*
Y20484600D03*
Y20364600D03*
X23870020Y20499980D03*
X23670310Y20814530D03*
X23625750Y20724600D03*
X23746310Y21477940D03*
X23627310Y21182300D03*
X23845000Y21245000D03*
X23842500Y21367500D03*
X23733460Y21229850D03*
X23687500Y25112500D03*
X23787500D03*
X23887500D03*
X23987500D03*
X24117400Y15715800D03*
X24088720Y15620000D03*
X24018740Y15826240D03*
X24051310Y15935770D03*
X24231740Y16545000D03*
X24220000Y16330000D03*
Y16215000D03*
X24217500Y16450000D03*
X24394680Y16742230D03*
X24309830Y16657380D03*
X24395000Y19062340D03*
X24289860Y19517160D03*
X24193240Y19542930D03*
X24118290Y19609130D03*
X24140160Y19887220D03*
X24393540Y19930070D03*
X24387500Y20578850D03*
X24377500Y20388650D03*
X24210430Y20497330D03*
X24295290Y20412480D03*
X24330310Y20664530D03*
X24325770Y21146370D03*
X24228500Y21123130D03*
X24020280Y21471900D03*
X24420000Y21227500D03*
X24340000Y21352500D03*
X24422500Y21162500D03*
X24172500Y21350000D03*
X24350000Y21885000D03*
X24324330Y21705710D03*
X24222500Y21542500D03*
X24087500Y25112500D03*
X24187500D03*
X24287500D03*
X24387500D03*
X24788250Y15620000D03*
X24688250D03*
X24588250D03*
X24488250D03*
X24457650Y15715200D03*
X24601350Y16107500D03*
Y15987500D03*
Y15867500D03*
X24540000Y15782500D03*
X24601350Y16467500D03*
Y16347500D03*
Y16227500D03*
X24564390Y16911930D03*
X24747230Y16828750D03*
X24479540Y16827080D03*
X24662380Y16743900D03*
X24582500Y16690000D03*
X24747230Y16828750D03*
X24601350Y16587500D03*
X24662380Y16743900D03*
X24649240Y16996790D03*
X24808650Y17362500D03*
Y17242500D03*
X24817500Y17145000D03*
X24734090Y17081640D03*
X24808650Y17722500D03*
Y17602500D03*
Y17482500D03*
Y17842500D03*
Y17962500D03*
Y18082500D03*
Y18202500D03*
Y18322500D03*
Y18442500D03*
Y18562500D03*
Y18682500D03*
Y18802500D03*
Y18922500D03*
Y19042500D03*
Y19162500D03*
Y19282500D03*
Y19402500D03*
X24537500Y19525000D03*
X24665000Y19527500D03*
X24808650Y19522500D03*
Y19642500D03*
Y19762500D03*
X24805060Y20216670D03*
X24492390Y19945200D03*
X24808650Y19882500D03*
Y20002500D03*
Y20122500D03*
X24810310Y20664530D03*
X24690310D03*
X24570310D03*
X24800000Y20310000D03*
X24822500Y20527500D03*
X24507500Y20578850D03*
X24497500Y20388650D03*
X24617500D03*
X24737500D03*
X24627500Y20578850D03*
X24450310Y20664530D03*
X24747500Y20578850D03*
X24658300Y21018500D03*
X24428380Y21095880D03*
X24489300Y20896070D03*
X24552500Y20945000D03*
X24645000Y20860000D03*
X24747500Y21500000D03*
X24557500Y21507500D03*
X24777950Y21207950D03*
X24640000Y21500000D03*
X24468770Y21829640D03*
X24694690Y23470000D03*
X24717130Y23567450D03*
X24770650Y23302440D03*
X24779930Y23645270D03*
X24487500Y25112500D03*
X24587500D03*
X24687500D03*
X24787500D03*
X25188250Y15620000D03*
X25088250D03*
X24988250D03*
X24888250D03*
X24832080Y16913610D03*
X24916930Y16998460D03*
X25001350Y17356570D03*
Y17236570D03*
Y17116570D03*
Y17716570D03*
Y17596570D03*
Y17476570D03*
Y17836570D03*
Y17956570D03*
Y18076570D03*
Y18196570D03*
X25179780Y18545000D03*
X25208730Y18640720D03*
X25001350Y18316570D03*
Y18436570D03*
Y18556570D03*
Y18676570D03*
Y18796570D03*
Y18916570D03*
Y19036570D03*
Y19156570D03*
Y19276570D03*
Y19396570D03*
Y19516570D03*
Y19636570D03*
Y19756570D03*
Y19876570D03*
Y19996570D03*
Y20116570D03*
Y20236570D03*
X24930310Y20664530D03*
X24892670Y20467380D03*
X24977520Y20382520D03*
X25135000Y20963360D03*
X24862500Y20810000D03*
X24855000Y21497500D03*
X24955000Y21500000D03*
X24855000Y21207500D03*
X24935000Y21212500D03*
X25117270Y21512120D03*
X25054500Y21322940D03*
X25096520Y21232200D03*
X25077540Y21134010D03*
X25135000Y21151360D03*
X24947500Y21130000D03*
X24894810Y21655280D03*
X24994770Y21657780D03*
X25079540Y21604730D03*
X25224690Y23470000D03*
X25247130Y23567450D03*
X25120430Y23561990D03*
X25140230Y23463970D03*
X25115160Y23367160D03*
X25050270Y23291070D03*
X24858720Y23255080D03*
X24870440Y23687780D03*
X24970440Y23686430D03*
X25059760Y23641480D03*
X24887500Y25112500D03*
X24987500D03*
X25087500D03*
X25187500D03*
X25588250Y15620000D03*
X25488250D03*
X25388250D03*
X25288250D03*
X25521610Y18580110D03*
X25512730Y18480500D03*
X25450130Y18402520D03*
X25354810Y18372300D03*
X25258710Y18399960D03*
X25248110Y18775610D03*
X25285870Y18704350D03*
X25473810Y18667940D03*
X25447630Y19435020D03*
X25352310Y19404800D03*
X25471310Y19700440D03*
X25519110Y19612610D03*
X25510230Y19513000D03*
X25251610Y19884110D03*
X25511010Y20174670D03*
X25451080Y20254720D03*
X25605000Y20307500D03*
Y20470220D03*
X25449280Y20354710D03*
X25506290Y20436860D03*
X25615000Y20963360D03*
X25495000D03*
X25375000D03*
X25255000D03*
X25615000Y21151360D03*
X25495000D03*
X25375000D03*
X25255000D03*
X25649040Y21609040D03*
X25567280Y21872500D03*
X25601580Y21772570D03*
X25432280Y22242500D03*
X25511210Y22097460D03*
X25650000Y22310000D03*
X25490000Y22187500D03*
X25522500Y22310000D03*
X25637850Y22412070D03*
X25650430Y23561990D03*
X25645160Y23367160D03*
X25580270Y23291070D03*
X25488640Y23251020D03*
X25388720Y23255080D03*
X25295000Y23295000D03*
X25255000Y23372500D03*
X25309930Y23645270D03*
X25400440Y23687780D03*
X25500440Y23686430D03*
X25589760Y23641480D03*
X25287500Y25112500D03*
X25387500D03*
X25487500D03*
X25587500D03*
X25988250Y15620000D03*
X25888250D03*
X25788250D03*
X25688250D03*
X26024450Y20180680D03*
X25931030Y20145000D03*
X25834390Y20170700D03*
X25771020Y20248060D03*
X25701320Y20176350D03*
X25922500Y20307500D03*
X25954000Y20660000D03*
X25700160Y20439490D03*
X25916940Y20470130D03*
X26013100Y20442670D03*
X26075040Y20364160D03*
X25766000Y20660000D03*
X25954000Y20540000D03*
X25766000D03*
Y20900000D03*
X25954000Y20780000D03*
X25766000D03*
X25946330Y20989260D03*
X26031180Y21074120D03*
X25735000Y20963360D03*
Y21151360D03*
X25855000D03*
X26002940Y21466620D03*
X25730000Y21872500D03*
X26051030Y21684410D03*
X25966170Y21769260D03*
X25784230Y21719080D03*
X25684270Y21716340D03*
X25881320Y21854120D03*
X25833240Y21636330D03*
X25918090Y21551470D03*
X25778580Y22027800D03*
X25796470Y21938970D03*
X25682500Y22147500D03*
X25670230Y23463970D03*
X25687500Y25112500D03*
X25787500D03*
X25887500D03*
X25987500D03*
X26388250Y15620000D03*
X26288250D03*
X26188250D03*
X26088250D03*
X26210120Y20249980D03*
X26349640Y20619580D03*
X26464680Y20504540D03*
X26264780Y20534730D03*
X26379830Y20419680D03*
X26179930Y20449880D03*
X26294980Y20334830D03*
X26434490Y20704430D03*
X26079260Y20856330D03*
X26164120Y20941180D03*
X26248970Y21026030D03*
X26088500Y21300000D03*
X26276500Y21180000D03*
Y21300000D03*
Y21420000D03*
X26088500Y21180000D03*
X26220730Y21514700D03*
X26087800Y21381770D03*
X26135880Y21599560D03*
X26087500Y25112500D03*
X26187500D03*
X26287500D03*
X26387500D03*
X26888250Y15620000D03*
X26788250D03*
X26688250D03*
X26588250D03*
X26488250D03*
X26549530Y20589390D03*
X26634390Y20674240D03*
X26773900Y21043850D03*
X26519340Y20789290D03*
X26604190Y20874140D03*
X26689050Y20958990D03*
X26719240Y20759090D03*
X26804090Y20843950D03*
X26888950Y20928800D03*
X26725000Y21300000D03*
X26839010Y21822650D03*
X26740440Y21839480D03*
X26661170Y21900440D03*
X26619610Y21991390D03*
X26625390Y22091230D03*
X26636100Y22190650D03*
X26616250Y22288660D03*
X26657910Y22404650D03*
X26618690Y22496640D03*
X26627040Y22596290D03*
X26681010Y22680470D03*
X26729620Y22736380D03*
Y22616380D03*
Y22856380D03*
Y22976380D03*
Y23096380D03*
X26729830Y23191340D03*
X26650900Y23336380D03*
X26679850Y23432100D03*
X26756990Y23495730D03*
X26856470Y23505950D03*
X26687500Y23267500D03*
X26783370Y24281850D03*
X26882850Y24292070D03*
X26487500Y25112500D03*
X26587500D03*
X26687500D03*
X26787500D03*
X26887500D03*
X27288250Y15620000D03*
X27188250D03*
X27088250D03*
X26988250D03*
X26973800Y21013650D03*
X27029490Y21510040D03*
D03*
Y21390040D03*
D03*
Y21270040D03*
D03*
Y21150040D03*
D03*
Y21630040D03*
Y21750040D03*
Y21630040D03*
X27003390Y21925890D03*
X27029490Y21750040D03*
Y21870040D03*
D03*
X27027420Y22319050D03*
X27022190Y22219190D03*
X27010560Y22119860D03*
X27031050Y22021990D03*
X26957700Y22688110D03*
X27016230Y22607030D03*
X27030060Y22507990D03*
X26995970Y22413980D03*
X26917620Y22736380D03*
Y22616380D03*
Y22856380D03*
Y22976380D03*
Y23096380D03*
X26944930Y23459320D03*
X26992730Y23371490D03*
X26983850Y23271880D03*
X26921250Y23193900D03*
X27280000Y23647500D03*
X26947630Y23980020D03*
X26971310Y24245440D03*
X27019110Y24157610D03*
X27010230Y24058000D03*
X26987500Y25112500D03*
X27087500D03*
X27187500D03*
X27287500D03*
X27688250Y15620000D03*
X27588250D03*
X27488250D03*
X27388250D03*
X27387500Y25112500D03*
X27487500D03*
X27587500D03*
X27687500D03*
X28088250Y15620000D03*
X27988250D03*
X27888250D03*
X27788250D03*
X27878490Y16834440D03*
X27897380Y16932640D03*
X28083340Y16576580D03*
X27991960Y16617190D03*
X27922160Y16688800D03*
X27951350Y17016830D03*
X28032690Y17074990D03*
X28129810Y17098820D03*
X28135790Y22863930D03*
X28037420Y22881950D03*
X27949520Y22929620D03*
X27880760Y23002230D03*
X27825150Y23181900D03*
X27840870Y23280660D03*
X27886480Y23369650D03*
X27957460Y23440090D03*
X28046810Y23485000D03*
X27787500Y25112500D03*
X27887500D03*
X27987500D03*
X28087500D03*
X28488250Y15620000D03*
X28388250D03*
X28288250D03*
X28188250D03*
X28377860Y16956990D03*
X28406570Y16861200D03*
X28397710Y16761600D03*
X28352530Y16672380D03*
X28277480Y16606300D03*
X28183270Y16572770D03*
X28228840Y17084930D03*
X28315650Y17035290D03*
X28461230Y23176950D03*
X28443980Y23078450D03*
X28396990Y22990180D03*
X28324920Y22920850D03*
X28234880Y22877340D03*
X28145690Y23499950D03*
X28244320Y23483460D03*
X28332950Y23437160D03*
X28402830Y23365630D03*
X28447050Y23275940D03*
X28187500Y25112500D03*
X28287500D03*
X28387500D03*
X28487500D03*
X28943310Y15624190D03*
X28888250Y15620000D03*
X28788250D03*
X28688250D03*
X28588250D03*
X28587500Y25112500D03*
X28687500D03*
X28787500D03*
X28887500D03*
X29288250Y15620000D03*
X29188250D03*
X29088250D03*
X28988250D03*
X28987500Y25112500D03*
X29087500D03*
X29187500D03*
X29287500D03*
X29788250Y15620000D03*
X29688250D03*
X29588250D03*
X29488250D03*
X29388250D03*
X29735990Y17339430D03*
X29637620Y17357450D03*
X29549720Y17405120D03*
X29425350Y17657400D03*
X29441070Y17756160D03*
X29480960Y17477730D03*
X29486680Y17845150D03*
X29557660Y17915590D03*
X29647010Y17960500D03*
X29745890Y17975450D03*
X29387500Y25112500D03*
X29487500D03*
X29587500D03*
X29687500D03*
X29787500D03*
X30188250Y15620000D03*
X30088250D03*
X29988250D03*
X29888250D03*
X29925120Y17396350D03*
X29835080Y17352840D03*
X30047250Y17751440D03*
X30061430Y17652450D03*
X30044180Y17553950D03*
X29997190Y17465680D03*
X29844520Y17958960D03*
X29933150Y17912660D03*
X30003030Y17841130D03*
X29887500Y25112500D03*
X29987500D03*
X30087500D03*
X30187500D03*
X30515000Y15716360D03*
X30488250Y15620000D03*
X30388250D03*
X30288250D03*
X30515000Y16116360D03*
Y16016360D03*
Y15916360D03*
Y15816360D03*
Y16516360D03*
Y16416360D03*
Y16316360D03*
Y16216360D03*
Y16916360D03*
Y16816360D03*
Y16716360D03*
Y16616360D03*
Y17316360D03*
Y17216360D03*
Y17116360D03*
Y17016360D03*
Y17716360D03*
Y17616360D03*
Y17516360D03*
Y17416360D03*
Y18216360D03*
Y18116360D03*
Y18016360D03*
Y17916360D03*
Y17816360D03*
Y18616360D03*
Y18516360D03*
Y18416360D03*
Y18316360D03*
Y19016360D03*
Y18916360D03*
Y18816360D03*
Y18716360D03*
Y19416360D03*
Y19316360D03*
Y19216360D03*
Y19116360D03*
Y19816360D03*
Y19716360D03*
Y19616360D03*
Y19516360D03*
Y20216360D03*
Y20116360D03*
Y20016360D03*
Y19916360D03*
Y20616360D03*
Y20516360D03*
Y20416360D03*
Y20316360D03*
Y21016360D03*
Y20916360D03*
Y20816360D03*
Y20716360D03*
Y21516360D03*
Y21416360D03*
Y21316360D03*
Y21216360D03*
Y21116360D03*
Y21916360D03*
Y21816360D03*
Y21716360D03*
Y21616360D03*
Y22316360D03*
Y22216360D03*
Y22116360D03*
Y22016360D03*
Y22716360D03*
Y22616360D03*
Y22516360D03*
Y22416360D03*
Y23116360D03*
Y23016360D03*
Y22916360D03*
Y22816360D03*
Y23516360D03*
Y23416360D03*
Y23316360D03*
Y23216360D03*
Y23916360D03*
Y23816360D03*
Y23716360D03*
Y23616360D03*
Y24416360D03*
Y24316360D03*
Y24216360D03*
Y24116360D03*
Y24016360D03*
Y24816360D03*
Y24716360D03*
Y24616360D03*
Y24516360D03*
X30287500Y25112500D03*
X30387500D03*
X30487500D03*
X30515000Y25016360D03*
Y24916360D03*
G54D20*
X23130000Y22335040D03*
Y22395040D03*
X23099330Y22890000D03*
Y22950000D03*
G54D11*
X22320000Y19258000D03*
G54D30*
X24090310Y20920880D03*
G54D21*
X23114500Y22650000D03*
X23270000Y21702500D03*
X23351000D03*
X23195500Y22650000D03*
G54D12*
X22320000Y19163000D03*
X22255000D03*
X22254500Y19353000D03*
X22320000D03*
X22385000Y19163000D03*
Y19353000D03*
G54D22*
X23552770Y18767500D03*
X23563280Y19077730D03*
X23554670Y19329800D03*
X23677230Y18767500D03*
X23687740Y19077730D03*
X23679130Y19329800D03*
G54D40*
X25194470Y19735040D03*
X25350030D03*
G54D13*
X22255000Y25102500D03*
X22585000D03*
G54D31*
X24287500Y15635000D03*
G54D23*
X23577160Y19575650D03*
X23681300D03*
X25352070Y18932500D03*
X25247930D03*
X26844000Y21150040D03*
X26948140D03*
G54D50*
X26462560Y24813220D03*
X27222560D03*
G54D32*
X24287500Y15701040D03*
G54D41*
X25156610Y20069130D03*
Y20307890D03*
X25346610Y20069130D03*
X25251610Y20307890D03*
X25346610D03*
G54D14*
X22532500Y19350000D03*
X23410000Y20530000D03*
X23687700Y18925250D03*
X23944960Y20442500D03*
X23625000Y21355000D03*
X24404460Y16545000D03*
X24092500Y21315000D03*
X24238720Y21295550D03*
X24800000Y20870000D03*
X24657500Y21275000D03*
X24482500Y21295000D03*
Y21667500D03*
X24860000Y20965000D03*
X25352500Y18545000D03*
X25350000Y19577500D03*
X25605000Y22242500D03*
X26823620Y23336380D03*
X26850000Y24122500D03*
X28943310Y24388400D03*
G54D60*
G01X23552770Y18767500D02*
X22650500D01*
X22289820Y19128180D01*
X22277320D01*
X22255000Y19150500D01*
Y19163000D01*
G01X23563280Y19077730D02*
X23518820D01*
X23499050Y19097500D01*
X22410000D01*
X22405000Y19092500D01*
X22378000D01*
X22320000Y19150500D01*
Y19163000D01*
G01Y19353000D02*
Y19429800D01*
X22332700Y19442500D01*
X22617500D01*
X22677500Y19382500D01*
Y19215000D01*
X22704100Y19188400D01*
X23298400D01*
X23372500Y19262500D01*
Y19550000D01*
X23374600Y19552100D01*
Y19628030D01*
X23629470Y19882900D01*
X23705400D01*
X23707100Y19884600D01*
Y20740530D01*
X23786970Y20820400D01*
Y20831600D01*
X23801250Y20845880D01*
X23850310D01*
G01X22254500Y19353000D02*
Y19438000D01*
G01Y19353000D02*
Y19323500D01*
X22320000Y19258000D01*
G01X22385000Y19163000D02*
X23521080D01*
X23554670Y19196590D01*
Y19329800D01*
G01X22924600Y21700000D02*
X22762500D01*
X22695000Y21767500D01*
Y21855000D01*
G01Y21955000D02*
Y22132500D01*
G01X22646560Y25102500D02*
X22649060Y25100000D01*
G01X23280310Y20817040D02*
X23127960D01*
G01X22836180Y21051870D02*
X22972840D01*
X23005570Y21019140D01*
X23280310D01*
G01X22836180Y20801870D02*
X22950240D01*
X23016070Y20736040D01*
X23280310D01*
G01X23850310Y21045880D02*
X23600050D01*
X23418030Y21227900D01*
X23283900D01*
X23115800Y21396000D01*
Y21399000D01*
G01X22924600Y21700000D02*
Y21660940D01*
X22922500Y21658840D01*
Y21482500D01*
X23202500Y21202500D01*
X23407500D01*
X23614120Y20995880D01*
X23850310D01*
G01X23280310Y21100140D02*
X23132640D01*
X23127500Y21095000D01*
G01X22980800Y21700000D02*
Y21537000D01*
X23115800Y21402000D01*
Y21399000D01*
G01X22952700Y21933000D02*
Y21767160D01*
X22980800Y21739060D01*
Y21700000D01*
G01X23130000Y22335040D02*
Y22190790D01*
G01D02*
X22953210Y22014000D01*
X22952700D01*
G01X23261810Y22052000D02*
X23258310D01*
X23199830Y22110480D01*
Y22120960D01*
X23130000Y22190790D01*
G01X23099330Y22890000D02*
Y22855940D01*
X23113830Y22841440D01*
Y22749920D01*
X23114500Y22749250D01*
Y22650000D01*
G01D02*
Y22557110D01*
X23130000Y22541610D01*
Y22395040D01*
G01X23915310Y20680880D02*
X23884250D01*
X23883370Y20680000D01*
X23827500D01*
X23783300Y20635800D01*
Y19816700D01*
X23797500Y19802500D01*
Y18677500D01*
X23737500Y18617500D01*
X23605000D01*
X23552770Y18669730D01*
Y18767500D01*
G01X23563280Y19077730D02*
Y19145780D01*
X23612500Y19195000D01*
G01X23554670Y19329800D02*
X23510210D01*
X23412700Y19427310D01*
Y19437500D01*
X23400000Y19450200D01*
Y19617500D01*
X23640000Y19857500D01*
X23719800D01*
X23732500Y19870200D01*
Y20730000D01*
X23797500Y20795000D01*
X23800370D01*
X23801250Y20795880D01*
X23850310D01*
G01X23612500Y19462500D02*
X23438500D01*
X23425400Y19475600D01*
Y19606970D01*
X23650530Y19832100D01*
X23730330D01*
X23757900Y19859670D01*
Y20719470D01*
X23784310Y20745880D01*
X23850310D01*
G01X23205000Y20075000D02*
Y20209720D01*
G01D02*
X23249060D01*
X23271280Y20187500D01*
X23409310D01*
G01X23280310Y21019140D02*
X23554930D01*
X23628190Y20945880D01*
X23850310D01*
G01X23280310Y20736040D02*
X23390470D01*
X23550310Y20895880D01*
X23850310D01*
G01X23401000Y20710640D02*
X23398140D01*
G01X23850310Y21095880D02*
X23585980D01*
X23428560Y21253300D01*
X23344900D01*
X23202200Y21396000D01*
Y21399000D01*
G01D02*
Y21634190D01*
X23270000Y21701990D01*
Y21702500D01*
G01X23626200Y21702300D02*
X23399750D01*
X23399550Y21702500D01*
X23351000D01*
G01X23270000D02*
Y21822750D01*
X23261810Y21830940D01*
Y21895000D01*
G01X23195500Y22650000D02*
X23200220D01*
X23200580Y22649640D01*
X23359640D01*
G01X23965310Y20680880D02*
Y20662880D01*
X23909930Y20607500D01*
X23862500D01*
X23812500Y20557500D01*
Y19907700D01*
X23825200Y19895000D01*
X23875000D01*
X24017500Y19752500D01*
Y16084630D01*
X24193690Y15908440D01*
X24197500D01*
G01X23577160Y19575650D02*
Y19645600D01*
X23582500Y19650940D01*
Y19695000D01*
G01X23947500Y20020000D02*
X23944500D01*
G01X23947500D02*
Y19905000D01*
G01X23850310Y20995880D02*
X23853360D01*
X23854240Y20995000D01*
X23850000D01*
G01X23965310Y21160880D02*
Y21280880D01*
X23965000Y21281190D01*
Y21355000D01*
X24042500Y21432500D01*
X25148250D01*
X25314810Y21599060D01*
Y21609040D01*
G01X23880570Y21700580D02*
X23881530Y21701540D01*
X24076520D01*
X24115000Y21663060D01*
Y21657780D01*
G01X23626200Y21702300D02*
X23627920Y21700580D01*
X23880570D01*
G01X24287500Y15635000D02*
X24185000Y15532500D01*
X24090000D01*
X24035000Y15587500D01*
Y15732500D01*
X24128740Y15826240D01*
G01X24197500D02*
X24128740D01*
G01X24412500Y16247500D02*
Y15989170D01*
X24377500Y15954170D01*
Y15908440D01*
G01X24287500D02*
Y15954170D01*
X24282500Y15959170D01*
Y16515000D01*
X24890000Y17122500D01*
Y20317500D01*
X24737500Y20470000D01*
X24352810D01*
X24215310Y20607500D01*
Y20680880D01*
G01X24377500Y15826240D02*
X24427040D01*
X24428280Y15825000D01*
X24477500D01*
X24520000Y15867500D01*
Y16716570D01*
X24920000Y17116570D01*
Y20325000D01*
X24747500Y20497500D01*
X24372810D01*
X24265310Y20605000D01*
Y20680880D01*
G01X24128740Y15826240D02*
X24018740D01*
G01X24395310Y19433980D02*
X24218520D01*
X24065310Y19587190D01*
Y20680880D01*
G01X24296210Y19735040D02*
Y20241930D01*
X24115310Y20422830D01*
Y20680880D01*
G01X24550210Y19735040D02*
Y19834340D01*
X24550780Y19834910D01*
Y20023290D01*
X24165310Y20408760D01*
Y20680880D01*
G01X24330310Y20745880D02*
X24940470D01*
X24949350Y20754760D01*
X25008410D01*
G01X24658300Y21018500D02*
X24659670Y21017130D01*
Y20976670D01*
X24528880Y20845880D01*
X24330310D01*
G01Y20895880D02*
X24436380D01*
X24436570Y20896070D01*
X24489300D01*
G01X24330310Y20895880D02*
X24115310D01*
X24090310Y20920880D01*
G01X24935000Y21212500D02*
X24819600Y21097100D01*
X24637100D01*
X24485880Y20945880D01*
X24330310D01*
G01Y20995880D02*
X24496240D01*
X24622860Y21122500D01*
X24770000D01*
X24855000Y21207500D01*
G01X24777950Y21207950D02*
X24717900Y21147900D01*
X24612330D01*
X24510310Y21045880D01*
X24330310D01*
G01Y21095880D02*
X24428380D01*
G01X24265310Y21160880D02*
Y21142880D01*
X24312310Y21095880D01*
X24330310D01*
G01X24015310Y21160880D02*
X24015000Y21161190D01*
Y21345000D01*
X24027500Y21357500D01*
Y21367500D01*
X24065000Y21405000D01*
X25227290D01*
X25241250Y21391040D01*
Y21318640D01*
X25252400Y21307490D01*
X25377220D01*
X25388370Y21318640D01*
Y21391040D01*
X25482810D01*
G01X24015310Y21209940D02*
Y21160880D01*
G01X24215310D02*
X24265310D01*
G01X24215310D02*
X24165310D01*
G01X24350000Y21702500D02*
Y21885000D01*
G01X24115000Y21657780D02*
X24159720Y21702500D01*
X24350000D01*
G01X24395310Y19329840D02*
Y19062650D01*
X24395000Y19062340D01*
G01X24640640Y21630040D02*
Y21572880D01*
X24640000Y21572240D01*
Y21500000D01*
G01X24557500Y21507500D02*
Y21761540D01*
X24580940Y21784980D01*
X24640640D01*
G01X24917500Y23470000D02*
Y22262500D01*
X24640640Y21985640D01*
Y21784980D01*
G01X24747500Y21500000D02*
Y21544060D01*
X24750000Y21546560D01*
Y22059070D01*
X25241330Y22550400D01*
Y22645040D01*
G01X24855000Y21497500D02*
X24803350Y21549150D01*
Y22076490D01*
X25091900Y22365040D01*
X25241330D01*
G01X25194470Y19735040D02*
X25166520Y19707090D01*
Y19387540D01*
G01X25156610Y20069130D02*
Y19831970D01*
X25194470Y19794110D01*
Y19735040D01*
G01X25156610Y20307890D02*
Y20392990D01*
X25160000Y20396380D01*
Y20455000D01*
X25205000Y20500000D01*
X25292500D01*
X25346610Y20445890D01*
Y20307890D01*
G01X25140000Y21062360D02*
X25135000Y21057360D01*
G01X24955000Y21500000D02*
X24828750Y21626250D01*
Y21985900D01*
X24872500Y22029650D01*
X25049390D01*
G01X25247930Y18932500D02*
X25248110Y18932320D01*
Y18775610D01*
G01X25247930Y18932500D02*
Y18981860D01*
X25336700Y19070630D01*
Y19387540D01*
G01X25251610Y20307890D02*
Y19884110D01*
G01X25605000Y20307500D02*
X25391460D01*
X25391070Y20307890D01*
X25346610D01*
G01X25314810Y21391040D02*
Y21401020D01*
X25382800Y21469010D01*
Y21509030D01*
X25404840Y21531070D01*
X25414820D01*
X25482810Y21599060D01*
Y21609040D01*
G01D02*
X25649040D01*
G01X25333870Y22029650D02*
X25664930D01*
X25930310Y22295030D01*
Y22300040D01*
G01X25351890Y22365040D02*
X25800320D01*
X25860310Y22425030D01*
Y22430040D01*
G01X25351890Y22645040D02*
X25720320D01*
X25930310Y22435050D01*
Y22430040D01*
G01X25922500Y20307500D02*
X26152600D01*
X26948140Y21103040D01*
Y21150040D01*
G01X26823620Y22279650D02*
X26734720D01*
X26734370Y22280000D01*
X26647500D01*
X26547500Y22180000D01*
Y21975000D01*
X26844000Y21678500D01*
Y21150040D01*
G01X26948140D02*
Y21905130D01*
X26823620Y22029650D01*
G01X26712560Y24545720D02*
Y23905560D01*
X26686460Y23879460D01*
Y23837540D01*
G01Y23742540D02*
X26865780D01*
X26891420Y23716900D01*
Y23683880D01*
X26927760Y23647540D01*
X26960780D01*
G01X27280000Y23647500D02*
X27285000Y23652500D01*
Y24020000D01*
X26953620Y24351380D01*
Y24440410D01*
X26972560Y24459350D01*
Y24545720D01*
G01X26960780Y23647540D02*
X27279960D01*
X27280000Y23647500D01*
G01X28943310Y16450900D02*
Y15624190D01*
G54D24*
X23409310Y20187500D03*
Y20342500D03*
X23947500Y20020000D03*
Y20175000D03*
X23880570Y21545580D03*
X23626200Y21702300D03*
Y21547300D03*
X23880570Y21700580D03*
X24350000Y21702500D03*
Y21547500D03*
G54D33*
X24197500Y15908440D03*
Y15826240D03*
X24377500Y15908440D03*
X24287500D03*
X24377500Y15826240D03*
G54D42*
X25008410Y20754760D03*
Y20920320D03*
G54D51*
X26823620Y22279650D03*
Y22029650D03*
Y22529650D03*
G54D15*
X22695000Y21855000D03*
Y21955000D03*
G54D61*
G01X22381960Y19353000D02*
X22385000D01*
G01D02*
X22529500D01*
X22532500Y19350000D01*
G01X23409310Y20342500D02*
Y20462610D01*
X23410000Y20463300D01*
Y20530000D01*
G01X23409310Y20342500D02*
X23328610D01*
X23321550Y20335440D01*
X23276860D01*
X23261700Y20320280D01*
X23205000D01*
G01X23687700Y18925250D02*
X23677230Y18914780D01*
Y18767500D01*
G01X23687700Y18925250D02*
Y18991950D01*
X23687740Y18991990D01*
Y19077730D01*
G01D02*
X23679130Y19086340D01*
Y19329800D01*
G01D02*
Y19573480D01*
X23681300Y19575650D01*
G01X23688920D02*
X23681300D01*
G01X23944960Y20442500D02*
Y20255240D01*
X23947500Y20252700D01*
Y20175000D01*
G01X23944960Y20442500D02*
Y20520200D01*
X24015000Y20590240D01*
Y20618870D01*
X24015310Y20619180D01*
Y20680880D01*
G01X23880570Y21545580D02*
Y21435620D01*
X23915310Y21400880D01*
Y21160880D01*
G01X23626200Y21547300D02*
Y21356200D01*
X23625000Y21355000D01*
G01X23880570Y21545580D02*
X23878850Y21547300D01*
G01D02*
X24058220D01*
X24058300Y21547220D01*
X24115000D01*
G01X23878850Y21547300D02*
X23626200D01*
G01X24404460Y16545000D02*
Y16397050D01*
X24408450Y16393060D01*
X24412500D01*
G01X24330310Y20795880D02*
X24630310D01*
X24638690Y20787500D01*
X24717500D01*
G01X24065310Y21160880D02*
Y21287810D01*
X24092500Y21315000D01*
G01X24238720Y21295550D02*
X24239270Y21295000D01*
X24482500D01*
G01Y21667500D02*
Y21625940D01*
X24404060Y21547500D01*
X24350000D01*
G01X24717500Y20787500D02*
Y20950000D01*
X24824860Y21057360D01*
X25135000D01*
G01X24717500Y20787500D02*
X24800000Y20870000D01*
G01X24860000Y20965000D02*
X24900100Y20924900D01*
X24932130D01*
X24936710Y20920320D01*
X25008410D01*
G01X25135000Y21057360D02*
X25860000D01*
G01X25352500Y18545000D02*
Y18872430D01*
X25352070Y18872860D01*
Y18932500D01*
G01X25346610Y20069130D02*
X25350030Y20065710D01*
Y19735040D01*
G01D02*
Y19577530D01*
X25350000Y19577500D01*
G01X25346610Y20069130D02*
X25403710D01*
X25404580Y20070000D01*
X25510000D01*
X25860000Y20420000D01*
Y20907500D01*
G01X25605000Y22242500D02*
X25807780D01*
X25860310Y22295030D01*
Y22300040D01*
G01X25730000Y21872500D02*
X26182500Y21420000D01*
Y21092500D01*
X25997500Y20907500D01*
X25860000D01*
G01X26823620Y23336380D02*
Y22529650D01*
G01X26960780Y23837540D02*
X26850000Y23948320D01*
Y24122500D01*
G54D16*
X22836180Y21051870D03*
Y20801870D03*
G54D43*
X25049390Y22029650D03*
X25333870D03*
G54D25*
X23205000Y20209720D03*
Y20320280D03*
X24115000Y21547220D03*
Y21657780D03*
G54D52*
X26686460Y23647540D03*
Y23742540D03*
Y23837540D03*
X26960780D03*
Y23647540D03*
G54D34*
X24412500Y16393060D03*
Y16247500D03*
G54D17*
X23115800Y21399000D03*
X23202200D03*
G54D35*
X24395310Y19433980D03*
Y19329840D03*
G54D26*
X23280310Y21019140D03*
Y21100140D03*
Y20736040D03*
Y20817040D03*
G54D53*
X26842560Y24545720D03*
X26777560D03*
X26712560D03*
X26972560D03*
X26907560D03*
G54D44*
X25241330Y22365040D03*
Y22645040D03*
X25351890Y22365040D03*
Y22645040D03*
G54D18*
X22952700Y21933000D03*
Y22014000D03*
G54D54*
X26722560Y24813220D03*
X26962560D03*
G54D36*
X24296210Y19735040D03*
G54D45*
X24917500Y23470000D03*
X25447500D03*
G54D27*
X23261810Y21895000D03*
Y22052000D03*
G54D28*
X23915310Y20680880D03*
X23965310D03*
Y21160880D03*
X23915310D03*
X24015310Y20680880D03*
X24065310D03*
X24115310D03*
X24165310D03*
X24215310D03*
X24265310D03*
Y21160880D03*
X24215310D03*
X24165310D03*
X24115310D03*
X24065310D03*
X24015310D03*
G54D55*
X28143210Y16834440D03*
G54D37*
X24550210Y19735040D03*
G54D19*
X22924600Y21700000D03*
X22980800D03*
G54D46*
X25314810Y21391040D03*
X25482810D03*
X25314810Y21609040D03*
X25482810D03*
G54D29*
X23850310Y21045880D03*
Y20995880D03*
Y20945880D03*
Y20895880D03*
Y20845880D03*
Y20795880D03*
Y20745880D03*
Y21095880D03*
X24330310Y20745880D03*
Y20795880D03*
Y20845880D03*
Y20895880D03*
Y20945880D03*
Y20995880D03*
Y21045880D03*
Y21095880D03*
G54D38*
X24640640Y21630040D03*
Y21784980D03*
G54D56*
X28143210Y23181900D03*
X29743410Y17657400D03*
G54D47*
X25860000Y20907500D03*
Y21057360D03*
G54D57*
X28943310Y16450900D03*
Y24388400D03*
G54D39*
X25166520Y19387540D03*
X25336700D03*
G54D48*
X25930310Y22300040D03*
X25860310D03*
Y22430040D03*
X25930310D03*
G54D58*
G01X24238720Y21295550D02*
X24183170Y21240000D01*
X24134820D01*
X24115310Y21220490D01*
Y21160880D01*
G54D49*
X26532560Y24558220D03*
X27152560D03*
G54D59*
G01X22585000Y25102500D02*
X22646560D01*
G01X22649060Y25100000D02*
X22957500D01*
X23098750Y24958750D01*
Y22998690D01*
X23099330Y22998110D01*
Y22950000D01*
M02*
