G04 ================== begin FILE IDENTIFICATION RECORD ==================*
G04 Layout Name:  echolight2.brd*
G04 Film Name:    SMTP*
G04 File Format:  Gerber RS274X*
G04 File Origin:  Cadence Allegro 25.1-P001*
G04 Origin Date:  Sat Feb  7 21:46:11 2026*
G04 *
G04 Layer:  PACKAGE GEOMETRY/SOLDERMASK_TOP*
G04 Layer:  BOARD GEOMETRY/SOLDERMASK_TOP*
G04 Layer:  VIA CLASS/SOLDERMASK_TOP*
G04 Layer:  PIN/SOLDERMASK_TOP*
G04 *
G04 Offset:    (0.0000 0.0000)*
G04 Mirror:    No*
G04 Mode:      Positive*
G04 Rotation:  0*
G04 FullContactRelief:  No*
G04 UndefLineWidth:     0.1000*
G04 ================== end FILE IDENTIFICATION RECORD ====================*
%FSLAX25Y25*MOMM*%
%IR0*IPPOS*OFA0.00000B0.00000*MIA0B0*SFA1.00000B1.00000*%
%ADD39R,.4999X.6556*%
%AMMACRO25*
4,1,40,.1908,-.395,
-.1908,-.395,
-.227142,-.391805,
-.262376,-.382347,
-.295433,-.366915,
-.325308,-.345976,
-.351094,-.320169,
-.372006,-.290275,
-.387409,-.257205,
-.396836,-.221962,
-.4,-.1857,
-.4,.1857,
-.396822,.222043,
-.387381,.257282,
-.371965,.290347,
-.351041,.320232,
-.325245,.34603,
-.295362,.366956,
-.262299,.382375,
-.22706,.391819,
-.1908,.395,
.1908,.395,
.227142,.391805,
.262376,.382347,
.295433,.366915,
.325308,.345976,
.351094,.320169,
.372006,.290275,
.387409,.257205,
.396836,.221962,
.4,.1857,
.4,-.1857,
.396822,-.222043,
.387381,-.257282,
.371965,-.290347,
.351041,-.320232,
.325245,-.34603,
.295362,-.366956,
.262299,-.382375,
.22706,-.391819,
.1908,-.395,
0.0*
%
%ADD25MACRO25*%
%ADD43R,.5X1.45*%
%ADD17C,.4*%
%ADD45R,.65X1.47*%
%ADD15R,.9X1.76*%
%ADD22R,1.0056X.95*%
%ADD37R,1.1176X.4572*%
%ADD14R,1.4516X.7516*%
%ADD42R,2.X2.*%
%AMMACRO33*
4,1,40,.395,.1908,
.395,-.1908,
.391805,-.227142,
.382347,-.262376,
.366915,-.295433,
.345976,-.325308,
.320169,-.351094,
.290275,-.372006,
.257205,-.387409,
.221962,-.396836,
.1857,-.4,
-.1857,-.4,
-.222043,-.396822,
-.257282,-.387381,
-.290347,-.371965,
-.320232,-.351041,
-.34603,-.325245,
-.366956,-.295362,
-.382375,-.262299,
-.391819,-.22706,
-.395,-.1908,
-.395,.1908,
-.391805,.227142,
-.382347,.262376,
-.366915,.295433,
-.345976,.325308,
-.320169,.351094,
-.290275,.372006,
-.257205,.387409,
-.221962,.396836,
-.1857,.4,
.1857,.4,
.222043,.396822,
.257282,.387381,
.290347,.371965,
.320232,.351041,
.34603,.325245,
.366956,.295362,
.382375,.262299,
.391819,.22706,
.395,.1908,
0.0*
%
%ADD33MACRO33*%
%ADD34R,1.3X2.1*%
%ADD11R,.2X.2*%
%ADD36R,2.2X1.7*%
%ADD35R,1.9X2.*%
%ADD50R,1.25X1.5*%
%ADD19R,.4X.4*%
%ADD10C,1.*%
%ADD38R,.6X.5*%
%ADD40R,.6X.6*%
%ADD27R,.7X.7*%
%ADD20C,1.6*%
%ADD21C,1.7*%
%ADD23C,1.8*%
%ADD51C,3.7*%
%ADD41R,.8X.75*%
%ADD16R,.633X.7*%
%ADD52R,6.7X7.6*%
%ADD49R,.75X.8*%
%ADD31O,.7015X.3416*%
%ADD28R,1.7526X1.016*%
%ADD13O,.3515X.6015*%
%ADD32O,.3416X.7015*%
%ADD24R,1.8X1.8*%
%ADD47R,1.016X1.1938*%
%ADD48R,1.1199X1.1801*%
%ADD29R,.8X.6556*%
%ADD46R,.7556X.8001*%
%ADD53C,2.3876*%
%ADD26R,.762X.8128*%
%ADD30R,3.5517X3.5517*%
%ADD12R,.5588X.7112*%
%ADD44R,.7112X.5588*%
%ADD18R,.5588X.508*%
%ADD54C,1.1244*%
G75*
%LPD*%
G75*
G36*
G01X22305360Y20157820D02*
G02X22477870I86255J0D01*
G02X22305360I-86255J0D01*
G37*
G36*
G01X22699770Y25066790D02*
X22618110D01*
Y25024910D01*
X22529120D01*
Y25197890D01*
X22618110D01*
Y25154870D01*
X22699770D01*
Y25066790D01*
G37*
%LPC*%
G75*
G54D54*
X22391550Y20157700D03*
%LPD*%
G75*
G54D10*
X22279020Y16062620D03*
Y16462620D03*
Y16262620D03*
Y16862620D03*
Y16662620D03*
Y17262620D03*
Y17062620D03*
Y17662620D03*
Y17462620D03*
Y18062620D03*
Y17862620D03*
Y18462620D03*
Y18262620D03*
Y18862620D03*
Y18662620D03*
Y19462620D03*
Y19262620D03*
Y19062620D03*
X22354750Y19946800D03*
X22342520Y20391920D03*
Y20991920D03*
Y20791920D03*
Y21191920D03*
X22266450Y21439170D03*
Y21783720D03*
X22279020Y22356810D03*
X22271550Y22213190D03*
X22279020Y22756810D03*
Y22556810D03*
Y23156810D03*
Y22956810D03*
Y23556810D03*
Y23356810D03*
Y23956810D03*
Y23756810D03*
Y24356810D03*
Y24156810D03*
X22704320Y16131750D03*
X22434120Y15936350D03*
X22634120D03*
X22699160Y16507180D03*
X22632780Y16318520D03*
X22655840Y18741960D03*
X22685630Y18939730D03*
X22712640Y19137890D03*
Y19337890D03*
X22507360Y19817520D03*
X22707360D03*
X22666420Y19532480D03*
X22466420D03*
X22498440Y20266670D03*
X22616240Y20394010D03*
X22521410Y21281370D03*
X22669790Y21438650D03*
X22463770Y21438660D03*
X22655300Y21984360D03*
X22512780Y22132670D03*
X22602470Y24514310D03*
X22402470Y24514170D03*
X22834120Y15936350D03*
X23034120D03*
X23159810Y16881580D03*
X23018390Y16740160D03*
X22876970Y16598740D03*
X22998490Y18668250D03*
X22806900Y18610880D03*
X22997680Y19053060D03*
X23052660Y18860770D03*
X22997680Y19453060D03*
Y19253060D03*
X22903760Y19855310D03*
X23084690Y19633140D03*
X22825000Y19675000D03*
X22850120Y20664970D03*
X22858590Y20465150D03*
X23029240Y20360850D03*
X23210930Y20444440D03*
X23178570Y21026700D03*
X22829190Y20907000D03*
X22890000Y21322500D03*
X22875000Y21439110D03*
X23074000Y23010840D03*
Y23410840D03*
Y23210840D03*
Y24010840D03*
Y23810840D03*
Y23610840D03*
Y24410840D03*
Y24210840D03*
X22878940Y24699260D03*
X22802470Y24514460D03*
X23080000Y24755000D03*
X23074000Y24610840D03*
X22825000Y24825000D03*
X23004160Y24858000D03*
X23234120Y15936350D03*
X23434120D03*
X23470900Y17128900D03*
X23301230Y17023000D03*
X23349070Y18641390D03*
X23467360Y18661560D03*
X23250000Y18707500D03*
X23544930Y18753120D03*
X23545400Y18873120D03*
X23468540Y18965280D03*
X23205320Y18813760D03*
X23415070Y19840110D03*
X23226120Y19774570D03*
X23535180Y20311730D03*
X23401320Y20125150D03*
X23242750Y20641890D03*
X23532700Y20301590D03*
X23254230Y20841560D03*
X23547500Y20995000D03*
X23485000Y21732500D03*
X23529000Y23010840D03*
Y23410840D03*
Y23210840D03*
Y24010840D03*
Y23810840D03*
Y23610840D03*
Y24410840D03*
Y24210840D03*
Y24810840D03*
Y24610840D03*
X23478940Y25122470D03*
X23316000Y25169840D03*
X23485000Y24975000D03*
X23634120Y15936350D03*
X23834120D03*
X23870900Y17128900D03*
X23670900D03*
X23815070Y19840110D03*
X23801320Y20125150D03*
X23673100Y20406820D03*
X23800000Y20625000D03*
X23650000Y21020000D03*
Y21525000D03*
X23643420Y21636790D03*
X23930000Y21597500D03*
X23935250Y22217250D03*
X23878940Y25122470D03*
X23678940D03*
X24028130Y16065650D03*
X24034120Y15936350D03*
X24360000Y16527500D03*
X24210000Y16450000D03*
X24169550Y16207070D03*
X24365020Y16758920D03*
X24043700Y16986380D03*
X24084980Y17351300D03*
X24069570Y17151890D03*
X24309460Y17754170D03*
X24208500Y17581520D03*
X24375000Y17600000D03*
X24420000Y19695000D03*
X24200440Y20143800D03*
X24154750Y19982630D03*
X24100000Y20625000D03*
X24250000Y21350000D03*
X24210000Y21617500D03*
X24278940Y25122470D03*
X24078940D03*
X24585000Y16465000D03*
X24734710Y16493130D03*
X24770000Y17415000D03*
X24487500Y17732500D03*
X24597500Y17427500D03*
X24835700Y17810600D03*
X24606410Y19292520D03*
X24772290Y19315920D03*
X24629690Y19491160D03*
X24581880Y19685360D03*
X24702500Y19977500D03*
X24703570Y20352020D03*
X24650000Y20975000D03*
X24550000Y20925000D03*
X24473330Y20798330D03*
X24539840Y21301210D03*
X24650000Y21175000D03*
X24678940Y25122470D03*
X24478940D03*
X25234120Y15936350D03*
X25169550Y16208090D03*
X25134710Y16493130D03*
X24934710D03*
X24915130Y17081380D03*
X24848730Y18845730D03*
X24927500Y19315000D03*
X25000000Y19175000D03*
X25163270Y19748070D03*
X25015990Y19827880D03*
X25018470Y19572400D03*
X25177500Y19960000D03*
X25150000Y20575000D03*
X25018650Y21237100D03*
X25078940Y25122470D03*
X24878940D03*
X25434120Y15936350D03*
X25634120D03*
X25369550Y16208090D03*
X25569550D03*
X25534710Y16493130D03*
X25334710D03*
X25669760Y23060580D03*
X25570780Y23524480D03*
X25506780Y23335000D03*
X25478940Y25122470D03*
X25278940D03*
X25834120Y15936350D03*
X26034120D03*
X25769550Y16208090D03*
X25969550D03*
X25934710Y16493130D03*
X25734710D03*
X25866770Y23026110D03*
X26044330Y23118140D03*
X26088000Y23494590D03*
X25936220Y23624820D03*
X25736550Y23636370D03*
X26078940Y25122470D03*
X25878940D03*
X25678940D03*
X26362500Y16147500D03*
X26234120Y15936350D03*
X26434120D03*
X26169550Y16208090D03*
X26134710Y16493130D03*
X26129740Y23298990D03*
X26478940Y25122470D03*
X26278940D03*
X26634120Y15936350D03*
X26834120D03*
X26613970Y16606250D03*
X26612500Y24505000D03*
X26878940Y25122470D03*
X26678940D03*
X27034120Y15936350D03*
X27234120D03*
X27269760Y17540580D03*
X27106780Y17815000D03*
X27336550Y18116370D03*
X27170780Y18004480D03*
X27239830Y24344480D03*
X27162080Y24160210D03*
X27278940Y25122470D03*
X27078940D03*
X27434120Y15936350D03*
X27634120D03*
X27466770Y17506110D03*
X27644330Y17598140D03*
X27729740Y17778990D03*
X27688000Y17974590D03*
X27536220Y18104820D03*
X27398950Y23903800D03*
X27588790Y23966730D03*
X27676160Y24146640D03*
X27608240Y24334750D03*
X27426090Y24417340D03*
X27678940Y25122470D03*
X27478940D03*
X27834120Y15936350D03*
X27903390Y16123970D03*
Y16323970D03*
Y16523970D03*
Y16723970D03*
Y16923970D03*
Y17123970D03*
Y17323970D03*
Y17523970D03*
Y17723970D03*
Y17923970D03*
Y18123970D03*
Y18323970D03*
Y18523970D03*
Y18723970D03*
Y18923970D03*
Y19123970D03*
Y19323970D03*
Y19523970D03*
Y19723970D03*
Y19923970D03*
Y20123970D03*
Y20323970D03*
Y20523970D03*
Y20723970D03*
Y20923970D03*
Y21123970D03*
Y21323970D03*
Y21523970D03*
Y21723970D03*
Y21923970D03*
Y22123970D03*
Y22323970D03*
Y22523970D03*
Y22723970D03*
Y22923970D03*
Y23123970D03*
Y23323970D03*
Y23523970D03*
Y23723970D03*
Y23923970D03*
Y24123970D03*
Y24323970D03*
Y24523970D03*
Y24723970D03*
Y24923970D03*
X27878940Y25122470D03*
G54D20*
X23087500Y16352500D03*
X22837500D03*
X23337500D03*
G54D11*
X22321270Y20159570D03*
G54D12*
X22265000Y21557390D03*
Y21661530D03*
X23403220Y20921260D03*
Y21025400D03*
G54D30*
X24142490Y20973330D03*
G54D21*
X22835000Y18817780D03*
X23365000D03*
G54D13*
X22272000Y21942670D03*
X22271500Y22132670D03*
X22402000D03*
Y21942670D03*
X22337000D03*
Y22132670D03*
G54D31*
X23902490Y21048330D03*
Y20948330D03*
Y20898330D03*
Y20798330D03*
Y20848330D03*
Y20998330D03*
Y21098330D03*
Y21148330D03*
X24382490Y21048330D03*
Y20948330D03*
Y20998330D03*
Y20898330D03*
Y20848330D03*
Y20798330D03*
Y21098330D03*
Y21148330D03*
G54D40*
X24369990Y22048200D03*
Y22138200D03*
G54D22*
X23118030Y20035550D03*
X22972470D03*
G54D32*
X23967490Y20733330D03*
Y21213330D03*
X24017490Y20733330D03*
X24067490D03*
X24217490D03*
X24167490D03*
X24117490D03*
X24317490D03*
X24267490D03*
X24117490Y21213330D03*
X24167490D03*
X24217490D03*
X24317490D03*
X24267490D03*
X24017490D03*
X24067490D03*
G54D41*
X24100000Y22762000D03*
Y22605000D03*
G54D23*
X23041710Y20573000D03*
G54D50*
X24877500Y20862500D03*
X25037500D03*
Y21082500D03*
X24877500D03*
G54D14*
X22337000Y22037670D03*
G54D24*
X23041710Y20827000D03*
G54D51*
X25819300Y23335000D03*
X27419300Y17815000D03*
G54D33*
X23931000Y21482870D03*
X23850000D03*
X24214100D03*
X24133100D03*
G54D42*
X24572190Y15965110D03*
G54D15*
X22262670Y25110770D03*
G54D52*
X26619300Y16640000D03*
Y24510000D03*
G54D16*
X22599910Y20247820D03*
Y20067820D03*
Y20157820D03*
X22517710Y20067820D03*
Y20247820D03*
G54D34*
X23825000Y21776660D03*
X24075000D03*
G54D43*
X24757190Y16232610D03*
X24692190D03*
X24627190D03*
X24562190D03*
X24822190D03*
G54D25*
X22816680Y25015270D03*
Y25096270D03*
X23312500Y22764500D03*
Y22845500D03*
X24100000Y22217250D03*
Y22298250D03*
G54D44*
X24492800Y17600000D03*
X24596940D03*
X24772210Y19169560D03*
X24876350D03*
X24888900Y19450000D03*
X24993040D03*
X24889080Y21825000D03*
X24993220D03*
G54D26*
X23520060Y20148430D03*
X23675000D03*
G54D53*
X27419300Y24160210D03*
G54D35*
X24312190Y15965110D03*
X24812190D03*
X25072190D03*
G54D17*
X22391610Y20157820D03*
G54D18*
X22463770Y21547230D03*
Y21671690D03*
X22669790Y21547230D03*
Y21671690D03*
X22875000Y21547230D03*
Y21671690D03*
G54D27*
X23485000Y21525000D03*
Y21625000D03*
G54D36*
X24382190Y16220110D03*
X25002190D03*
G54D45*
X24740700Y18044380D03*
Y18283140D03*
X24835700Y18044380D03*
X24930700D03*
Y18283140D03*
G54D46*
X24774430Y18975000D03*
X24929990D03*
G54D28*
X24006470Y20158590D03*
Y20443070D03*
G54D19*
X22661680Y25110770D03*
X22721680D03*
X22911680D03*
X22971680D03*
G54D37*
X24411800Y16986380D03*
Y17176380D03*
X24686120D03*
Y17081380D03*
Y16986380D03*
G54D29*
X23673100Y20533450D03*
Y20699010D03*
G54D47*
X24767120Y18675000D03*
X24937300D03*
G54D38*
X24154750Y19795000D03*
Y19725000D03*
X24284750D03*
Y19795000D03*
X24321940Y21816660D03*
Y21736660D03*
G54D48*
X25017500Y19700000D03*
X24862500D03*
X25020000Y20302500D03*
X24865000D03*
Y20577500D03*
X25020000D03*
X24863650Y21357070D03*
X25018650D03*
X24863650Y21611870D03*
X25018650D03*
G54D39*
X24309150Y20146980D03*
Y20257540D03*
X24534750Y20146980D03*
Y20257540D03*
G54D49*
X25008560Y19975000D03*
X24873560D03*
M02*
