G04 ================== begin FILE IDENTIFICATION RECORD ==================*
G04 Layout Name:  echolight2.brd*
G04 Film Name:    SPTP*
G04 File Format:  Gerber RS274X*
G04 File Origin:  Cadence Allegro 25.1-P001*
G04 Origin Date:  Sat Feb  7 21:46:11 2026*
G04 *
G04 Layer:  BOARD GEOMETRY/DESIGN_OUTLINE*
G04 Layer:  PACKAGE GEOMETRY/PASTEMASK_TOP*
G04 Layer:  VIA CLASS/PASTEMASK_TOP*
G04 Layer:  PIN/PASTEMASK_TOP*
G04 *
G04 Offset:    (0.0000 0.0000)*
G04 Mirror:    No*
G04 Mode:      Positive*
G04 Rotation:  0*
G04 FullContactRelief:  No*
G04 UndefLineWidth:     0.1000*
G04 ================== end FILE IDENTIFICATION RECORD ====================*
%FSLAX25Y25*MOMM*%
%IR0*IPPOS*OFA0.00000B0.00000*MIA0B0*SFA1.00000B1.00000*%
%ADD32R,.4999X.6556*%
%ADD36R,.4X1.35*%
%ADD14R,.8X1.66*%
%ADD38R,.508X1.3208*%
%ADD18R,1.0056X.95*%
%ADD30R,1.1176X.4572*%
%ADD12O,.0467X.2967*%
%AMMACRO26*
4,1,44,.2949,.1435,
.2949,-.1435,
.292553,-.17065,
.285527,-.19698,
.274036,-.221691,
.258428,-.24403,
.239179,-.26332,
.216872,-.278974,
.192186,-.290516,
.16587,-.297597,
.138725,-.3,
.1387,-.3,
-.1387,-.3,
-.165846,-.297601,
-.192162,-.290525,
-.21685,-.278986,
-.23916,-.263335,
-.258412,-.244049,
-.274024,-.221712,
-.285519,-.197004,
-.292549,-.170675,
-.2949,-.143525,
-.2949,-.1435,
-.2949,.1435,
-.292553,.17065,
-.285527,.19698,
-.274036,.221691,
-.258428,.24403,
-.239179,.26332,
-.216872,.278974,
-.192186,.290516,
-.16587,.297597,
-.138725,.3,
-.1387,.3,
.1387,.3,
.165846,.297601,
.192162,.290525,
.21685,.278986,
.23916,.263335,
.258412,.244049,
.274024,.221712,
.285519,.197004,
.292549,.170675,
.2949,.143525,
.2949,.1435,
0.0*
%
%ADD26MACRO26*%
%ADD10R,.1X.1*%
%ADD29R,2.1X1.6*%
%ADD43R,1.15X1.4*%
%ADD17R,.3X.3*%
%ADD27R,1.1X1.9*%
%ADD31R,.5X.4*%
%ADD33R,.5X.5*%
%ADD21R,.5001X.5001*%
%ADD44R,6.4X7.3*%
%ADD28R,1.8X1.9*%
%ADD35R,1.9X1.9*%
%ADD15R,.522X.6*%
%ADD34R,.7X.65*%
%ADD42R,.75X.8*%
%ADD22R,1.7526X1.016*%
%ADD40R,1.016X1.1938*%
%ADD23R,.8X.6556*%
%ADD13R,.0254X.0254*%
%ADD39R,.7556X.8001*%
%ADD24O,.5999X.24*%
%ADD20R,.762X.8128*%
%ADD25O,.24X.5999*%
%ADD11R,.5588X.7112*%
%ADD37R,.7112X.5588*%
%ADD16R,.5588X.508*%
%ADD41R,.92X.9799*%
%AMMACRO19*
4,1,44,.1435,-.2949,
-.1435,-.2949,
-.17065,-.292553,
-.19698,-.285527,
-.221691,-.274036,
-.24403,-.258428,
-.26332,-.239179,
-.278974,-.216872,
-.290516,-.192186,
-.297597,-.16587,
-.3,-.138725,
-.3,-.1387,
-.3,.1387,
-.297601,.165846,
-.290525,.192162,
-.278986,.21685,
-.263335,.23916,
-.244049,.258412,
-.221712,.274024,
-.197004,.285519,
-.170675,.292549,
-.143525,.2949,
-.1435,.2949,
.1435,.2949,
.17065,.292553,
.19698,.285527,
.221691,.274036,
.24403,.258428,
.26332,.239179,
.278974,.216872,
.290516,.192186,
.297597,.16587,
.3,.138725,
.3,.1387,
.3,-.1387,
.297601,-.165846,
.290525,-.192162,
.278986,-.21685,
.263335,-.23916,
.244049,-.258412,
.221712,-.274024,
.197004,-.285519,
.170675,-.292549,
.143525,-.2949,
.1435,-.2949,
0.0*
%
%ADD19MACRO19*%
%ADD45C,.1*%
%ADD46C,1.1248*%
G75*
%LPD*%
G75*
G36*
G01X22362860Y20081820D02*
G02X22420360Y20233820I28750J76000D01*
G02X22362860Y20081820I-28750J-76000D01*
G37*
G36*
G01X22274500Y22006670D02*
X22399500D01*
Y22068670D01*
X22274500D01*
Y22006670D01*
G37*
G36*
G01X22696200Y25071260D02*
X22613170D01*
Y25028260D01*
X22533170D01*
Y25194270D01*
X22613170D01*
Y25151270D01*
X22696200D01*
Y25071260D01*
G37*
G36*
G01X23983890Y20963330D02*
Y20814730D01*
X24132490D01*
Y20963330D01*
X23983890D01*
G37*
G36*
G01X24132490Y20983330D02*
Y21131930D01*
X23983890D01*
Y20983330D01*
X24132490D01*
G37*
G36*
G01X24301090D02*
Y21131930D01*
X24152490D01*
Y20983330D01*
X24301090D01*
G37*
G36*
G01X24152490Y20963330D02*
Y20814730D01*
X24301090D01*
Y20963330D01*
X24152490D01*
G37*
%LPC*%
G75*
G54D46*
X22391860Y20158050D03*
%LPD*%
G75*
G54D10*
X22321270Y20159570D03*
G54D11*
X22265000Y21557390D03*
Y21661530D03*
X23403220Y20921260D03*
Y21025400D03*
G54D20*
X23520060Y20148430D03*
X23675000D03*
G54D21*
X23485000Y21525000D03*
Y21625000D03*
G54D12*
X22272000Y21942670D03*
X22271500Y22132670D03*
X22402000D03*
Y21942670D03*
X22337000D03*
Y22132670D03*
G54D30*
X24411800Y16986380D03*
Y17176380D03*
X24686120D03*
Y17081380D03*
Y16986380D03*
G54D13*
X22337000Y22037670D03*
X24142490Y20973330D03*
G54D40*
X24767120Y18675000D03*
X24937300D03*
G54D22*
X24006470Y20158590D03*
Y20443070D03*
G54D31*
X24154750Y19795000D03*
Y19725000D03*
X24284750D03*
Y19795000D03*
X24321940Y21816660D03*
Y21736660D03*
G54D41*
X25017500Y19700000D03*
X24862500D03*
X25020000Y20302500D03*
X24865000D03*
Y20577500D03*
X25020000D03*
X24863650Y21357070D03*
X25018650D03*
X24863650Y21611870D03*
X25018650D03*
G54D23*
X23673100Y20533450D03*
Y20699010D03*
G54D14*
X22262670Y25110770D03*
G54D32*
X24309150Y20146980D03*
Y20257540D03*
X24534750Y20146980D03*
Y20257540D03*
G54D24*
X23902490Y21048330D03*
Y20948330D03*
Y20898330D03*
Y20798330D03*
Y20848330D03*
Y20998330D03*
Y21098330D03*
Y21148330D03*
X24382490Y21048330D03*
Y20948330D03*
Y20998330D03*
Y20898330D03*
Y20848330D03*
Y20798330D03*
Y21098330D03*
Y21148330D03*
G54D42*
X25008560Y19975000D03*
X24873560D03*
G54D15*
X22599910Y20247820D03*
Y20067820D03*
Y20157820D03*
X22517710Y20067820D03*
Y20247820D03*
G54D33*
X24369990Y22048200D03*
Y22138200D03*
G54D16*
X22463770Y21547230D03*
Y21671690D03*
X22669790Y21547230D03*
Y21671690D03*
X22875000Y21547230D03*
Y21671690D03*
G54D25*
X23967490Y20733330D03*
Y21213330D03*
X24017490Y20733330D03*
X24067490D03*
X24217490D03*
X24167490D03*
X24117490D03*
X24317490D03*
X24267490D03*
X24117490Y21213330D03*
X24167490D03*
X24217490D03*
X24317490D03*
X24267490D03*
X24017490D03*
X24067490D03*
G54D34*
X24100000Y22762000D03*
Y22605000D03*
G54D43*
X24877500Y20862500D03*
X25037500D03*
Y21082500D03*
X24877500D03*
G54D35*
X24572190Y15965110D03*
G54D44*
X26619300Y16640000D03*
Y24510000D03*
G54D17*
X22661680Y25110770D03*
X22721680D03*
X22911680D03*
X22971680D03*
G54D26*
X23931000Y21482870D03*
X23850000D03*
X24214100D03*
X24133100D03*
G54D45*
G01X22034500Y15700000D02*
Y25367000D01*
X28148000D01*
Y15700000D01*
X22034500D01*
G54D27*
X23825000Y21776660D03*
X24075000D03*
G54D18*
X23118030Y20035550D03*
X22972470D03*
G54D36*
X24757190Y16232610D03*
X24692190D03*
X24627190D03*
X24562190D03*
X24822190D03*
G54D19*
X22816680Y25015270D03*
Y25096270D03*
X23312500Y22764500D03*
Y22845500D03*
X24100000Y22217250D03*
Y22298250D03*
G54D37*
X24492800Y17600000D03*
X24596940D03*
X24772210Y19169560D03*
X24876350D03*
X24888900Y19450000D03*
X24993040D03*
X24889080Y21825000D03*
X24993220D03*
G54D28*
X24312190Y15965110D03*
X24812190D03*
X25072190D03*
G54D29*
X24382190Y16220110D03*
X25002190D03*
G54D38*
X24740700Y18044380D03*
Y18283140D03*
X24835700Y18044380D03*
X24930700D03*
Y18283140D03*
G54D39*
X24774430Y18975000D03*
X24929990D03*
M02*
