G04 ================== begin FILE IDENTIFICATION RECORD ==================*
G04 Layout Name:  echolight2.brd*
G04 Film Name:    SSTP*
G04 File Format:  Gerber RS274X*
G04 File Origin:  Cadence Allegro 25.1-P001*
G04 Origin Date:  Sat Feb  7 21:46:11 2026*
G04 *
G04 Layer:  BOARD GEOMETRY/DESIGN_OUTLINE*
G04 Layer:  REF DES/SILKSCREEN_TOP*
G04 Layer:  PACKAGE GEOMETRY/SILKSCREEN_TOP*
G04 Layer:  BOARD GEOMETRY/SILKSCREEN_TOP*
G04 *
G04 Offset:    (0.0000 0.0000)*
G04 Mirror:    No*
G04 Mode:      Positive*
G04 Rotation:  0*
G04 FullContactRelief:  No*
G04 UndefLineWidth:     0.1000*
G04 ================== end FILE IDENTIFICATION RECORD ====================*
%FSLAX25Y25*MOMM*%
%IR0*IPPOS*OFA0.00000B0.00000*MIA0B0*SFA1.00000B1.00000*%
%ADD10C,.1*%
%ADD11C,.2*%
%ADD12C,.15*%
%ADD13C,.127*%
%ADD14C,.1524*%
%ADD15C,.508*%
%ADD16C,.1778*%
G75*
%LPD*%
G75*
G36*
G01X22699840Y25002500D02*
G02X22740150I20155J0D01*
G02X22699840I-20155J0D01*
G37*
G36*
G01X23319120Y16962540D02*
G02Y16919210I0J-21665D01*
G02Y16962540I0J21665D01*
G37*
G36*
G01X23445000Y20100000D02*
G02X23470000I12500J0D01*
G02X23445000I-12500J0D01*
G37*
G36*
G01X23820000Y21455000D02*
G02X23845000I12500J0D01*
G02X23820000I-12500J0D01*
G37*
G36*
G01X24100000Y21767500D02*
G02X24125000I12500J0D01*
G02X24100000I-12500J0D01*
G37*
%ADD19R,.2829X1.*%
%ADD18R,.8X2.6666*%
%ADD17R,.2672X.5*%
G36*
G01X22240210Y17060000D02*
X22199170D01*
X22197350Y17059750D01*
X22195510Y17058920D01*
X22193820Y17057500D01*
X22192260Y17055500D01*
X22190830Y17052920D01*
X22190500Y17052180D01*
X22189190Y17048480D01*
X22188250Y17044320D01*
X22187690Y17039680D01*
X22187500Y17034580D01*
Y17016040D01*
X22187780Y17012630D01*
X22188630Y17009300D01*
X22190070Y17006140D01*
X22192080Y17003130D01*
X22237080Y16946670D01*
Y16913330D01*
X22201880D01*
Y16940000D01*
X22187500D01*
Y16925420D01*
X22187510Y16924270D01*
X22187780Y16919270D01*
X22188420Y16914740D01*
X22189440Y16910680D01*
X22190830Y16907080D01*
X22192140Y16904670D01*
X22193690Y16902630D01*
X22195380Y16901170D01*
X22197200Y16900290D01*
X22199170Y16900000D01*
X22240210D01*
X22242150Y16900270D01*
X22244000Y16901110D01*
X22245680Y16902520D01*
X22247200Y16904520D01*
X22248540Y16907080D01*
X22249360Y16909150D01*
X22250050Y16911380D01*
X22250950Y16915580D01*
X22251490Y16920260D01*
X22251670Y16925420D01*
Y16944370D01*
X22251590Y16946130D01*
X22251380Y16947840D01*
X22250520Y16951100D01*
X22249090Y16954180D01*
X22247080Y16957080D01*
X22201880Y17013330D01*
Y17046670D01*
X22237080D01*
Y17006670D01*
X22251670D01*
Y17034580D01*
X22251660Y17035480D01*
X22251420Y17040560D01*
X22250820Y17045160D01*
X22249860Y17049280D01*
X22248540Y17052920D01*
X22247250Y17055400D01*
X22245750Y17057410D01*
X22244070Y17058850D01*
X22242220Y17059710D01*
X22240210Y17060000D01*
G37*
G36*
G01X22378960D02*
X22364580D01*
X22350830Y16956880D01*
X22350730Y16955830D01*
X22350440Y16952190D01*
X22350260Y16949130D01*
X22350200Y16946670D01*
X22350180Y16947590D01*
X22350050Y16951290D01*
X22349920Y16954380D01*
X22349790Y16956880D01*
X22333120Y17060000D01*
X22320620D01*
X22303750Y16956880D01*
X22303690Y16955900D01*
X22303490Y16952230D01*
X22303370Y16949150D01*
X22303330Y16946670D01*
X22303300Y16947590D01*
X22303170Y16951290D01*
X22303040Y16954380D01*
X22302910Y16956880D01*
X22289160Y17060000D01*
X22274790D01*
X22296870Y16900000D01*
X22308750D01*
X22326460Y17000420D01*
X22326670Y17003420D01*
X22326820Y17006170D01*
X22326870Y17008330D01*
X22327090Y17005330D01*
X22327240Y17002580D01*
X22327290Y17000420D01*
X22345000Y16900000D01*
X22356660D01*
X22378960Y17060000D01*
G37*
G36*
G01X22417700D02*
X22405830D01*
X22396660Y17026670D01*
Y17020000D01*
X22403120D01*
Y16900000D01*
X22417700D01*
Y17060000D01*
G37*
G36*
G01X22342810Y19950000D02*
X22332660D01*
X22312810Y19878130D01*
X22312670Y19877130D01*
X22312570Y19876260D01*
X22312500Y19875000D01*
X22312440Y19875880D01*
X22312390Y19876620D01*
X22312290Y19877600D01*
X22312190Y19878130D01*
X22292340Y19950000D01*
X22282340D01*
Y19830000D01*
X22292500D01*
Y19908440D01*
X22292480Y19908970D01*
X22292420Y19909720D01*
X22292280Y19911160D01*
X22292060Y19913040D01*
X22291770Y19915360D01*
X22291410Y19918120D01*
X22311410Y19850000D01*
X22313590D01*
X22333590Y19918120D01*
X22333420Y19916860D01*
X22333090Y19914290D01*
X22332830Y19912160D01*
X22332650Y19910470D01*
X22332540Y19909230D01*
X22332500Y19908440D01*
Y19830000D01*
X22342810D01*
Y19950000D01*
G37*
G36*
G01X22373750D02*
X22362970D01*
Y19830000D01*
X22373750D01*
Y19950000D01*
G37*
G36*
G01X22432500D02*
X22400940D01*
X22399570Y19949810D01*
X22398200Y19949190D01*
X22396920Y19948130D01*
X22395750Y19946630D01*
X22394690Y19944690D01*
X22394080Y19943140D01*
X22393560Y19941470D01*
X22392880Y19938320D01*
X22392480Y19934810D01*
X22392340Y19930940D01*
Y19849060D01*
X22392350Y19848390D01*
X22392530Y19844580D01*
X22392980Y19841130D01*
X22393700Y19838040D01*
X22394690Y19835310D01*
X22395670Y19833500D01*
X22396830Y19831970D01*
X22398100Y19830880D01*
X22399470Y19830220D01*
X22400940Y19830000D01*
X22432500D01*
X22433860Y19830190D01*
X22435240Y19830810D01*
X22436510Y19831870D01*
X22437680Y19833370D01*
X22438750Y19835310D01*
X22439000Y19835870D01*
X22439980Y19838640D01*
X22440690Y19841760D01*
X22441110Y19845240D01*
X22441250Y19849060D01*
Y19860000D01*
X22430310D01*
Y19840000D01*
X22403120D01*
Y19940000D01*
X22430310D01*
Y19910000D01*
X22441250D01*
Y19930940D01*
X22441240Y19931800D01*
X22441040Y19935550D01*
X22440560Y19938950D01*
X22439800Y19941990D01*
X22438750Y19944690D01*
X22437770Y19946500D01*
X22436600Y19948030D01*
X22435340Y19949120D01*
X22433970Y19949780D01*
X22432500Y19950000D01*
G37*
G36*
G01X22474530D02*
X22465630D01*
X22458750Y19925000D01*
Y19920000D01*
X22463590D01*
Y19830000D01*
X22474530D01*
Y19950000D01*
G37*
G36*
G01X22250000Y21370000D02*
X22218440D01*
X22217070Y21369810D01*
X22215700Y21369190D01*
X22214420Y21368130D01*
X22213250Y21366630D01*
X22212190Y21364690D01*
X22211580Y21363140D01*
X22211060Y21361470D01*
X22210380Y21358320D01*
X22209980Y21354810D01*
X22209840Y21350940D01*
Y21269060D01*
X22209850Y21268390D01*
X22210030Y21264580D01*
X22210480Y21261130D01*
X22211200Y21258040D01*
X22212190Y21255310D01*
X22213170Y21253500D01*
X22214330Y21251970D01*
X22215600Y21250880D01*
X22216970Y21250220D01*
X22218440Y21250000D01*
X22250000D01*
X22251360Y21250190D01*
X22252740Y21250810D01*
X22254010Y21251870D01*
X22255180Y21253370D01*
X22256250Y21255310D01*
X22256500Y21255870D01*
X22257480Y21258640D01*
X22258190Y21261760D01*
X22258610Y21265240D01*
X22258750Y21269060D01*
Y21280000D01*
X22247810D01*
Y21260000D01*
X22220620D01*
Y21360000D01*
X22247810D01*
Y21330000D01*
X22258750D01*
Y21350940D01*
X22258740Y21351800D01*
X22258540Y21355550D01*
X22258060Y21358950D01*
X22257300Y21361990D01*
X22256250Y21364690D01*
X22255270Y21366500D01*
X22254100Y21368030D01*
X22252840Y21369120D01*
X22251470Y21369780D01*
X22250000Y21370000D01*
G37*
G36*
G01X22292030D02*
X22283130D01*
X22276250Y21345000D01*
Y21340000D01*
X22281090D01*
Y21250000D01*
X22292030D01*
Y21370000D01*
G37*
G36*
G01X22350160D02*
X22318440D01*
X22317070Y21369810D01*
X22315700Y21369190D01*
X22314420Y21368130D01*
X22313250Y21366630D01*
X22312190Y21364690D01*
X22311580Y21363140D01*
X22311060Y21361470D01*
X22310380Y21358320D01*
X22309980Y21354810D01*
X22309840Y21350940D01*
Y21337660D01*
X22309890Y21335950D01*
X22310030Y21334340D01*
X22310510Y21331700D01*
X22311290Y21329390D01*
X22312370Y21327420D01*
X22313750Y21325780D01*
X22325310Y21315000D01*
X22313440Y21303590D01*
X22312690Y21302800D01*
X22312030Y21301920D01*
X22310930Y21299940D01*
X22310160Y21297630D01*
X22309690Y21294990D01*
X22309530Y21292030D01*
Y21269060D01*
X22309540Y21268390D01*
X22309720Y21264580D01*
X22310170Y21261130D01*
X22310890Y21258040D01*
X22311880Y21255310D01*
X22312860Y21253500D01*
X22314020Y21251970D01*
X22315290Y21250880D01*
X22316650Y21250220D01*
X22318120Y21250000D01*
X22350310D01*
X22351680Y21250190D01*
X22353050Y21250810D01*
X22354330Y21251870D01*
X22355500Y21253370D01*
X22356560Y21255310D01*
X22356810Y21255870D01*
X22357800Y21258640D01*
X22358500Y21261760D01*
X22358920Y21265240D01*
X22359060Y21269060D01*
Y21292030D01*
X22358920Y21294710D01*
X22358420Y21297360D01*
X22357580Y21299720D01*
X22356380Y21301800D01*
X22354840Y21303590D01*
X22343280Y21315000D01*
X22354690Y21325780D01*
X22355540Y21326670D01*
X22356300Y21327680D01*
X22357370Y21329680D01*
X22358140Y21332010D01*
X22358600Y21334670D01*
X22358750Y21337660D01*
Y21350940D01*
X22358740Y21351800D01*
X22358540Y21355550D01*
X22358060Y21358950D01*
X22357300Y21361990D01*
X22356250Y21364690D01*
X22355310Y21366520D01*
X22354190Y21368040D01*
X22352960Y21369130D01*
X22351620Y21369780D01*
X22350160Y21370000D01*
G37*
G36*
G01X22311740Y24901650D02*
X22278410D01*
X22276420Y24901540D01*
X22273860Y24901010D01*
X22271680Y24900020D01*
X22269900Y24898580D01*
X22268520Y24896690D01*
X22267530Y24894350D01*
X22266940Y24891560D01*
X22266740Y24888310D01*
Y24874980D01*
X22280080D01*
Y24888310D01*
X22309870D01*
Y24861650D01*
X22277370D01*
X22275780Y24861520D01*
X22273620Y24860890D01*
X22271720Y24859710D01*
X22270060Y24857990D01*
X22268670Y24855720D01*
X22267530Y24852910D01*
X22266640Y24849550D01*
X22266000Y24845660D01*
X22265620Y24841210D01*
X22265490Y24836230D01*
Y24820400D01*
X22265540Y24817130D01*
X22265830Y24812480D01*
X22266350Y24808380D01*
X22267130Y24804830D01*
X22268150Y24801820D01*
X22269420Y24799360D01*
X22270930Y24797440D01*
X22272690Y24796070D01*
X22274700Y24795250D01*
X22276950Y24794980D01*
X22277730Y24794990D01*
X22280910Y24795290D01*
X22284550Y24795980D01*
X22288650Y24797060D01*
X22293200Y24798520D01*
X22309660Y24804980D01*
Y24794980D01*
X22323410D01*
Y24888310D01*
X22323320Y24890580D01*
X22322850Y24893520D01*
X22321990Y24896000D01*
X22320730Y24898030D01*
X22319070Y24899610D01*
X22317030Y24900740D01*
X22314580Y24901420D01*
X22311740Y24901650D01*
G37*
G36*
G01X22392790D02*
X22390920Y24901540D01*
X22387770Y24900970D01*
X22384280Y24899890D01*
X22380470Y24898310D01*
X22376330Y24896230D01*
X22373040Y24894270D01*
X22359870Y24886650D01*
Y24901650D01*
X22346120D01*
Y24794980D01*
X22359870D01*
Y24873310D01*
X22390490Y24888310D01*
Y24794980D01*
X22404240D01*
Y24876230D01*
X22404190Y24879490D01*
X22403910Y24884140D01*
X22403380Y24888250D01*
X22402610Y24891800D01*
X22401590Y24894810D01*
X22400320Y24897270D01*
X22398810Y24899190D01*
X22397050Y24900550D01*
X22395040Y24901370D01*
X22392790Y24901650D01*
G37*
G36*
G01X22444870Y24941650D02*
X22431120D01*
Y24901650D01*
X22419040D01*
Y24888310D01*
X22431120D01*
Y24820400D01*
X22431170Y24817060D01*
X22431460Y24812430D01*
X22432000Y24808340D01*
X22432790Y24804800D01*
X22433830Y24801800D01*
X22435120Y24799340D01*
X22436660Y24797430D01*
X22438450Y24796070D01*
X22440490Y24795250D01*
X22442790Y24794980D01*
X22462580D01*
Y24808310D01*
X22444870D01*
Y24888310D01*
X22462580D01*
Y24901650D01*
X22444870D01*
Y24941650D01*
G37*
G36*
G01X22497360Y24954980D02*
X22485490D01*
X22476320Y24921650D01*
Y24914980D01*
X22482780D01*
Y24794980D01*
X22497360D01*
Y24954980D01*
G37*
G36*
G01X22770420Y20585000D02*
X22756040D01*
Y20438330D01*
X22723960D01*
Y20478330D01*
X22709380D01*
Y20450420D01*
Y20449520D01*
X22709620Y20444440D01*
X22710220Y20439840D01*
X22711180Y20435720D01*
X22712500Y20432080D01*
X22713840Y20429640D01*
X22715410Y20427610D01*
X22717130Y20426160D01*
X22719010Y20425290D01*
X22721040Y20425000D01*
X22758960D01*
X22760800Y20425260D01*
X22762600Y20426090D01*
X22764250Y20427510D01*
X22765740Y20429510D01*
X22767080Y20432080D01*
X22767420Y20432820D01*
X22768730Y20436520D01*
X22769670Y20440680D01*
X22770230Y20445320D01*
X22770420Y20450420D01*
Y20585000D01*
G37*
G36*
G01X22841880D02*
X22802710D01*
X22800790Y20584740D01*
X22798900Y20583910D01*
X22797170Y20582490D01*
X22795590Y20580490D01*
X22794170Y20577920D01*
X22793350Y20575850D01*
X22792660Y20573620D01*
X22791760Y20569420D01*
X22791220Y20564740D01*
X22791040Y20559580D01*
Y20531670D01*
X22805620D01*
Y20571670D01*
X22838960D01*
Y20535420D01*
X22788960Y20431670D01*
Y20425000D01*
X22853750D01*
Y20438330D01*
X22806460D01*
X22849580Y20528130D01*
X22851050Y20531330D01*
X22852440Y20535220D01*
X22853270Y20538870D01*
X22853540Y20542290D01*
Y20559580D01*
X22853530Y20560730D01*
X22853260Y20565730D01*
X22852620Y20570260D01*
X22851600Y20574320D01*
X22850210Y20577920D01*
X22848920Y20580400D01*
X22847410Y20582410D01*
X22845740Y20583850D01*
X22843890Y20584710D01*
X22841880Y20585000D01*
G37*
G36*
G01X22450780Y21370000D02*
X22409840D01*
Y21250000D01*
X22420620D01*
Y21360000D01*
X22448590D01*
Y21320000D01*
X22429220D01*
X22427660Y21317810D01*
X22450470Y21250000D01*
X22461880D01*
X22440780Y21310160D01*
X22441460Y21310140D01*
X22442310Y21310110D01*
X22444060Y21310000D01*
X22447500D01*
X22449740Y21310190D01*
X22451760Y21310760D01*
X22453550Y21311710D01*
X22455090Y21313040D01*
X22456400Y21314760D01*
X22457470Y21316850D01*
X22458300Y21319330D01*
X22458900Y21322190D01*
X22459260Y21325440D01*
X22459380Y21329060D01*
Y21350940D01*
X22459370Y21351800D01*
X22459170Y21355550D01*
X22458680Y21358950D01*
X22457920Y21361990D01*
X22456880Y21364690D01*
X22455930Y21366520D01*
X22454820Y21368040D01*
X22453590Y21369130D01*
X22452240Y21369780D01*
X22450780Y21370000D01*
G37*
G36*
G01X22519380D02*
X22488440D01*
X22487070Y21369810D01*
X22485700Y21369190D01*
X22484420Y21368130D01*
X22483250Y21366630D01*
X22482190Y21364690D01*
X22481580Y21363140D01*
X22481060Y21361470D01*
X22480380Y21358320D01*
X22479980Y21354810D01*
X22479840Y21350940D01*
Y21269060D01*
X22479850Y21268390D01*
X22480030Y21264580D01*
X22480480Y21261130D01*
X22481200Y21258040D01*
X22482190Y21255310D01*
X22483170Y21253500D01*
X22484330Y21251970D01*
X22485600Y21250880D01*
X22486970Y21250220D01*
X22488440Y21250000D01*
X22519690D01*
X22521140Y21250200D01*
X22522530Y21250830D01*
X22523790Y21251890D01*
X22524930Y21253390D01*
X22525940Y21255310D01*
X22526550Y21256860D01*
X22527070Y21258530D01*
X22527740Y21261680D01*
X22528150Y21265190D01*
X22528280Y21269060D01*
Y21300940D01*
Y21301610D01*
X22528100Y21305420D01*
X22527650Y21308870D01*
X22526930Y21311960D01*
X22525940Y21314690D01*
X22524970Y21316550D01*
X22523840Y21318060D01*
X22522580Y21319140D01*
X22521200Y21319780D01*
X22519690Y21320000D01*
X22490620D01*
Y21360000D01*
X22517030D01*
Y21340000D01*
X22527970D01*
Y21350940D01*
X22527960Y21351610D01*
X22527780Y21355420D01*
X22527330Y21358870D01*
X22526620Y21361960D01*
X22525630Y21364690D01*
X22524660Y21366550D01*
X22523530Y21368060D01*
X22522270Y21369140D01*
X22520890Y21369780D01*
X22519380Y21370000D01*
G37*
G36*
G01X22675780D02*
X22634840D01*
Y21250000D01*
X22645620D01*
Y21360000D01*
X22673590D01*
Y21320000D01*
X22654220D01*
X22652660Y21317810D01*
X22675470Y21250000D01*
X22686880D01*
X22665780Y21310160D01*
X22666460Y21310140D01*
X22667310Y21310110D01*
X22669060Y21310000D01*
X22672500D01*
X22674740Y21310190D01*
X22676760Y21310760D01*
X22678550Y21311710D01*
X22680090Y21313040D01*
X22681400Y21314760D01*
X22682470Y21316850D01*
X22683300Y21319330D01*
X22683900Y21322190D01*
X22684260Y21325440D01*
X22684380Y21329060D01*
Y21350940D01*
X22684370Y21351800D01*
X22684170Y21355550D01*
X22683680Y21358950D01*
X22682920Y21361990D01*
X22681880Y21364690D01*
X22680930Y21366520D01*
X22679820Y21368040D01*
X22678590Y21369130D01*
X22677240Y21369780D01*
X22675780Y21370000D01*
G37*
G36*
G01X22745160D02*
X22713440D01*
X22712070Y21369810D01*
X22710700Y21369190D01*
X22709420Y21368130D01*
X22708250Y21366630D01*
X22707190Y21364690D01*
X22706580Y21363140D01*
X22706060Y21361470D01*
X22705380Y21358320D01*
X22704980Y21354810D01*
X22704840Y21350940D01*
Y21337660D01*
X22704890Y21335950D01*
X22705030Y21334340D01*
X22705510Y21331700D01*
X22706290Y21329390D01*
X22707370Y21327420D01*
X22708750Y21325780D01*
X22720310Y21315000D01*
X22708440Y21303590D01*
X22707690Y21302800D01*
X22707030Y21301920D01*
X22705930Y21299940D01*
X22705160Y21297630D01*
X22704690Y21294990D01*
X22704530Y21292030D01*
Y21269060D01*
X22704540Y21268390D01*
X22704720Y21264580D01*
X22705170Y21261130D01*
X22705890Y21258040D01*
X22706880Y21255310D01*
X22707860Y21253500D01*
X22709020Y21251970D01*
X22710290Y21250880D01*
X22711650Y21250220D01*
X22713120Y21250000D01*
X22745310D01*
X22746680Y21250190D01*
X22748050Y21250810D01*
X22749330Y21251870D01*
X22750500Y21253370D01*
X22751560Y21255310D01*
X22751810Y21255870D01*
X22752800Y21258640D01*
X22753500Y21261760D01*
X22753920Y21265240D01*
X22754060Y21269060D01*
Y21292030D01*
X22753920Y21294710D01*
X22753420Y21297360D01*
X22752580Y21299720D01*
X22751380Y21301800D01*
X22749840Y21303590D01*
X22738280Y21315000D01*
X22749690Y21325780D01*
X22750540Y21326670D01*
X22751300Y21327680D01*
X22752370Y21329680D01*
X22753140Y21332010D01*
X22753600Y21334670D01*
X22753750Y21337660D01*
Y21350940D01*
X22753740Y21351800D01*
X22753540Y21355550D01*
X22753060Y21358950D01*
X22752300Y21361990D01*
X22751250Y21364690D01*
X22750310Y21366520D01*
X22749190Y21368040D01*
X22747960Y21369130D01*
X22746620Y21369780D01*
X22745160Y21370000D01*
G37*
G36*
G01X22405630Y22335000D02*
X22391250D01*
Y22188330D01*
X22352500D01*
Y22335000D01*
X22338130D01*
Y22200420D01*
Y22199520D01*
X22338370Y22194440D01*
X22338970Y22189840D01*
X22339930Y22185720D01*
X22341250Y22182080D01*
X22342560Y22179670D01*
X22344110Y22177630D01*
X22345800Y22176170D01*
X22347620Y22175290D01*
X22349580Y22175000D01*
X22393960D01*
X22395900Y22175270D01*
X22397750Y22176110D01*
X22399430Y22177520D01*
X22400950Y22179520D01*
X22402290Y22182080D01*
X22402630Y22182820D01*
X22403940Y22186520D01*
X22404880Y22190680D01*
X22405440Y22195320D01*
X22405630Y22200420D01*
Y22335000D01*
G37*
G36*
G01X22476040D02*
X22462290D01*
X22422910Y22222290D01*
Y22215000D01*
X22468960D01*
Y22175000D01*
X22482500D01*
Y22215000D01*
X22495000D01*
Y22228330D01*
X22482500D01*
Y22281670D01*
X22468960D01*
Y22228330D01*
X22438540D01*
X22476040Y22334380D01*
Y22335000D01*
G37*
G36*
G01X22658890Y24979010D02*
X22648110D01*
Y24859010D01*
X22687180D01*
Y24869010D01*
X22658890D01*
Y24979010D01*
G37*
G36*
G01X22744210D02*
X22699520D01*
X22698110Y24919010D01*
X22734210D01*
Y24869010D01*
X22708580D01*
Y24889010D01*
X22697800D01*
Y24878070D01*
X22697810Y24877400D01*
X22697990Y24873590D01*
X22698440Y24870140D01*
X22699160Y24867050D01*
X22700150Y24864320D01*
X22701130Y24862510D01*
X22702290Y24860980D01*
X22703560Y24859890D01*
X22704920Y24859230D01*
X22706390Y24859010D01*
X22736400D01*
X22737850Y24859210D01*
X22739240Y24859840D01*
X22740500Y24860900D01*
X22741640Y24862400D01*
X22742640Y24864320D01*
X22742900Y24864880D01*
X22743880Y24867650D01*
X22744580Y24870770D01*
X22745000Y24874250D01*
X22745150Y24878070D01*
Y24909010D01*
X22745130Y24910410D01*
X22744910Y24914200D01*
X22744420Y24917620D01*
X22743660Y24920690D01*
X22742640Y24923380D01*
X22742120Y24924530D01*
X22741570Y24925540D01*
X22740450Y24927060D01*
X22739220Y24928140D01*
X22737870Y24928790D01*
X22736400Y24929010D01*
X22708740D01*
X22710140Y24969010D01*
X22744210D01*
Y24979010D01*
G37*
G36*
G01X22738820Y25219570D02*
X22729920D01*
X22723040Y25194570D01*
Y25189570D01*
X22727880D01*
Y25099570D01*
X22738820D01*
Y25219570D01*
G37*
G36*
G01X22925000Y19920000D02*
X22893440D01*
X22892070Y19919810D01*
X22890700Y19919190D01*
X22889420Y19918130D01*
X22888250Y19916630D01*
X22887190Y19914690D01*
X22886580Y19913140D01*
X22886060Y19911470D01*
X22885380Y19908320D01*
X22884980Y19904810D01*
X22884840Y19900940D01*
Y19819060D01*
X22884850Y19818390D01*
X22885030Y19814580D01*
X22885480Y19811130D01*
X22886200Y19808040D01*
X22887190Y19805310D01*
X22888170Y19803500D01*
X22889330Y19801970D01*
X22890600Y19800880D01*
X22891970Y19800220D01*
X22893440Y19800000D01*
X22925000D01*
X22926360Y19800190D01*
X22927740Y19800810D01*
X22929010Y19801870D01*
X22930180Y19803370D01*
X22931250Y19805310D01*
X22931500Y19805870D01*
X22932480Y19808640D01*
X22933190Y19811760D01*
X22933610Y19815240D01*
X22933750Y19819060D01*
Y19830000D01*
X22922810D01*
Y19810000D01*
X22895620D01*
Y19910000D01*
X22922810D01*
Y19880000D01*
X22933750D01*
Y19900940D01*
X22933740Y19901800D01*
X22933540Y19905550D01*
X22933060Y19908950D01*
X22932300Y19911990D01*
X22931250Y19914690D01*
X22930270Y19916500D01*
X22929100Y19918030D01*
X22927840Y19919120D01*
X22926470Y19919780D01*
X22925000Y19920000D01*
G37*
G36*
G01X22967030D02*
X22958130D01*
X22951250Y19895000D01*
Y19890000D01*
X22956090D01*
Y19800000D01*
X22967030D01*
Y19920000D01*
G37*
G36*
G01X22875780Y21370000D02*
X22834840D01*
Y21250000D01*
X22845620D01*
Y21360000D01*
X22873590D01*
Y21320000D01*
X22854220D01*
X22852660Y21317810D01*
X22875470Y21250000D01*
X22886880D01*
X22865780Y21310160D01*
X22866460Y21310140D01*
X22867310Y21310110D01*
X22869060Y21310000D01*
X22872500D01*
X22874740Y21310190D01*
X22876760Y21310760D01*
X22878550Y21311710D01*
X22880090Y21313040D01*
X22881400Y21314760D01*
X22882470Y21316850D01*
X22883300Y21319330D01*
X22883900Y21322190D01*
X22884260Y21325440D01*
X22884380Y21329060D01*
Y21350940D01*
X22884370Y21351800D01*
X22884170Y21355550D01*
X22883680Y21358950D01*
X22882920Y21361990D01*
X22881880Y21364690D01*
X22880930Y21366520D01*
X22879820Y21368040D01*
X22878590Y21369130D01*
X22877240Y21369780D01*
X22875780Y21370000D01*
G37*
G36*
G01X22949060D02*
X22900630D01*
Y21340000D01*
X22911560D01*
Y21360000D01*
X22937660D01*
X22912190Y21250000D01*
X22922810D01*
X22949060Y21364380D01*
Y21370000D01*
G37*
G36*
G01X23125000Y22827500D02*
X23093440D01*
X23092070Y22827310D01*
X23090700Y22826690D01*
X23089420Y22825630D01*
X23088250Y22824130D01*
X23087190Y22822190D01*
X23086580Y22820640D01*
X23086060Y22818970D01*
X23085380Y22815820D01*
X23084980Y22812310D01*
X23084840Y22808440D01*
Y22726560D01*
X23084850Y22725890D01*
X23085030Y22722080D01*
X23085480Y22718630D01*
X23086200Y22715540D01*
X23087190Y22712810D01*
X23088170Y22711000D01*
X23089330Y22709470D01*
X23090600Y22708380D01*
X23091970Y22707720D01*
X23093440Y22707500D01*
X23125000D01*
X23126360Y22707690D01*
X23127740Y22708310D01*
X23129010Y22709370D01*
X23130180Y22710870D01*
X23131250Y22712810D01*
X23131500Y22713370D01*
X23132480Y22716140D01*
X23133190Y22719260D01*
X23133610Y22722740D01*
X23133750Y22726560D01*
Y22737500D01*
X23122810D01*
Y22717500D01*
X23095620D01*
Y22817500D01*
X23122810D01*
Y22787500D01*
X23133750D01*
Y22808440D01*
X23133740Y22809300D01*
X23133540Y22813050D01*
X23133060Y22816450D01*
X23132300Y22819490D01*
X23131250Y22822190D01*
X23130270Y22824000D01*
X23129100Y22825530D01*
X23127840Y22826620D01*
X23126470Y22827280D01*
X23125000Y22827500D01*
G37*
G36*
G01X23167030D02*
X23158130D01*
X23151250Y22802500D01*
Y22797500D01*
X23156090D01*
Y22707500D01*
X23167030D01*
Y22827500D01*
G37*
G36*
G01X23221410D02*
X23192030D01*
X23190590Y22827310D01*
X23189180Y22826680D01*
X23187880Y22825620D01*
X23186690Y22824120D01*
X23185620Y22822190D01*
X23185010Y22820640D01*
X23184500Y22818970D01*
X23183820Y22815820D01*
X23183420Y22812310D01*
X23183280Y22808440D01*
Y22787500D01*
X23194220D01*
Y22817500D01*
X23219220D01*
Y22790310D01*
X23181720Y22712500D01*
Y22707500D01*
X23230310D01*
Y22717500D01*
X23194840D01*
X23227190Y22784840D01*
X23228290Y22787250D01*
X23229330Y22790160D01*
X23229950Y22792900D01*
X23230160Y22795470D01*
Y22808440D01*
X23230150Y22809300D01*
X23229950Y22813050D01*
X23229470Y22816450D01*
X23228700Y22819490D01*
X23227660Y22822190D01*
X23226690Y22824050D01*
X23225560Y22825560D01*
X23224300Y22826640D01*
X23222920Y22827280D01*
X23221410Y22827500D01*
G37*
G36*
G01X22799390Y24847390D02*
X22767830D01*
X22766460Y24847200D01*
X22765090Y24846580D01*
X22763810Y24845520D01*
X22762640Y24844020D01*
X22761580Y24842080D01*
X22760970Y24840530D01*
X22760450Y24838860D01*
X22759770Y24835710D01*
X22759370Y24832200D01*
X22759230Y24828330D01*
Y24746450D01*
X22759240Y24745780D01*
X22759420Y24741970D01*
X22759870Y24738520D01*
X22760590Y24735430D01*
X22761580Y24732700D01*
X22762560Y24730890D01*
X22763720Y24729360D01*
X22764990Y24728270D01*
X22766360Y24727610D01*
X22767830Y24727390D01*
X22799390D01*
X22800750Y24727580D01*
X22802130Y24728200D01*
X22803400Y24729260D01*
X22804570Y24730760D01*
X22805640Y24732700D01*
X22805890Y24733260D01*
X22806870Y24736030D01*
X22807580Y24739150D01*
X22808000Y24742630D01*
X22808140Y24746450D01*
Y24757390D01*
X22797200D01*
Y24737390D01*
X22770010D01*
Y24837390D01*
X22797200D01*
Y24807390D01*
X22808140D01*
Y24828330D01*
X22808130Y24829190D01*
X22807930Y24832940D01*
X22807450Y24836340D01*
X22806690Y24839380D01*
X22805640Y24842080D01*
X22804660Y24843890D01*
X22803490Y24845420D01*
X22802230Y24846510D01*
X22800860Y24847170D01*
X22799390Y24847390D01*
G37*
G36*
G01X22841420D02*
X22832520D01*
X22825640Y24822390D01*
Y24817390D01*
X22830480D01*
Y24727390D01*
X22841420D01*
Y24847390D01*
G37*
G36*
G01X22899230D02*
X22867980D01*
X22866620Y24847200D01*
X22865240Y24846580D01*
X22863970Y24845520D01*
X22862800Y24844020D01*
X22861730Y24842080D01*
X22861120Y24840530D01*
X22860610Y24838860D01*
X22859930Y24835710D01*
X22859530Y24832200D01*
X22859390Y24828330D01*
Y24807390D01*
X22870170D01*
Y24837390D01*
X22896890D01*
Y24809420D01*
X22875480Y24793480D01*
Y24791140D01*
X22897050Y24774890D01*
Y24737390D01*
X22870010D01*
Y24767390D01*
X22859230D01*
Y24746450D01*
X22859240Y24745780D01*
X22859420Y24741970D01*
X22859870Y24738520D01*
X22860590Y24735430D01*
X22861580Y24732700D01*
X22862560Y24730890D01*
X22863720Y24729360D01*
X22864990Y24728270D01*
X22866360Y24727610D01*
X22867830Y24727390D01*
X22899390D01*
X22900770Y24727580D01*
X22902120Y24728210D01*
X22903360Y24729270D01*
X22904480Y24730770D01*
X22905480Y24732700D01*
X22905730Y24733260D01*
X22906720Y24736030D01*
X22907420Y24739150D01*
X22907840Y24742630D01*
X22907980Y24746450D01*
Y24772860D01*
X22907820Y24775060D01*
X22907270Y24777200D01*
X22906330Y24779110D01*
X22905010Y24780790D01*
X22903300Y24782230D01*
X22888610Y24792390D01*
X22903140Y24802700D01*
X22904650Y24803940D01*
X22906040Y24805580D01*
X22907030Y24807430D01*
X22907630Y24809490D01*
X22907830Y24811770D01*
Y24828330D01*
X22907820Y24829190D01*
X22907620Y24832940D01*
X22907140Y24836340D01*
X22906370Y24839380D01*
X22905330Y24842080D01*
X22904380Y24843910D01*
X22903270Y24845430D01*
X22902040Y24846520D01*
X22900690Y24847170D01*
X22899230Y24847390D01*
G37*
G36*
G01X22927310Y24971190D02*
X22916530D01*
Y24851190D01*
X22955600D01*
Y24861190D01*
X22927310D01*
Y24971190D01*
G37*
G36*
G01X22999970D02*
X22989660D01*
X22960130Y24886660D01*
Y24881190D01*
X22994660D01*
Y24851190D01*
X23004820D01*
Y24881190D01*
X23014190D01*
Y24891190D01*
X23004820D01*
Y24931190D01*
X22994660D01*
Y24891190D01*
X22971850D01*
X22999970Y24970720D01*
Y24971190D01*
G37*
G36*
G01X23307290Y19495020D02*
X23225420D01*
Y19255020D01*
X23246980D01*
Y19475020D01*
X23302920D01*
Y19395020D01*
X23264170D01*
X23261040Y19390650D01*
X23306670Y19255020D01*
X23329480D01*
X23287290Y19375330D01*
X23288660Y19375310D01*
X23290350Y19375240D01*
X23293860Y19375020D01*
X23300730D01*
X23305210Y19375390D01*
X23309250Y19376530D01*
X23312820Y19378440D01*
X23315910Y19381100D01*
X23318530Y19384530D01*
X23320670Y19388730D01*
X23322340Y19393690D01*
X23323530Y19399410D01*
X23324240Y19405890D01*
X23324480Y19413150D01*
Y19456900D01*
X23324470Y19458620D01*
X23324060Y19466120D01*
X23323100Y19472910D01*
X23321570Y19479000D01*
X23319480Y19484400D01*
X23317590Y19488060D01*
X23315360Y19491100D01*
X23312900Y19493280D01*
X23310210Y19494580D01*
X23307290Y19495020D01*
G37*
G36*
G01X23444790D02*
X23365420D01*
Y19255020D01*
X23445730D01*
Y19275020D01*
X23386980D01*
Y19375020D01*
X23439480D01*
Y19395020D01*
X23386980D01*
Y19475020D01*
X23444790D01*
Y19495020D01*
G37*
G36*
G01X23563540D02*
X23501980D01*
X23499250Y19494650D01*
X23496500Y19493400D01*
X23493950Y19491270D01*
X23491610Y19488270D01*
X23489480Y19484400D01*
X23488980Y19483280D01*
X23487010Y19477740D01*
X23485600Y19471490D01*
X23484760Y19464550D01*
X23484480Y19456900D01*
Y19429080D01*
X23484900Y19423970D01*
X23486180Y19418980D01*
X23488330Y19414220D01*
X23491360Y19409710D01*
X23558860Y19325020D01*
Y19275020D01*
X23506040D01*
Y19315020D01*
X23484480D01*
Y19293140D01*
X23484490Y19291420D01*
X23484900Y19283920D01*
X23485860Y19277130D01*
X23487390Y19271040D01*
X23489480Y19265640D01*
X23491450Y19262030D01*
X23493770Y19258960D01*
X23496300Y19256770D01*
X23499040Y19255460D01*
X23501980Y19255020D01*
X23563540D01*
X23566450Y19255420D01*
X23569230Y19256680D01*
X23571760Y19258800D01*
X23574030Y19261790D01*
X23576040Y19265640D01*
X23577260Y19268740D01*
X23578300Y19272090D01*
X23579650Y19278380D01*
X23580460Y19285400D01*
X23580730Y19293140D01*
Y19321580D01*
X23580620Y19324210D01*
X23580300Y19326770D01*
X23579010Y19331670D01*
X23576860Y19336290D01*
X23573860Y19340650D01*
X23506040Y19425020D01*
Y19475020D01*
X23558860D01*
Y19415020D01*
X23580730D01*
Y19456900D01*
X23580720Y19458240D01*
X23580360Y19465860D01*
X23579460Y19472760D01*
X23578020Y19478940D01*
X23576040Y19484400D01*
X23574110Y19488110D01*
X23571850Y19491130D01*
X23569330Y19493290D01*
X23566570Y19494590D01*
X23563540Y19495020D01*
G37*
G36*
G01X23704790D02*
X23625420D01*
Y19255020D01*
X23705730D01*
Y19275020D01*
X23646980D01*
Y19375020D01*
X23699480D01*
Y19395020D01*
X23646980D01*
Y19475020D01*
X23704790D01*
Y19495020D01*
G37*
G36*
G01X23829480D02*
X23731980D01*
Y19475020D01*
X23770100D01*
Y19255020D01*
X23791670D01*
Y19475020D01*
X23829480D01*
Y19495020D01*
G37*
G36*
G01X23520620Y20695000D02*
X23509840D01*
Y20575000D01*
X23548910D01*
Y20585000D01*
X23520620D01*
Y20695000D01*
G37*
G36*
G01X23572030D02*
X23563130D01*
X23556250Y20670000D01*
Y20665000D01*
X23561090D01*
Y20575000D01*
X23572030D01*
Y20695000D01*
G37*
G36*
G01X23372160Y21232740D02*
X23340600D01*
X23339230Y21232550D01*
X23337860Y21231930D01*
X23336580Y21230870D01*
X23335410Y21229370D01*
X23334350Y21227430D01*
X23333740Y21225880D01*
X23333220Y21224210D01*
X23332540Y21221060D01*
X23332140Y21217550D01*
X23332000Y21213680D01*
Y21131800D01*
X23332010Y21131130D01*
X23332190Y21127320D01*
X23332640Y21123870D01*
X23333360Y21120780D01*
X23334350Y21118050D01*
X23335330Y21116240D01*
X23336490Y21114710D01*
X23337760Y21113620D01*
X23339130Y21112960D01*
X23340600Y21112740D01*
X23372160D01*
X23373520Y21112930D01*
X23374900Y21113550D01*
X23376170Y21114610D01*
X23377340Y21116110D01*
X23378410Y21118050D01*
X23378660Y21118610D01*
X23379640Y21121380D01*
X23380350Y21124500D01*
X23380770Y21127980D01*
X23380910Y21131800D01*
Y21142740D01*
X23369970D01*
Y21122740D01*
X23342780D01*
Y21222740D01*
X23369970D01*
Y21192740D01*
X23380910D01*
Y21213680D01*
X23380900Y21214540D01*
X23380700Y21218290D01*
X23380220Y21221690D01*
X23379460Y21224730D01*
X23378410Y21227430D01*
X23377430Y21229240D01*
X23376260Y21230770D01*
X23375000Y21231860D01*
X23373630Y21232520D01*
X23372160Y21232740D01*
G37*
G36*
G01X23414190D02*
X23405290D01*
X23398410Y21207740D01*
Y21202740D01*
X23403250D01*
Y21112740D01*
X23414190D01*
Y21232740D01*
G37*
G36*
G01X23478100D02*
X23433410D01*
X23432000Y21172740D01*
X23468100D01*
Y21122740D01*
X23442470D01*
Y21142740D01*
X23431690D01*
Y21131800D01*
X23431700Y21131130D01*
X23431880Y21127320D01*
X23432330Y21123870D01*
X23433050Y21120780D01*
X23434040Y21118050D01*
X23435020Y21116240D01*
X23436180Y21114710D01*
X23437450Y21113620D01*
X23438810Y21112960D01*
X23440280Y21112740D01*
X23470290D01*
X23471740Y21112940D01*
X23473130Y21113570D01*
X23474390Y21114630D01*
X23475530Y21116130D01*
X23476530Y21118050D01*
X23476790Y21118610D01*
X23477770Y21121380D01*
X23478470Y21124500D01*
X23478890Y21127980D01*
X23479040Y21131800D01*
Y21162740D01*
X23479020Y21164140D01*
X23478800Y21167930D01*
X23478310Y21171350D01*
X23477550Y21174420D01*
X23476530Y21177110D01*
X23476010Y21178260D01*
X23475460Y21179270D01*
X23474340Y21180790D01*
X23473110Y21181870D01*
X23471760Y21182520D01*
X23470290Y21182740D01*
X23442630D01*
X23444030Y21222740D01*
X23478100D01*
Y21232740D01*
G37*
G36*
G01X23468080Y21462550D02*
X23436520D01*
X23435150Y21462360D01*
X23433780Y21461740D01*
X23432500Y21460680D01*
X23431330Y21459180D01*
X23430270Y21457240D01*
X23429660Y21455690D01*
X23429140Y21454020D01*
X23428460Y21450870D01*
X23428060Y21447360D01*
X23427920Y21443490D01*
Y21361610D01*
X23427930Y21360940D01*
X23428110Y21357130D01*
X23428560Y21353680D01*
X23429280Y21350590D01*
X23430270Y21347860D01*
X23431250Y21346050D01*
X23432410Y21344520D01*
X23433680Y21343430D01*
X23435050Y21342770D01*
X23436520Y21342550D01*
X23468080D01*
X23469440Y21342740D01*
X23470820Y21343360D01*
X23472090Y21344420D01*
X23473260Y21345920D01*
X23474330Y21347860D01*
X23474580Y21348420D01*
X23475560Y21351190D01*
X23476270Y21354310D01*
X23476690Y21357790D01*
X23476830Y21361610D01*
Y21372550D01*
X23465890D01*
Y21352550D01*
X23438700D01*
Y21452550D01*
X23465890D01*
Y21422550D01*
X23476830D01*
Y21443490D01*
X23476820Y21444350D01*
X23476620Y21448100D01*
X23476140Y21451500D01*
X23475380Y21454540D01*
X23474330Y21457240D01*
X23473350Y21459050D01*
X23472180Y21460580D01*
X23470920Y21461670D01*
X23469550Y21462330D01*
X23468080Y21462550D01*
G37*
G36*
G01X23510110D02*
X23501210D01*
X23494330Y21437550D01*
Y21432550D01*
X23499170D01*
Y21342550D01*
X23510110D01*
Y21462550D01*
G37*
G36*
G01X23540110D02*
X23531210D01*
X23524330Y21437550D01*
Y21432550D01*
X23529170D01*
Y21342550D01*
X23540110D01*
Y21462550D01*
G37*
G36*
G01X23975780Y20045000D02*
X23934840D01*
Y19925000D01*
X23945620D01*
Y20035000D01*
X23973590D01*
Y19995000D01*
X23954220D01*
X23952660Y19992810D01*
X23975470Y19925000D01*
X23986880D01*
X23965780Y19985160D01*
X23966460Y19985140D01*
X23967310Y19985110D01*
X23969060Y19985000D01*
X23972500D01*
X23974740Y19985190D01*
X23976760Y19985760D01*
X23978550Y19986710D01*
X23980090Y19988040D01*
X23981400Y19989760D01*
X23982470Y19991850D01*
X23983300Y19994330D01*
X23983900Y19997190D01*
X23984260Y20000440D01*
X23984380Y20004060D01*
Y20025940D01*
X23984370Y20026800D01*
X23984170Y20030550D01*
X23983680Y20033950D01*
X23982920Y20036990D01*
X23981880Y20039690D01*
X23980930Y20041520D01*
X23979820Y20043040D01*
X23978590Y20044130D01*
X23977240Y20044780D01*
X23975780Y20045000D01*
G37*
G36*
G01X24050940D02*
X24006250D01*
X24004840Y19985000D01*
X24040940D01*
Y19935000D01*
X24015310D01*
Y19955000D01*
X24004530D01*
Y19944060D01*
X24004540Y19943390D01*
X24004720Y19939580D01*
X24005170Y19936130D01*
X24005890Y19933040D01*
X24006880Y19930310D01*
X24007860Y19928500D01*
X24009020Y19926970D01*
X24010290Y19925880D01*
X24011650Y19925220D01*
X24013120Y19925000D01*
X24043130D01*
X24044580Y19925200D01*
X24045970Y19925830D01*
X24047230Y19926890D01*
X24048370Y19928390D01*
X24049370Y19930310D01*
X24049630Y19930870D01*
X24050610Y19933640D01*
X24051310Y19936760D01*
X24051730Y19940240D01*
X24051880Y19944060D01*
Y19975000D01*
X24051860Y19976400D01*
X24051640Y19980190D01*
X24051150Y19983610D01*
X24050390Y19986680D01*
X24049370Y19989370D01*
X24048850Y19990520D01*
X24048300Y19991530D01*
X24047180Y19993050D01*
X24045950Y19994130D01*
X24044600Y19994780D01*
X24043130Y19995000D01*
X24015470D01*
X24016870Y20035000D01*
X24050940D01*
Y20045000D01*
G37*
G36*
G01X23675780D02*
X23634840D01*
Y19925000D01*
X23645620D01*
Y20035000D01*
X23673590D01*
Y19995000D01*
X23654220D01*
X23652660Y19992810D01*
X23675470Y19925000D01*
X23686880D01*
X23665780Y19985160D01*
X23666460Y19985140D01*
X23667310Y19985110D01*
X23669060Y19985000D01*
X23672500D01*
X23674740Y19985190D01*
X23676760Y19985760D01*
X23678550Y19986710D01*
X23680090Y19988040D01*
X23681400Y19989760D01*
X23682470Y19991850D01*
X23683300Y19994330D01*
X23683900Y19997190D01*
X23684260Y20000440D01*
X23684380Y20004060D01*
Y20025940D01*
X23684370Y20026800D01*
X23684170Y20030550D01*
X23683680Y20033950D01*
X23682920Y20036990D01*
X23681880Y20039690D01*
X23680930Y20041520D01*
X23679820Y20043040D01*
X23678590Y20044130D01*
X23677240Y20044780D01*
X23675780Y20045000D01*
G37*
G36*
G01X23744220D02*
X23712970D01*
X23711600Y20044810D01*
X23710230Y20044190D01*
X23708960Y20043130D01*
X23707790Y20041630D01*
X23706720Y20039690D01*
X23706110Y20038140D01*
X23705590Y20036470D01*
X23704910Y20033320D01*
X23704510Y20029810D01*
X23704370Y20025940D01*
Y19995000D01*
X23704380Y19994030D01*
X23704570Y19990090D01*
X23705030Y19986520D01*
X23705740Y19983310D01*
X23706720Y19980470D01*
X23707760Y19978510D01*
X23708910Y19976970D01*
X23710170Y19975880D01*
X23711520Y19975220D01*
X23712970Y19975000D01*
X23741880D01*
Y19935000D01*
X23715620D01*
Y19955000D01*
X23704840D01*
Y19944060D01*
X23704850Y19943200D01*
X23705050Y19939450D01*
X23705530Y19936050D01*
X23706300Y19933010D01*
X23707340Y19930310D01*
X23708330Y19928500D01*
X23709490Y19926970D01*
X23710750Y19925880D01*
X23712120Y19925220D01*
X23713590Y19925000D01*
X23744220D01*
X23745670Y19925200D01*
X23747060Y19925830D01*
X23748330Y19926890D01*
X23749460Y19928390D01*
X23750470Y19930310D01*
X23751080Y19931860D01*
X23751600Y19933530D01*
X23752270Y19936680D01*
X23752680Y19940190D01*
X23752810Y19944060D01*
Y20025940D01*
Y20026610D01*
X23752630Y20030420D01*
X23752180Y20033870D01*
X23751460Y20036960D01*
X23750470Y20039690D01*
X23749500Y20041550D01*
X23748370Y20043060D01*
X23747110Y20044140D01*
X23745730Y20044780D01*
X23744220Y20045000D01*
G37*
G36*
G01X23655310Y21543470D02*
X23623750D01*
X23622380Y21543280D01*
X23621010Y21542660D01*
X23619730Y21541600D01*
X23618560Y21540100D01*
X23617500Y21538160D01*
X23616890Y21536610D01*
X23616370Y21534940D01*
X23615690Y21531790D01*
X23615290Y21528280D01*
X23615150Y21524410D01*
Y21442530D01*
X23615160Y21441860D01*
X23615340Y21438050D01*
X23615790Y21434600D01*
X23616510Y21431510D01*
X23617500Y21428780D01*
X23618480Y21426970D01*
X23619640Y21425440D01*
X23620910Y21424350D01*
X23622280Y21423690D01*
X23623750Y21423470D01*
X23655310D01*
X23656670Y21423660D01*
X23658050Y21424280D01*
X23659320Y21425340D01*
X23660490Y21426840D01*
X23661560Y21428780D01*
X23661810Y21429340D01*
X23662790Y21432110D01*
X23663500Y21435230D01*
X23663920Y21438710D01*
X23664060Y21442530D01*
Y21453470D01*
X23653120D01*
Y21433470D01*
X23625930D01*
Y21533470D01*
X23653120D01*
Y21503470D01*
X23664060D01*
Y21524410D01*
X23664050Y21525270D01*
X23663850Y21529020D01*
X23663370Y21532420D01*
X23662610Y21535460D01*
X23661560Y21538160D01*
X23660580Y21539970D01*
X23659410Y21541500D01*
X23658150Y21542590D01*
X23656780Y21543250D01*
X23655310Y21543470D01*
G37*
G36*
G01X23697340D02*
X23688440D01*
X23681560Y21518470D01*
Y21513470D01*
X23686400D01*
Y21423470D01*
X23697340D01*
Y21543470D01*
G37*
G36*
G01X23754690D02*
X23723750D01*
X23722380Y21543280D01*
X23721010Y21542660D01*
X23719730Y21541600D01*
X23718560Y21540100D01*
X23717500Y21538160D01*
X23716890Y21536610D01*
X23716370Y21534940D01*
X23715690Y21531790D01*
X23715290Y21528280D01*
X23715150Y21524410D01*
Y21442530D01*
X23715160Y21441860D01*
X23715340Y21438050D01*
X23715790Y21434600D01*
X23716510Y21431510D01*
X23717500Y21428780D01*
X23718480Y21426970D01*
X23719640Y21425440D01*
X23720910Y21424350D01*
X23722280Y21423690D01*
X23723750Y21423470D01*
X23755000D01*
X23756450Y21423670D01*
X23757840Y21424300D01*
X23759100Y21425360D01*
X23760240Y21426860D01*
X23761250Y21428780D01*
X23761860Y21430330D01*
X23762380Y21432000D01*
X23763050Y21435150D01*
X23763460Y21438660D01*
X23763590Y21442530D01*
Y21474410D01*
Y21475080D01*
X23763410Y21478890D01*
X23762960Y21482340D01*
X23762240Y21485430D01*
X23761250Y21488160D01*
X23760280Y21490020D01*
X23759150Y21491530D01*
X23757890Y21492610D01*
X23756510Y21493250D01*
X23755000Y21493470D01*
X23725930D01*
Y21533470D01*
X23752340D01*
Y21513470D01*
X23763280D01*
Y21524410D01*
X23763270Y21525080D01*
X23763090Y21528890D01*
X23762640Y21532340D01*
X23761930Y21535430D01*
X23760940Y21538160D01*
X23759970Y21540020D01*
X23758840Y21541530D01*
X23757580Y21542610D01*
X23756200Y21543250D01*
X23754690Y21543470D01*
G37*
G36*
G01X23645250Y21851490D02*
X23630670D01*
X23608590Y21771700D01*
X23586090Y21851490D01*
X23571500D01*
Y21850660D01*
X23591290Y21785870D01*
X23591480Y21785250D01*
X23591840Y21784170D01*
X23592420Y21782430D01*
X23593190Y21780130D01*
X23594170Y21777260D01*
X23595340Y21773820D01*
X23596710Y21769820D01*
X23597720Y21766680D01*
X23599650Y21759850D01*
X23601090Y21753370D01*
Y21691490D01*
X23615670D01*
Y21753370D01*
X23616850Y21757760D01*
X23618540Y21763890D01*
X23620130Y21769420D01*
X23621620Y21774370D01*
X23623000Y21778720D01*
X23624280Y21782490D01*
X23625460Y21785660D01*
X23645250Y21850450D01*
Y21851490D01*
G37*
G36*
G01X23708590D02*
X23669420D01*
X23667500Y21851230D01*
X23665610Y21850400D01*
X23663880Y21848980D01*
X23662300Y21846980D01*
X23660880Y21844410D01*
X23660060Y21842340D01*
X23659370Y21840110D01*
X23658470Y21835910D01*
X23657930Y21831230D01*
X23657750Y21826070D01*
Y21798160D01*
X23672330D01*
Y21838160D01*
X23705670D01*
Y21801910D01*
X23655670Y21698160D01*
Y21691490D01*
X23720460D01*
Y21704820D01*
X23673170D01*
X23716290Y21794620D01*
X23717760Y21797820D01*
X23719150Y21801710D01*
X23719980Y21805360D01*
X23720250Y21808780D01*
Y21826070D01*
X23720240Y21827220D01*
X23719970Y21832220D01*
X23719330Y21836750D01*
X23718310Y21840810D01*
X23716920Y21844410D01*
X23715630Y21846890D01*
X23714120Y21848900D01*
X23712450Y21850340D01*
X23710600Y21851200D01*
X23708590Y21851490D01*
G37*
G36*
G01X23927020Y22397260D02*
X23895460D01*
X23894090Y22397070D01*
X23892720Y22396450D01*
X23891440Y22395390D01*
X23890270Y22393890D01*
X23889210Y22391950D01*
X23888600Y22390400D01*
X23888080Y22388730D01*
X23887400Y22385580D01*
X23887000Y22382070D01*
X23886860Y22378200D01*
Y22296320D01*
X23886870Y22295650D01*
X23887050Y22291840D01*
X23887500Y22288390D01*
X23888220Y22285300D01*
X23889210Y22282570D01*
X23890190Y22280760D01*
X23891350Y22279230D01*
X23892620Y22278140D01*
X23893990Y22277480D01*
X23895460Y22277260D01*
X23927020D01*
X23928380Y22277450D01*
X23929760Y22278070D01*
X23931030Y22279130D01*
X23932200Y22280630D01*
X23933270Y22282570D01*
X23933520Y22283130D01*
X23934500Y22285900D01*
X23935210Y22289020D01*
X23935630Y22292500D01*
X23935770Y22296320D01*
Y22307260D01*
X23924830D01*
Y22287260D01*
X23897640D01*
Y22387260D01*
X23924830D01*
Y22357260D01*
X23935770D01*
Y22378200D01*
X23935760Y22379060D01*
X23935560Y22382810D01*
X23935080Y22386210D01*
X23934320Y22389250D01*
X23933270Y22391950D01*
X23932290Y22393760D01*
X23931120Y22395290D01*
X23929860Y22396380D01*
X23928490Y22397040D01*
X23927020Y22397260D01*
G37*
G36*
G01X23969050D02*
X23960150D01*
X23953270Y22372260D01*
Y22367260D01*
X23958110D01*
Y22277260D01*
X23969050D01*
Y22397260D01*
G37*
G36*
G01X24020300D02*
X24009990D01*
X23980460Y22312730D01*
Y22307260D01*
X24014990D01*
Y22277260D01*
X24025150D01*
Y22307260D01*
X24034520D01*
Y22317260D01*
X24025150D01*
Y22357260D01*
X24014990D01*
Y22317260D01*
X23992180D01*
X24020300Y22396790D01*
Y22397260D01*
G37*
G36*
G01X23563650Y24220850D02*
Y24194600D01*
X23643650D01*
Y24201790D01*
X23603650D01*
Y24219290D01*
X23596980D01*
Y24201790D01*
X23570320D01*
Y24220850D01*
X23563650D01*
G37*
G36*
G01Y24254390D02*
Y24227930D01*
X23643650D01*
Y24254700D01*
X23636980D01*
Y24235120D01*
X23603650D01*
Y24252620D01*
X23596980D01*
Y24235120D01*
X23570320D01*
Y24254390D01*
X23563650D01*
G37*
G36*
G01Y24294390D02*
Y24267930D01*
X23643650D01*
Y24294700D01*
X23636980D01*
Y24275120D01*
X23603650D01*
Y24292620D01*
X23596980D01*
Y24275120D01*
X23570320D01*
Y24294390D01*
X23563650D01*
G37*
G36*
G01Y24326580D02*
Y24307930D01*
X23643650D01*
Y24326580D01*
X23643610Y24327890D01*
X23643330Y24330050D01*
X23642780Y24332060D01*
X23641980Y24333920D01*
X23640910Y24335640D01*
X23639590Y24337200D01*
X23638580Y24338170D01*
X23636980Y24339360D01*
X23635240Y24340280D01*
X23633360Y24340950D01*
X23631340Y24341340D01*
X23629170Y24341470D01*
X23578130D01*
X23576630Y24341410D01*
X23574560Y24341100D01*
X23572640Y24340520D01*
X23570850Y24339680D01*
X23569210Y24338570D01*
X23567710Y24337200D01*
X23566920Y24336320D01*
X23565740Y24334660D01*
X23564830Y24332860D01*
X23564170Y24330920D01*
X23563780Y24328820D01*
X23563650Y24326580D01*
G37*
G36*
G01X23761370Y24971540D02*
X23655540D01*
Y24651540D01*
X23762620D01*
Y24678210D01*
X23684290D01*
Y24811540D01*
X23754290D01*
Y24838210D01*
X23684290D01*
Y24944870D01*
X23761370D01*
Y24971540D01*
G37*
G36*
G01X23922620D02*
X23838460D01*
X23834820Y24971040D01*
X23831150Y24969380D01*
X23827750Y24966540D01*
X23824630Y24962540D01*
X23821790Y24957370D01*
X23820160Y24953240D01*
X23818780Y24948790D01*
X23816980Y24940390D01*
X23815900Y24931030D01*
X23815540Y24920710D01*
Y24702370D01*
X23815550Y24700590D01*
X23816030Y24690430D01*
X23817230Y24681230D01*
X23819150Y24672990D01*
X23821790Y24665710D01*
X23824410Y24660880D01*
X23827510Y24656800D01*
X23830880Y24653880D01*
X23834530Y24652120D01*
X23838460Y24651540D01*
X23922620D01*
X23926260Y24652040D01*
X23929930Y24653700D01*
X23933330Y24656540D01*
X23936450Y24660540D01*
X23939290Y24665710D01*
X23939960Y24667190D01*
X23942580Y24674580D01*
X23944460Y24682910D01*
X23945580Y24692170D01*
X23945960Y24702370D01*
Y24731540D01*
X23916790D01*
Y24678210D01*
X23844290D01*
Y24944870D01*
X23916790D01*
Y24864870D01*
X23945960D01*
Y24920710D01*
X23945940Y24923000D01*
X23945400Y24933000D01*
X23944110Y24942060D01*
X23942080Y24950190D01*
X23939290Y24957370D01*
X23936670Y24962200D01*
X23933570Y24966280D01*
X23930200Y24969200D01*
X23926550Y24970960D01*
X23922620Y24971540D01*
G37*
G36*
G01X24138460D02*
X24109710D01*
Y24838210D01*
X24030960D01*
Y24971540D01*
X24002210D01*
Y24651540D01*
X24030960D01*
Y24811540D01*
X24109710D01*
Y24651540D01*
X24138460D01*
Y24971540D01*
G37*
G36*
G01X24303050D02*
X24211800D01*
X24208160Y24971040D01*
X24204490Y24969380D01*
X24201090Y24966540D01*
X24197970Y24962540D01*
X24195130Y24957370D01*
X24193500Y24953240D01*
X24192120Y24948790D01*
X24190320Y24940390D01*
X24189240Y24931030D01*
X24188880Y24920710D01*
Y24702370D01*
X24188890Y24700590D01*
X24189370Y24690430D01*
X24190570Y24681230D01*
X24192490Y24672990D01*
X24195130Y24665710D01*
X24197750Y24660880D01*
X24200850Y24656800D01*
X24204220Y24653880D01*
X24207870Y24652120D01*
X24211800Y24651540D01*
X24303050D01*
X24306930Y24652070D01*
X24310630Y24653750D01*
X24314000Y24656590D01*
X24317020Y24660570D01*
X24319710Y24665710D01*
X24320380Y24667190D01*
X24323010Y24674580D01*
X24324880Y24682910D01*
X24326010Y24692170D01*
X24326380Y24702370D01*
Y24920710D01*
X24326360Y24923000D01*
X24325820Y24933000D01*
X24324540Y24942060D01*
X24322500Y24950190D01*
X24319710Y24957370D01*
X24317140Y24962330D01*
X24314120Y24966360D01*
X24310770Y24969240D01*
X24307080Y24970960D01*
X24303050Y24971540D01*
G37*
G36*
G01X24404300D02*
X24375550D01*
Y24651540D01*
X24479720D01*
Y24678210D01*
X24404300D01*
Y24971540D01*
G37*
G36*
G01X24539300D02*
X24510550D01*
Y24651540D01*
X24539300D01*
Y24971540D01*
G37*
G36*
G01X24697630D02*
X24611800D01*
X24608160Y24971040D01*
X24604490Y24969380D01*
X24601090Y24966540D01*
X24597970Y24962540D01*
X24595130Y24957370D01*
X24593500Y24953240D01*
X24592120Y24948790D01*
X24590320Y24940390D01*
X24589240Y24931030D01*
X24588880Y24920710D01*
Y24702370D01*
X24588890Y24700590D01*
X24589370Y24690430D01*
X24590570Y24681230D01*
X24592490Y24672990D01*
X24595130Y24665710D01*
X24597750Y24660880D01*
X24600850Y24656800D01*
X24604220Y24653880D01*
X24607870Y24652120D01*
X24611800Y24651540D01*
X24697630D01*
X24701310Y24652050D01*
X24704910Y24653730D01*
X24708210Y24656560D01*
X24711200Y24660550D01*
X24713880Y24665710D01*
X24714550Y24667190D01*
X24717170Y24674580D01*
X24719050Y24682910D01*
X24720170Y24692170D01*
X24720550Y24702370D01*
Y24811540D01*
X24656800D01*
Y24784870D01*
X24691380D01*
Y24678210D01*
X24617630D01*
Y24944870D01*
X24691380D01*
Y24864870D01*
X24720550D01*
Y24920710D01*
X24720530Y24923000D01*
X24719990Y24933000D01*
X24718700Y24942060D01*
X24716670Y24950190D01*
X24713880Y24957370D01*
X24711360Y24962260D01*
X24708390Y24966320D01*
X24705110Y24969220D01*
X24701520Y24970960D01*
X24697630Y24971540D01*
G37*
G36*
G01X24911800D02*
X24883050D01*
Y24838210D01*
X24804300D01*
Y24971540D01*
X24775550D01*
Y24651540D01*
X24804300D01*
Y24811540D01*
X24883050D01*
Y24651540D01*
X24911800D01*
Y24971540D01*
G37*
G36*
G01X25074300D02*
X24944300D01*
Y24944870D01*
X24995140D01*
Y24651540D01*
X25023890D01*
Y24944870D01*
X25074300D01*
Y24971540D01*
G37*
G36*
G01X24267920Y16545000D02*
X24253540D01*
Y16398330D01*
X24221460D01*
Y16438330D01*
X24206880D01*
Y16410420D01*
Y16409520D01*
X24207120Y16404440D01*
X24207720Y16399840D01*
X24208680Y16395720D01*
X24210000Y16392080D01*
X24211340Y16389640D01*
X24212910Y16387610D01*
X24214630Y16386160D01*
X24216510Y16385290D01*
X24218540Y16385000D01*
X24256460D01*
X24258300Y16385260D01*
X24260100Y16386090D01*
X24261750Y16387510D01*
X24263240Y16389510D01*
X24264580Y16392080D01*
X24264920Y16392820D01*
X24266230Y16396520D01*
X24267170Y16400680D01*
X24267730Y16405320D01*
X24267920Y16410420D01*
Y16545000D01*
G37*
G36*
G01X24306870D02*
X24295000D01*
X24285830Y16511670D01*
Y16505000D01*
X24292290D01*
Y16385000D01*
X24306870D01*
Y16545000D01*
G37*
G36*
G01X24155630Y17310000D02*
X24141250D01*
Y17163330D01*
X24102500D01*
Y17310000D01*
X24088130D01*
Y17175420D01*
Y17174520D01*
X24088370Y17169440D01*
X24088970Y17164840D01*
X24089930Y17160720D01*
X24091250Y17157080D01*
X24092560Y17154670D01*
X24094110Y17152630D01*
X24095800Y17151170D01*
X24097620Y17150290D01*
X24099580Y17150000D01*
X24143960D01*
X24145900Y17150270D01*
X24147750Y17151110D01*
X24149430Y17152520D01*
X24150950Y17154520D01*
X24152290Y17157080D01*
X24152630Y17157820D01*
X24153940Y17161520D01*
X24154880Y17165680D01*
X24155440Y17170320D01*
X24155630Y17175420D01*
Y17310000D01*
G37*
G36*
G01X24197700D02*
X24185830D01*
X24176660Y17276670D01*
Y17270000D01*
X24183120D01*
Y17150000D01*
X24197700D01*
Y17310000D01*
G37*
G36*
G01X24175000Y17645000D02*
X24143440D01*
X24142070Y17644810D01*
X24140700Y17644190D01*
X24139420Y17643130D01*
X24138250Y17641630D01*
X24137190Y17639690D01*
X24136580Y17638140D01*
X24136060Y17636470D01*
X24135380Y17633320D01*
X24134980Y17629810D01*
X24134840Y17625940D01*
Y17544060D01*
X24134850Y17543390D01*
X24135030Y17539580D01*
X24135480Y17536130D01*
X24136200Y17533040D01*
X24137190Y17530310D01*
X24138170Y17528500D01*
X24139330Y17526970D01*
X24140600Y17525880D01*
X24141970Y17525220D01*
X24143440Y17525000D01*
X24175000D01*
X24176360Y17525190D01*
X24177740Y17525810D01*
X24179010Y17526870D01*
X24180180Y17528370D01*
X24181250Y17530310D01*
X24181500Y17530870D01*
X24182480Y17533640D01*
X24183190Y17536760D01*
X24183610Y17540240D01*
X24183750Y17544060D01*
Y17555000D01*
X24172810D01*
Y17535000D01*
X24145620D01*
Y17635000D01*
X24172810D01*
Y17605000D01*
X24183750D01*
Y17625940D01*
X24183740Y17626800D01*
X24183540Y17630550D01*
X24183060Y17633950D01*
X24182300Y17636990D01*
X24181250Y17639690D01*
X24180270Y17641500D01*
X24179100Y17643030D01*
X24177840Y17644120D01*
X24176470Y17644780D01*
X24175000Y17645000D01*
G37*
G36*
G01X24244840D02*
X24213590D01*
X24212230Y17644810D01*
X24210850Y17644190D01*
X24209580Y17643130D01*
X24208410Y17641630D01*
X24207340Y17639690D01*
X24206730Y17638140D01*
X24206220Y17636470D01*
X24205540Y17633320D01*
X24205140Y17629810D01*
X24205000Y17625940D01*
Y17605000D01*
X24215780D01*
Y17635000D01*
X24242500D01*
Y17607030D01*
X24221090Y17591090D01*
Y17588750D01*
X24242660Y17572500D01*
Y17535000D01*
X24215620D01*
Y17565000D01*
X24204840D01*
Y17544060D01*
X24204850Y17543390D01*
X24205030Y17539580D01*
X24205480Y17536130D01*
X24206200Y17533040D01*
X24207190Y17530310D01*
X24208170Y17528500D01*
X24209330Y17526970D01*
X24210600Y17525880D01*
X24211970Y17525220D01*
X24213440Y17525000D01*
X24245000D01*
X24246380Y17525190D01*
X24247730Y17525820D01*
X24248970Y17526880D01*
X24250090Y17528380D01*
X24251090Y17530310D01*
X24251340Y17530870D01*
X24252330Y17533640D01*
X24253030Y17536760D01*
X24253450Y17540240D01*
X24253590Y17544060D01*
Y17570470D01*
X24253430Y17572670D01*
X24252880Y17574810D01*
X24251940Y17576720D01*
X24250620Y17578400D01*
X24248910Y17579840D01*
X24234220Y17590000D01*
X24248750Y17600310D01*
X24250260Y17601550D01*
X24251650Y17603190D01*
X24252640Y17605040D01*
X24253240Y17607100D01*
X24253440Y17609380D01*
Y17625940D01*
X24253430Y17626800D01*
X24253230Y17630550D01*
X24252750Y17633950D01*
X24251980Y17636990D01*
X24250940Y17639690D01*
X24249990Y17641520D01*
X24248880Y17643040D01*
X24247650Y17644130D01*
X24246300Y17644780D01*
X24244840Y17645000D01*
G37*
G36*
G01X24195940Y19190000D02*
X24174380D01*
Y18970000D01*
X24116250D01*
Y19190000D01*
X24094690D01*
Y18988120D01*
Y18986790D01*
X24095050Y18979160D01*
X24095950Y18972270D01*
X24097390Y18966090D01*
X24099370Y18960620D01*
X24101340Y18957010D01*
X24103670Y18953940D01*
X24106200Y18951750D01*
X24108930Y18950440D01*
X24111880Y18950000D01*
X24178440D01*
X24181350Y18950400D01*
X24184130Y18951660D01*
X24186650Y18953780D01*
X24188920Y18956770D01*
X24190940Y18960620D01*
X24191440Y18961740D01*
X24193410Y18967280D01*
X24194810Y18973530D01*
X24195660Y18980470D01*
X24195940Y18988120D01*
Y19190000D01*
G37*
G36*
G01X24326870D02*
X24237500D01*
X24234690Y19070000D01*
X24306870D01*
Y18970000D01*
X24255630D01*
Y19010000D01*
X24234060D01*
Y18988120D01*
X24234070Y18986790D01*
X24234430Y18979160D01*
X24235330Y18972270D01*
X24236770Y18966090D01*
X24238750Y18960620D01*
X24240720Y18957010D01*
X24243040Y18953940D01*
X24245570Y18951750D01*
X24248310Y18950440D01*
X24251250Y18950000D01*
X24311250D01*
X24314160Y18950400D01*
X24316940Y18951660D01*
X24319460Y18953780D01*
X24321730Y18956770D01*
X24323750Y18960620D01*
X24324250Y18961740D01*
X24326220Y18967280D01*
X24327630Y18973530D01*
X24328470Y18980470D01*
X24328750Y18988120D01*
Y19050000D01*
X24328720Y19052800D01*
X24328270Y19060380D01*
X24327290Y19067230D01*
X24325790Y19073350D01*
X24323750Y19078750D01*
X24322710Y19081040D01*
X24321590Y19083060D01*
X24319370Y19086100D01*
X24316900Y19088270D01*
X24314200Y19089570D01*
X24311250Y19090000D01*
X24255940D01*
X24258750Y19170000D01*
X24326870D01*
Y19190000D01*
G37*
G36*
G01X24103990Y19649380D02*
X24089620D01*
Y19489380D01*
X24141700D01*
Y19502710D01*
X24103990D01*
Y19649380D01*
G37*
G36*
G01X24209200D02*
X24156290D01*
Y19489380D01*
X24209830D01*
Y19502710D01*
X24170660D01*
Y19569380D01*
X24205660D01*
Y19582710D01*
X24170660D01*
Y19636050D01*
X24209200D01*
Y19649380D01*
G37*
G36*
G01X24273580D02*
X24236290D01*
Y19489380D01*
X24273580D01*
X24276200Y19489470D01*
X24280510Y19490030D01*
X24284530Y19491110D01*
X24288260Y19492720D01*
X24291690Y19494850D01*
X24294830Y19497510D01*
X24296760Y19499530D01*
X24299140Y19502720D01*
X24300990Y19506200D01*
X24302310Y19509960D01*
X24303100Y19514010D01*
X24303370Y19518340D01*
Y19620420D01*
X24303240Y19623420D01*
X24302620Y19627550D01*
X24301460Y19631400D01*
X24299780Y19634970D01*
X24297570Y19638250D01*
X24294830Y19641260D01*
X24293060Y19642850D01*
X24289750Y19645200D01*
X24286150Y19647030D01*
X24282250Y19648330D01*
X24278060Y19649120D01*
X24273580Y19649380D01*
G37*
G36*
G01X24345860D02*
X24333990D01*
X24324820Y19616050D01*
Y19609380D01*
X24331280D01*
Y19489380D01*
X24345860D01*
Y19649380D01*
G37*
G36*
G01X24275780Y20045000D02*
X24234840D01*
Y19925000D01*
X24245620D01*
Y20035000D01*
X24273590D01*
Y19995000D01*
X24254220D01*
X24252660Y19992810D01*
X24275470Y19925000D01*
X24286880D01*
X24265780Y19985160D01*
X24266460Y19985140D01*
X24267310Y19985110D01*
X24269060Y19985000D01*
X24272500D01*
X24274740Y19985190D01*
X24276760Y19985760D01*
X24278550Y19986710D01*
X24280090Y19988040D01*
X24281400Y19989760D01*
X24282470Y19991850D01*
X24283300Y19994330D01*
X24283900Y19997190D01*
X24284260Y20000440D01*
X24284380Y20004060D01*
Y20025940D01*
X24284370Y20026800D01*
X24284170Y20030550D01*
X24283680Y20033950D01*
X24282920Y20036990D01*
X24281880Y20039690D01*
X24280930Y20041520D01*
X24279820Y20043040D01*
X24278590Y20044130D01*
X24277240Y20044780D01*
X24275780Y20045000D01*
G37*
G36*
G01X24344840D02*
X24313590D01*
X24312230Y20044810D01*
X24310850Y20044190D01*
X24309580Y20043130D01*
X24308410Y20041630D01*
X24307340Y20039690D01*
X24306730Y20038140D01*
X24306220Y20036470D01*
X24305540Y20033320D01*
X24305140Y20029810D01*
X24305000Y20025940D01*
Y20005000D01*
X24315780D01*
Y20035000D01*
X24342500D01*
Y20007030D01*
X24321090Y19991090D01*
Y19988750D01*
X24342660Y19972500D01*
Y19935000D01*
X24315620D01*
Y19965000D01*
X24304840D01*
Y19944060D01*
X24304850Y19943390D01*
X24305030Y19939580D01*
X24305480Y19936130D01*
X24306200Y19933040D01*
X24307190Y19930310D01*
X24308170Y19928500D01*
X24309330Y19926970D01*
X24310600Y19925880D01*
X24311970Y19925220D01*
X24313440Y19925000D01*
X24345000D01*
X24346380Y19925190D01*
X24347730Y19925820D01*
X24348970Y19926880D01*
X24350090Y19928380D01*
X24351090Y19930310D01*
X24351340Y19930870D01*
X24352330Y19933640D01*
X24353030Y19936760D01*
X24353450Y19940240D01*
X24353590Y19944060D01*
Y19970470D01*
X24353430Y19972670D01*
X24352880Y19974810D01*
X24351940Y19976720D01*
X24350620Y19978400D01*
X24348910Y19979840D01*
X24334220Y19990000D01*
X24348750Y20000310D01*
X24350260Y20001550D01*
X24351650Y20003190D01*
X24352640Y20005040D01*
X24353240Y20007100D01*
X24353440Y20009380D01*
Y20025940D01*
X24353430Y20026800D01*
X24353230Y20030550D01*
X24352750Y20033950D01*
X24351980Y20036990D01*
X24350940Y20039690D01*
X24349990Y20041520D01*
X24348880Y20043040D01*
X24347650Y20044130D01*
X24346300Y20044780D01*
X24344840Y20045000D01*
G37*
G36*
G01X24353540Y20680400D02*
X24339160D01*
Y20533730D01*
X24300410D01*
Y20680400D01*
X24286040D01*
Y20545820D01*
Y20544920D01*
X24286280Y20539840D01*
X24286880Y20535240D01*
X24287840Y20531120D01*
X24289160Y20527480D01*
X24290470Y20525070D01*
X24292020Y20523030D01*
X24293710Y20521570D01*
X24295530Y20520690D01*
X24297490Y20520400D01*
X24341870D01*
X24343810Y20520670D01*
X24345660Y20521510D01*
X24347340Y20522920D01*
X24348860Y20524920D01*
X24350200Y20527480D01*
X24350540Y20528220D01*
X24351850Y20531920D01*
X24352790Y20536080D01*
X24353350Y20540720D01*
X24353540Y20545820D01*
Y20680400D01*
G37*
G36*
G01X24432700D02*
X24391030D01*
X24389210Y20680150D01*
X24387380Y20679320D01*
X24385680Y20677900D01*
X24384120Y20675900D01*
X24382700Y20673320D01*
X24381880Y20671250D01*
X24381190Y20669020D01*
X24380290Y20664820D01*
X24379750Y20660140D01*
X24379570Y20654980D01*
Y20627070D01*
X24393950D01*
Y20667070D01*
X24429570D01*
Y20629780D01*
X24401030Y20608530D01*
Y20605400D01*
X24429780Y20583730D01*
Y20533730D01*
X24393740D01*
Y20573730D01*
X24379370D01*
Y20545820D01*
Y20544920D01*
X24379610Y20539840D01*
X24380210Y20535240D01*
X24381170Y20531120D01*
X24382490Y20527480D01*
X24383800Y20525070D01*
X24385350Y20523030D01*
X24387040Y20521570D01*
X24388860Y20520690D01*
X24390820Y20520400D01*
X24432910D01*
X24434740Y20520660D01*
X24436550Y20521490D01*
X24438200Y20522910D01*
X24439690Y20524910D01*
X24441030Y20527480D01*
X24441370Y20528220D01*
X24442680Y20531920D01*
X24443620Y20536080D01*
X24444180Y20540720D01*
X24444360Y20545820D01*
Y20581030D01*
X24444140Y20583950D01*
X24443410Y20586810D01*
X24442160Y20589360D01*
X24440390Y20591600D01*
X24438120Y20593530D01*
X24418530Y20607070D01*
X24437910Y20620820D01*
X24439920Y20622470D01*
X24441770Y20624650D01*
X24443100Y20627120D01*
X24443890Y20629870D01*
X24444160Y20632900D01*
Y20654980D01*
X24444150Y20656130D01*
X24443880Y20661130D01*
X24443240Y20665660D01*
X24442220Y20669720D01*
X24440820Y20673320D01*
X24439560Y20675760D01*
X24438080Y20677790D01*
X24436440Y20679240D01*
X24434640Y20680110D01*
X24432700Y20680400D01*
G37*
G36*
G01X24350000Y21545000D02*
X24318440D01*
X24317070Y21544810D01*
X24315700Y21544190D01*
X24314420Y21543130D01*
X24313250Y21541630D01*
X24312190Y21539690D01*
X24311580Y21538140D01*
X24311060Y21536470D01*
X24310380Y21533320D01*
X24309980Y21529810D01*
X24309840Y21525940D01*
Y21444060D01*
X24309850Y21443390D01*
X24310030Y21439580D01*
X24310480Y21436130D01*
X24311200Y21433040D01*
X24312190Y21430310D01*
X24313170Y21428500D01*
X24314330Y21426970D01*
X24315600Y21425880D01*
X24316970Y21425220D01*
X24318440Y21425000D01*
X24350000D01*
X24351360Y21425190D01*
X24352740Y21425810D01*
X24354010Y21426870D01*
X24355180Y21428370D01*
X24356250Y21430310D01*
X24356500Y21430870D01*
X24357480Y21433640D01*
X24358190Y21436760D01*
X24358610Y21440240D01*
X24358750Y21444060D01*
Y21455000D01*
X24347810D01*
Y21435000D01*
X24320620D01*
Y21535000D01*
X24347810D01*
Y21505000D01*
X24358750D01*
Y21525940D01*
X24358740Y21526800D01*
X24358540Y21530550D01*
X24358060Y21533950D01*
X24357300Y21536990D01*
X24356250Y21539690D01*
X24355270Y21541500D01*
X24354100Y21543030D01*
X24352840Y21544120D01*
X24351470Y21544780D01*
X24350000Y21545000D01*
G37*
G36*
G01X24392030D02*
X24383130D01*
X24376250Y21520000D01*
Y21515000D01*
X24381090D01*
Y21425000D01*
X24392030D01*
Y21545000D01*
G37*
G36*
G01X24454060D02*
X24405630D01*
Y21515000D01*
X24416560D01*
Y21535000D01*
X24442660D01*
X24417190Y21425000D01*
X24427810D01*
X24454060Y21539380D01*
Y21545000D01*
G37*
G36*
G01X24044180Y23005180D02*
X24033400D01*
Y22885180D01*
X24072470D01*
Y22895180D01*
X24044180D01*
Y23005180D01*
G37*
G36*
G01X24122940D02*
X24092000D01*
X24090630Y23004990D01*
X24089260Y23004370D01*
X24087980Y23003310D01*
X24086810Y23001810D01*
X24085750Y22999870D01*
X24085140Y22998320D01*
X24084620Y22996650D01*
X24083940Y22993500D01*
X24083540Y22989990D01*
X24083400Y22986120D01*
Y22904240D01*
X24083410Y22903570D01*
X24083590Y22899760D01*
X24084040Y22896310D01*
X24084760Y22893220D01*
X24085750Y22890490D01*
X24086730Y22888680D01*
X24087890Y22887150D01*
X24089160Y22886060D01*
X24090530Y22885400D01*
X24092000Y22885180D01*
X24123250D01*
X24124700Y22885380D01*
X24126090Y22886010D01*
X24127350Y22887070D01*
X24128490Y22888570D01*
X24129500Y22890490D01*
X24130110Y22892040D01*
X24130630Y22893710D01*
X24131300Y22896860D01*
X24131710Y22900370D01*
X24131840Y22904240D01*
Y22936120D01*
Y22936790D01*
X24131660Y22940600D01*
X24131210Y22944050D01*
X24130490Y22947140D01*
X24129500Y22949870D01*
X24128530Y22951730D01*
X24127400Y22953240D01*
X24126140Y22954320D01*
X24124760Y22954960D01*
X24123250Y22955180D01*
X24094180D01*
Y22995180D01*
X24120590D01*
Y22975180D01*
X24131530D01*
Y22986120D01*
X24131520Y22986790D01*
X24131340Y22990600D01*
X24130890Y22994050D01*
X24130180Y22997140D01*
X24129190Y22999870D01*
X24128220Y23001730D01*
X24127090Y23003240D01*
X24125830Y23004320D01*
X24124450Y23004960D01*
X24122940Y23005180D01*
G37*
G36*
G01X24550780Y18695000D02*
X24509840D01*
Y18575000D01*
X24520620D01*
Y18685000D01*
X24548590D01*
Y18645000D01*
X24529220D01*
X24527660Y18642810D01*
X24550470Y18575000D01*
X24561880D01*
X24540780Y18635160D01*
X24541460Y18635140D01*
X24542310Y18635110D01*
X24544060Y18635000D01*
X24547500D01*
X24549740Y18635190D01*
X24551760Y18635760D01*
X24553550Y18636710D01*
X24555090Y18638040D01*
X24556400Y18639760D01*
X24557470Y18641850D01*
X24558300Y18644330D01*
X24558900Y18647190D01*
X24559260Y18650440D01*
X24559380Y18654060D01*
Y18675940D01*
X24559370Y18676800D01*
X24559170Y18680550D01*
X24558680Y18683950D01*
X24557920Y18686990D01*
X24556880Y18689690D01*
X24555930Y18691520D01*
X24554820Y18693040D01*
X24553590Y18694130D01*
X24552240Y18694780D01*
X24550780Y18695000D01*
G37*
G36*
G01X24616410D02*
X24587030D01*
X24585590Y18694810D01*
X24584180Y18694180D01*
X24582880Y18693120D01*
X24581690Y18691620D01*
X24580620Y18689690D01*
X24580010Y18688140D01*
X24579500Y18686470D01*
X24578820Y18683320D01*
X24578420Y18679810D01*
X24578280Y18675940D01*
Y18655000D01*
X24589220D01*
Y18685000D01*
X24614220D01*
Y18657810D01*
X24576720Y18580000D01*
Y18575000D01*
X24625310D01*
Y18585000D01*
X24589840D01*
X24622190Y18652340D01*
X24623290Y18654750D01*
X24624330Y18657660D01*
X24624950Y18660400D01*
X24625160Y18662970D01*
Y18675940D01*
X24625150Y18676800D01*
X24624950Y18680550D01*
X24624470Y18683950D01*
X24623700Y18686990D01*
X24622660Y18689690D01*
X24621690Y18691550D01*
X24620560Y18693060D01*
X24619300Y18694140D01*
X24617920Y18694780D01*
X24616410Y18695000D01*
G37*
G36*
G01X24505630Y18410000D02*
X24491250D01*
Y18263330D01*
X24452500D01*
Y18410000D01*
X24438130D01*
Y18275420D01*
Y18274520D01*
X24438370Y18269440D01*
X24438970Y18264840D01*
X24439930Y18260720D01*
X24441250Y18257080D01*
X24442560Y18254670D01*
X24444110Y18252630D01*
X24445800Y18251170D01*
X24447620Y18250290D01*
X24449580Y18250000D01*
X24493960D01*
X24495900Y18250270D01*
X24497750Y18251110D01*
X24499430Y18252520D01*
X24500950Y18254520D01*
X24502290Y18257080D01*
X24502630Y18257820D01*
X24503940Y18261520D01*
X24504880Y18265680D01*
X24505440Y18270320D01*
X24505630Y18275420D01*
Y18410000D01*
G37*
G36*
G01X24580210D02*
X24541040D01*
X24539120Y18409740D01*
X24537230Y18408910D01*
X24535500Y18407490D01*
X24533920Y18405490D01*
X24532500Y18402920D01*
X24531680Y18400850D01*
X24530990Y18398620D01*
X24530090Y18394420D01*
X24529550Y18389740D01*
X24529370Y18384580D01*
Y18356670D01*
X24543950D01*
Y18396670D01*
X24577290D01*
Y18360420D01*
X24527290Y18256670D01*
Y18250000D01*
X24592080D01*
Y18263330D01*
X24544790D01*
X24587910Y18353130D01*
X24589380Y18356330D01*
X24590770Y18360220D01*
X24591600Y18363870D01*
X24591870Y18367290D01*
Y18384580D01*
X24591860Y18385730D01*
X24591590Y18390730D01*
X24590950Y18395260D01*
X24589930Y18399320D01*
X24588540Y18402920D01*
X24587250Y18405400D01*
X24585740Y18407410D01*
X24584070Y18408850D01*
X24582220Y18409710D01*
X24580210Y18410000D01*
G37*
G36*
G01X24600780Y19020000D02*
X24559840D01*
Y18900000D01*
X24570620D01*
Y19010000D01*
X24598590D01*
Y18970000D01*
X24579220D01*
X24577660Y18967810D01*
X24600470Y18900000D01*
X24611880D01*
X24590780Y18960160D01*
X24591460Y18960140D01*
X24592310Y18960110D01*
X24594060Y18960000D01*
X24597500D01*
X24599740Y18960190D01*
X24601760Y18960760D01*
X24603550Y18961710D01*
X24605090Y18963040D01*
X24606400Y18964760D01*
X24607470Y18966850D01*
X24608300Y18969330D01*
X24608900Y18972190D01*
X24609260Y18975440D01*
X24609380Y18979060D01*
Y19000940D01*
X24609370Y19001800D01*
X24609170Y19005550D01*
X24608680Y19008950D01*
X24607920Y19011990D01*
X24606880Y19014690D01*
X24605930Y19016520D01*
X24604820Y19018040D01*
X24603590Y19019130D01*
X24602240Y19019780D01*
X24600780Y19020000D01*
G37*
G36*
G01X24642030D02*
X24633130D01*
X24626250Y18995000D01*
Y18990000D01*
X24631090D01*
Y18900000D01*
X24642030D01*
Y19020000D01*
G37*
G36*
G01X24597600Y19230620D02*
X24566040D01*
X24564670Y19230430D01*
X24563300Y19229810D01*
X24562020Y19228750D01*
X24560850Y19227250D01*
X24559790Y19225310D01*
X24559180Y19223760D01*
X24558660Y19222090D01*
X24557980Y19218940D01*
X24557580Y19215430D01*
X24557440Y19211560D01*
Y19129680D01*
X24557450Y19129010D01*
X24557630Y19125200D01*
X24558080Y19121750D01*
X24558800Y19118660D01*
X24559790Y19115930D01*
X24560770Y19114120D01*
X24561930Y19112590D01*
X24563200Y19111500D01*
X24564570Y19110840D01*
X24566040Y19110620D01*
X24597600D01*
X24598960Y19110810D01*
X24600340Y19111430D01*
X24601610Y19112490D01*
X24602780Y19113990D01*
X24603850Y19115930D01*
X24604100Y19116490D01*
X24605080Y19119260D01*
X24605790Y19122380D01*
X24606210Y19125860D01*
X24606350Y19129680D01*
Y19140620D01*
X24595410D01*
Y19120620D01*
X24568220D01*
Y19220620D01*
X24595410D01*
Y19190620D01*
X24606350D01*
Y19211560D01*
X24606340Y19212420D01*
X24606140Y19216170D01*
X24605660Y19219570D01*
X24604900Y19222610D01*
X24603850Y19225310D01*
X24602870Y19227120D01*
X24601700Y19228650D01*
X24600440Y19229740D01*
X24599070Y19230400D01*
X24597600Y19230620D01*
G37*
G36*
G01X24664010D02*
X24634630D01*
X24633190Y19230430D01*
X24631780Y19229800D01*
X24630480Y19228740D01*
X24629290Y19227240D01*
X24628220Y19225310D01*
X24627610Y19223760D01*
X24627100Y19222090D01*
X24626420Y19218940D01*
X24626020Y19215430D01*
X24625880Y19211560D01*
Y19190620D01*
X24636820D01*
Y19220620D01*
X24661820D01*
Y19193430D01*
X24624320Y19115620D01*
Y19110620D01*
X24672910D01*
Y19120620D01*
X24637440D01*
X24669790Y19187960D01*
X24670890Y19190370D01*
X24671930Y19193280D01*
X24672550Y19196020D01*
X24672760Y19198590D01*
Y19211560D01*
X24672750Y19212420D01*
X24672550Y19216170D01*
X24672070Y19219570D01*
X24671300Y19222610D01*
X24670260Y19225310D01*
X24669290Y19227170D01*
X24668160Y19228680D01*
X24666900Y19229760D01*
X24665520Y19230400D01*
X24664010Y19230620D01*
G37*
G36*
G01X24650000Y19495000D02*
X24618440D01*
X24617070Y19494810D01*
X24615700Y19494190D01*
X24614420Y19493130D01*
X24613250Y19491630D01*
X24612190Y19489690D01*
X24611580Y19488140D01*
X24611060Y19486470D01*
X24610380Y19483320D01*
X24609980Y19479810D01*
X24609840Y19475940D01*
Y19394060D01*
X24609850Y19393390D01*
X24610030Y19389580D01*
X24610480Y19386130D01*
X24611200Y19383040D01*
X24612190Y19380310D01*
X24613170Y19378500D01*
X24614330Y19376970D01*
X24615600Y19375880D01*
X24616970Y19375220D01*
X24618440Y19375000D01*
X24650000D01*
X24651360Y19375190D01*
X24652740Y19375810D01*
X24654010Y19376870D01*
X24655180Y19378370D01*
X24656250Y19380310D01*
X24656500Y19380870D01*
X24657480Y19383640D01*
X24658190Y19386760D01*
X24658610Y19390240D01*
X24658750Y19394060D01*
Y19405000D01*
X24647810D01*
Y19385000D01*
X24620620D01*
Y19485000D01*
X24647810D01*
Y19455000D01*
X24658750D01*
Y19475940D01*
X24658740Y19476800D01*
X24658540Y19480550D01*
X24658060Y19483950D01*
X24657300Y19486990D01*
X24656250Y19489690D01*
X24655270Y19491500D01*
X24654100Y19493030D01*
X24652840Y19494120D01*
X24651470Y19494780D01*
X24650000Y19495000D01*
G37*
G36*
G01X24719220D02*
X24687970D01*
X24686600Y19494810D01*
X24685230Y19494190D01*
X24683960Y19493130D01*
X24682790Y19491630D01*
X24681720Y19489690D01*
X24681110Y19488140D01*
X24680590Y19486470D01*
X24679910Y19483320D01*
X24679510Y19479810D01*
X24679370Y19475940D01*
Y19445000D01*
X24679380Y19444030D01*
X24679570Y19440090D01*
X24680030Y19436520D01*
X24680740Y19433310D01*
X24681720Y19430470D01*
X24682760Y19428510D01*
X24683910Y19426970D01*
X24685170Y19425880D01*
X24686520Y19425220D01*
X24687970Y19425000D01*
X24716880D01*
Y19385000D01*
X24690620D01*
Y19405000D01*
X24679840D01*
Y19394060D01*
X24679850Y19393200D01*
X24680050Y19389450D01*
X24680530Y19386050D01*
X24681300Y19383010D01*
X24682340Y19380310D01*
X24683330Y19378500D01*
X24684490Y19376970D01*
X24685750Y19375880D01*
X24687120Y19375220D01*
X24688590Y19375000D01*
X24719220D01*
X24720670Y19375200D01*
X24722060Y19375830D01*
X24723330Y19376890D01*
X24724460Y19378390D01*
X24725470Y19380310D01*
X24726080Y19381860D01*
X24726600Y19383530D01*
X24727270Y19386680D01*
X24727680Y19390190D01*
X24727810Y19394060D01*
Y19475940D01*
Y19476610D01*
X24727630Y19480420D01*
X24727180Y19483870D01*
X24726460Y19486960D01*
X24725470Y19489690D01*
X24724500Y19491550D01*
X24723370Y19493060D01*
X24722110Y19494140D01*
X24720730Y19494780D01*
X24719220Y19495000D01*
G37*
G36*
G01X24700000Y19745000D02*
X24668440D01*
X24667070Y19744810D01*
X24665700Y19744190D01*
X24664420Y19743130D01*
X24663250Y19741630D01*
X24662190Y19739690D01*
X24661580Y19738140D01*
X24661060Y19736470D01*
X24660380Y19733320D01*
X24659980Y19729810D01*
X24659840Y19725940D01*
Y19644060D01*
X24659850Y19643390D01*
X24660030Y19639580D01*
X24660480Y19636130D01*
X24661200Y19633040D01*
X24662190Y19630310D01*
X24663170Y19628500D01*
X24664330Y19626970D01*
X24665600Y19625880D01*
X24666970Y19625220D01*
X24668440Y19625000D01*
X24700000D01*
X24701360Y19625190D01*
X24702740Y19625810D01*
X24704010Y19626870D01*
X24705180Y19628370D01*
X24706250Y19630310D01*
X24706500Y19630870D01*
X24707480Y19633640D01*
X24708190Y19636760D01*
X24708610Y19640240D01*
X24708750Y19644060D01*
Y19655000D01*
X24697810D01*
Y19635000D01*
X24670620D01*
Y19735000D01*
X24697810D01*
Y19705000D01*
X24708750D01*
Y19725940D01*
X24708740Y19726800D01*
X24708540Y19730550D01*
X24708060Y19733950D01*
X24707300Y19736990D01*
X24706250Y19739690D01*
X24705270Y19741500D01*
X24704100Y19743030D01*
X24702840Y19744120D01*
X24701470Y19744780D01*
X24700000Y19745000D01*
G37*
G36*
G01X24770160D02*
X24738440D01*
X24737070Y19744810D01*
X24735700Y19744190D01*
X24734420Y19743130D01*
X24733250Y19741630D01*
X24732190Y19739690D01*
X24731580Y19738140D01*
X24731060Y19736470D01*
X24730380Y19733320D01*
X24729980Y19729810D01*
X24729840Y19725940D01*
Y19712660D01*
X24729890Y19710950D01*
X24730030Y19709340D01*
X24730510Y19706700D01*
X24731290Y19704390D01*
X24732370Y19702420D01*
X24733750Y19700780D01*
X24745310Y19690000D01*
X24733440Y19678590D01*
X24732690Y19677800D01*
X24732030Y19676920D01*
X24730930Y19674940D01*
X24730160Y19672630D01*
X24729690Y19669990D01*
X24729530Y19667030D01*
Y19644060D01*
X24729540Y19643390D01*
X24729720Y19639580D01*
X24730170Y19636130D01*
X24730890Y19633040D01*
X24731880Y19630310D01*
X24732860Y19628500D01*
X24734020Y19626970D01*
X24735290Y19625880D01*
X24736650Y19625220D01*
X24738120Y19625000D01*
X24770310D01*
X24771680Y19625190D01*
X24773050Y19625810D01*
X24774330Y19626870D01*
X24775500Y19628370D01*
X24776560Y19630310D01*
X24776810Y19630870D01*
X24777800Y19633640D01*
X24778500Y19636760D01*
X24778920Y19640240D01*
X24779060Y19644060D01*
Y19667030D01*
X24778920Y19669710D01*
X24778420Y19672360D01*
X24777580Y19674720D01*
X24776380Y19676800D01*
X24774840Y19678590D01*
X24763280Y19690000D01*
X24774690Y19700780D01*
X24775540Y19701670D01*
X24776300Y19702680D01*
X24777370Y19704680D01*
X24778140Y19707010D01*
X24778600Y19709670D01*
X24778750Y19712660D01*
Y19725940D01*
X24778740Y19726800D01*
X24778540Y19730550D01*
X24778060Y19733950D01*
X24777300Y19736990D01*
X24776250Y19739690D01*
X24775310Y19741520D01*
X24774190Y19743040D01*
X24772960Y19744130D01*
X24771620Y19744780D01*
X24770160Y19745000D01*
G37*
G36*
G01X24650000Y20370000D02*
X24618440D01*
X24617070Y20369810D01*
X24615700Y20369190D01*
X24614420Y20368130D01*
X24613250Y20366630D01*
X24612190Y20364690D01*
X24611580Y20363140D01*
X24611060Y20361470D01*
X24610380Y20358320D01*
X24609980Y20354810D01*
X24609840Y20350940D01*
Y20269060D01*
X24609850Y20268390D01*
X24610030Y20264580D01*
X24610480Y20261130D01*
X24611200Y20258040D01*
X24612190Y20255310D01*
X24613170Y20253500D01*
X24614330Y20251970D01*
X24615600Y20250880D01*
X24616970Y20250220D01*
X24618440Y20250000D01*
X24650000D01*
X24651360Y20250190D01*
X24652740Y20250810D01*
X24654010Y20251870D01*
X24655180Y20253370D01*
X24656250Y20255310D01*
X24656500Y20255870D01*
X24657480Y20258640D01*
X24658190Y20261760D01*
X24658610Y20265240D01*
X24658750Y20269060D01*
Y20280000D01*
X24647810D01*
Y20260000D01*
X24620620D01*
Y20360000D01*
X24647810D01*
Y20330000D01*
X24658750D01*
Y20350940D01*
X24658740Y20351800D01*
X24658540Y20355550D01*
X24658060Y20358950D01*
X24657300Y20361990D01*
X24656250Y20364690D01*
X24655270Y20366500D01*
X24654100Y20368030D01*
X24652840Y20369120D01*
X24651470Y20369780D01*
X24650000Y20370000D01*
G37*
G36*
G01X24692030D02*
X24683130D01*
X24676250Y20345000D01*
Y20340000D01*
X24681090D01*
Y20250000D01*
X24692030D01*
Y20370000D01*
G37*
G36*
G01X24750940D02*
X24718440D01*
X24717070Y20369810D01*
X24715700Y20369190D01*
X24714420Y20368130D01*
X24713250Y20366630D01*
X24712190Y20364690D01*
X24711580Y20363140D01*
X24711060Y20361470D01*
X24710380Y20358320D01*
X24709980Y20354810D01*
X24709840Y20350940D01*
Y20269060D01*
X24709850Y20268390D01*
X24710030Y20264580D01*
X24710480Y20261130D01*
X24711200Y20258040D01*
X24712190Y20255310D01*
X24713170Y20253500D01*
X24714330Y20251970D01*
X24715600Y20250880D01*
X24716970Y20250220D01*
X24718440Y20250000D01*
X24750940D01*
X24752300Y20250190D01*
X24753680Y20250810D01*
X24754950Y20251870D01*
X24756120Y20253370D01*
X24757190Y20255310D01*
X24757440Y20255870D01*
X24758420Y20258640D01*
X24759130Y20261760D01*
X24759550Y20265240D01*
X24759690Y20269060D01*
Y20350940D01*
X24759680Y20351800D01*
X24759480Y20355550D01*
X24759000Y20358950D01*
X24758230Y20361990D01*
X24757190Y20364690D01*
X24756200Y20366500D01*
X24755040Y20368030D01*
X24753780Y20369120D01*
X24752410Y20369780D01*
X24750940Y20370000D01*
G37*
G36*
G01X24524910Y20053880D02*
X24483970D01*
Y19933880D01*
X24494750D01*
Y20043880D01*
X24522720D01*
Y20003880D01*
X24503350D01*
X24501790Y20001690D01*
X24524600Y19933880D01*
X24536010D01*
X24514910Y19994040D01*
X24515590Y19994020D01*
X24516440Y19993990D01*
X24518190Y19993880D01*
X24521630D01*
X24523870Y19994070D01*
X24525890Y19994640D01*
X24527680Y19995590D01*
X24529220Y19996920D01*
X24530530Y19998640D01*
X24531600Y20000730D01*
X24532430Y20003210D01*
X24533030Y20006070D01*
X24533390Y20009320D01*
X24533510Y20012940D01*
Y20034820D01*
X24533500Y20035680D01*
X24533300Y20039430D01*
X24532810Y20042830D01*
X24532050Y20045870D01*
X24531010Y20048570D01*
X24530060Y20050400D01*
X24528950Y20051920D01*
X24527720Y20053010D01*
X24526370Y20053660D01*
X24524910Y20053880D01*
G37*
G36*
G01X24587410D02*
X24577100D01*
X24547570Y19969350D01*
Y19963880D01*
X24582100D01*
Y19933880D01*
X24592260D01*
Y19963880D01*
X24601630D01*
Y19973880D01*
X24592260D01*
Y20013880D01*
X24582100D01*
Y19973880D01*
X24559290D01*
X24587410Y20053410D01*
Y20053880D01*
G37*
G36*
G01X24689010Y20039760D02*
X24649630D01*
Y19919760D01*
X24660410D01*
Y19979760D01*
X24686670D01*
Y19989760D01*
X24660410D01*
Y20029760D01*
X24689010D01*
Y20039760D01*
G37*
G36*
G01X24710410D02*
X24699630D01*
Y19919760D01*
X24738700D01*
Y19929760D01*
X24710410D01*
Y20039760D01*
G37*
G36*
G01X24761820D02*
X24752920D01*
X24746040Y20014760D01*
Y20009760D01*
X24750880D01*
Y19919760D01*
X24761820D01*
Y20039760D01*
G37*
G36*
G01X24700000Y20620000D02*
X24668440D01*
X24667070Y20619810D01*
X24665700Y20619190D01*
X24664420Y20618130D01*
X24663250Y20616630D01*
X24662190Y20614690D01*
X24661580Y20613140D01*
X24661060Y20611470D01*
X24660380Y20608320D01*
X24659980Y20604810D01*
X24659840Y20600940D01*
Y20519060D01*
X24659850Y20518390D01*
X24660030Y20514580D01*
X24660480Y20511130D01*
X24661200Y20508040D01*
X24662190Y20505310D01*
X24663170Y20503500D01*
X24664330Y20501970D01*
X24665600Y20500880D01*
X24666970Y20500220D01*
X24668440Y20500000D01*
X24700000D01*
X24701360Y20500190D01*
X24702740Y20500810D01*
X24704010Y20501870D01*
X24705180Y20503370D01*
X24706250Y20505310D01*
X24706500Y20505870D01*
X24707480Y20508640D01*
X24708190Y20511760D01*
X24708610Y20515240D01*
X24708750Y20519060D01*
Y20530000D01*
X24697810D01*
Y20510000D01*
X24670620D01*
Y20610000D01*
X24697810D01*
Y20580000D01*
X24708750D01*
Y20600940D01*
X24708740Y20601800D01*
X24708540Y20605550D01*
X24708060Y20608950D01*
X24707300Y20611990D01*
X24706250Y20614690D01*
X24705270Y20616500D01*
X24704100Y20618030D01*
X24702840Y20619120D01*
X24701470Y20619780D01*
X24700000Y20620000D01*
G37*
G36*
G01X24774060D02*
X24725630D01*
Y20590000D01*
X24736560D01*
Y20610000D01*
X24762660D01*
X24737190Y20500000D01*
X24747810D01*
X24774060Y20614380D01*
Y20620000D01*
G37*
G36*
G01X24708910Y20895000D02*
X24697970D01*
X24681410Y20835160D01*
X24664530Y20895000D01*
X24653590D01*
Y20894380D01*
X24668440Y20845780D01*
X24668580Y20845320D01*
X24668850Y20844510D01*
X24669280Y20843200D01*
X24669860Y20841480D01*
X24670590Y20839330D01*
X24671470Y20836750D01*
X24672500Y20833750D01*
X24673260Y20831390D01*
X24674700Y20826270D01*
X24675780Y20821410D01*
Y20775000D01*
X24686720D01*
Y20821410D01*
X24687600Y20824700D01*
X24688870Y20829300D01*
X24690070Y20833450D01*
X24691180Y20837160D01*
X24692220Y20840420D01*
X24693180Y20843250D01*
X24694060Y20845630D01*
X24708910Y20894220D01*
Y20895000D01*
G37*
G36*
G01X24732030D02*
X24723130D01*
X24716250Y20870000D01*
Y20865000D01*
X24721090D01*
Y20775000D01*
X24732030D01*
Y20895000D01*
G37*
G36*
G01X24700000Y21395000D02*
X24668440D01*
X24667070Y21394810D01*
X24665700Y21394190D01*
X24664420Y21393130D01*
X24663250Y21391630D01*
X24662190Y21389690D01*
X24661580Y21388140D01*
X24661060Y21386470D01*
X24660380Y21383320D01*
X24659980Y21379810D01*
X24659840Y21375940D01*
Y21294060D01*
X24659850Y21293390D01*
X24660030Y21289580D01*
X24660480Y21286130D01*
X24661200Y21283040D01*
X24662190Y21280310D01*
X24663170Y21278500D01*
X24664330Y21276970D01*
X24665600Y21275880D01*
X24666970Y21275220D01*
X24668440Y21275000D01*
X24700000D01*
X24701360Y21275190D01*
X24702740Y21275810D01*
X24704010Y21276870D01*
X24705180Y21278370D01*
X24706250Y21280310D01*
X24706500Y21280870D01*
X24707480Y21283640D01*
X24708190Y21286760D01*
X24708610Y21290240D01*
X24708750Y21294060D01*
Y21305000D01*
X24697810D01*
Y21285000D01*
X24670620D01*
Y21385000D01*
X24697810D01*
Y21355000D01*
X24708750D01*
Y21375940D01*
X24708740Y21376800D01*
X24708540Y21380550D01*
X24708060Y21383950D01*
X24707300Y21386990D01*
X24706250Y21389690D01*
X24705270Y21391500D01*
X24704100Y21393030D01*
X24702840Y21394120D01*
X24701470Y21394780D01*
X24700000Y21395000D01*
G37*
G36*
G01X24775940D02*
X24731250D01*
X24729840Y21335000D01*
X24765940D01*
Y21285000D01*
X24740310D01*
Y21305000D01*
X24729530D01*
Y21294060D01*
X24729540Y21293390D01*
X24729720Y21289580D01*
X24730170Y21286130D01*
X24730890Y21283040D01*
X24731880Y21280310D01*
X24732860Y21278500D01*
X24734020Y21276970D01*
X24735290Y21275880D01*
X24736650Y21275220D01*
X24738120Y21275000D01*
X24768130D01*
X24769580Y21275200D01*
X24770970Y21275830D01*
X24772230Y21276890D01*
X24773370Y21278390D01*
X24774370Y21280310D01*
X24774630Y21280870D01*
X24775610Y21283640D01*
X24776310Y21286760D01*
X24776730Y21290240D01*
X24776880Y21294060D01*
Y21325000D01*
X24776860Y21326400D01*
X24776640Y21330190D01*
X24776150Y21333610D01*
X24775390Y21336680D01*
X24774370Y21339370D01*
X24773850Y21340520D01*
X24773300Y21341530D01*
X24772180Y21343050D01*
X24770950Y21344130D01*
X24769600Y21344780D01*
X24768130Y21345000D01*
X24740470D01*
X24741870Y21385000D01*
X24775940D01*
Y21395000D01*
G37*
G36*
G01X24709390Y21881670D02*
X24677830D01*
X24676460Y21881480D01*
X24675090Y21880860D01*
X24673810Y21879800D01*
X24672640Y21878300D01*
X24671580Y21876360D01*
X24670970Y21874810D01*
X24670450Y21873140D01*
X24669770Y21869990D01*
X24669370Y21866480D01*
X24669230Y21862610D01*
Y21780730D01*
X24669240Y21780060D01*
X24669420Y21776250D01*
X24669870Y21772800D01*
X24670590Y21769710D01*
X24671580Y21766980D01*
X24672560Y21765170D01*
X24673720Y21763640D01*
X24674990Y21762550D01*
X24676360Y21761890D01*
X24677830Y21761670D01*
X24709390D01*
X24710750Y21761860D01*
X24712130Y21762480D01*
X24713400Y21763540D01*
X24714570Y21765040D01*
X24715640Y21766980D01*
X24715890Y21767540D01*
X24716870Y21770310D01*
X24717580Y21773430D01*
X24718000Y21776910D01*
X24718140Y21780730D01*
Y21791670D01*
X24707200D01*
Y21771670D01*
X24680010D01*
Y21871670D01*
X24707200D01*
Y21841670D01*
X24718140D01*
Y21862610D01*
X24718130Y21863470D01*
X24717930Y21867220D01*
X24717450Y21870620D01*
X24716690Y21873660D01*
X24715640Y21876360D01*
X24714660Y21878170D01*
X24713490Y21879700D01*
X24712230Y21880790D01*
X24710860Y21881450D01*
X24709390Y21881670D01*
G37*
G36*
G01X24772670D02*
X24762360D01*
X24732830Y21797140D01*
Y21791670D01*
X24767360D01*
Y21761670D01*
X24777520D01*
Y21791670D01*
X24786890D01*
Y21801670D01*
X24777520D01*
Y21841670D01*
X24767360D01*
Y21801670D01*
X24744550D01*
X24772670Y21881200D01*
Y21881670D01*
G37*
G36*
G01X24687990Y21653350D02*
X24656430D01*
X24655060Y21653160D01*
X24653690Y21652540D01*
X24652410Y21651480D01*
X24651240Y21649980D01*
X24650180Y21648040D01*
X24649570Y21646490D01*
X24649050Y21644820D01*
X24648370Y21641670D01*
X24647970Y21638160D01*
X24647830Y21634290D01*
Y21552410D01*
X24647840Y21551740D01*
X24648020Y21547930D01*
X24648470Y21544480D01*
X24649190Y21541390D01*
X24650180Y21538660D01*
X24651160Y21536850D01*
X24652320Y21535320D01*
X24653590Y21534230D01*
X24654960Y21533570D01*
X24656430Y21533350D01*
X24687990D01*
X24689350Y21533540D01*
X24690730Y21534160D01*
X24692000Y21535220D01*
X24693170Y21536720D01*
X24694240Y21538660D01*
X24694490Y21539220D01*
X24695470Y21541990D01*
X24696180Y21545110D01*
X24696600Y21548590D01*
X24696740Y21552410D01*
Y21563350D01*
X24685800D01*
Y21543350D01*
X24658610D01*
Y21643350D01*
X24685800D01*
Y21613350D01*
X24696740D01*
Y21634290D01*
X24696730Y21635150D01*
X24696530Y21638900D01*
X24696050Y21642300D01*
X24695290Y21645340D01*
X24694240Y21648040D01*
X24693260Y21649850D01*
X24692090Y21651380D01*
X24690830Y21652470D01*
X24689460Y21653130D01*
X24687990Y21653350D01*
G37*
G36*
G01X24757370D02*
X24726430D01*
X24725060Y21653160D01*
X24723690Y21652540D01*
X24722410Y21651480D01*
X24721240Y21649980D01*
X24720180Y21648040D01*
X24719570Y21646490D01*
X24719050Y21644820D01*
X24718370Y21641670D01*
X24717970Y21638160D01*
X24717830Y21634290D01*
Y21552410D01*
X24717840Y21551740D01*
X24718020Y21547930D01*
X24718470Y21544480D01*
X24719190Y21541390D01*
X24720180Y21538660D01*
X24721160Y21536850D01*
X24722320Y21535320D01*
X24723590Y21534230D01*
X24724960Y21533570D01*
X24726430Y21533350D01*
X24757680D01*
X24759130Y21533550D01*
X24760520Y21534180D01*
X24761780Y21535240D01*
X24762920Y21536740D01*
X24763930Y21538660D01*
X24764540Y21540210D01*
X24765060Y21541880D01*
X24765730Y21545030D01*
X24766140Y21548540D01*
X24766270Y21552410D01*
Y21584290D01*
Y21584960D01*
X24766090Y21588770D01*
X24765640Y21592220D01*
X24764920Y21595310D01*
X24763930Y21598040D01*
X24762960Y21599900D01*
X24761830Y21601410D01*
X24760570Y21602490D01*
X24759190Y21603130D01*
X24757680Y21603350D01*
X24728610D01*
Y21643350D01*
X24755020D01*
Y21623350D01*
X24765960D01*
Y21634290D01*
X24765950Y21634960D01*
X24765770Y21638770D01*
X24765320Y21642220D01*
X24764610Y21645310D01*
X24763620Y21648040D01*
X24762650Y21649900D01*
X24761520Y21651410D01*
X24760260Y21652490D01*
X24758880Y21653130D01*
X24757370Y21653350D01*
G37*
G36*
G01X24420620Y21795000D02*
X24409840D01*
Y21675000D01*
X24448910D01*
Y21685000D01*
X24420620D01*
Y21795000D01*
G37*
G36*
G01X24496410D02*
X24467030D01*
X24465590Y21794810D01*
X24464180Y21794180D01*
X24462880Y21793120D01*
X24461690Y21791620D01*
X24460620Y21789690D01*
X24460010Y21788140D01*
X24459500Y21786470D01*
X24458820Y21783320D01*
X24458420Y21779810D01*
X24458280Y21775940D01*
Y21755000D01*
X24469220D01*
Y21785000D01*
X24494220D01*
Y21757810D01*
X24456720Y21680000D01*
Y21675000D01*
X24505310D01*
Y21685000D01*
X24469840D01*
X24502190Y21752340D01*
X24503290Y21754750D01*
X24504330Y21757660D01*
X24504950Y21760400D01*
X24505160Y21762970D01*
Y21775940D01*
X24505150Y21776800D01*
X24504950Y21780550D01*
X24504470Y21783950D01*
X24503700Y21786990D01*
X24502660Y21789690D01*
X24501690Y21791550D01*
X24500560Y21793060D01*
X24499300Y21794140D01*
X24497920Y21794780D01*
X24496410Y21795000D01*
G37*
G36*
G01X24470620Y22120000D02*
X24459840D01*
Y22000000D01*
X24498910D01*
Y22010000D01*
X24470620D01*
Y22120000D01*
G37*
G36*
G01X24549840D02*
X24518590D01*
X24517230Y22119810D01*
X24515850Y22119190D01*
X24514580Y22118130D01*
X24513410Y22116630D01*
X24512340Y22114690D01*
X24511730Y22113140D01*
X24511220Y22111470D01*
X24510540Y22108320D01*
X24510140Y22104810D01*
X24510000Y22100940D01*
Y22080000D01*
X24520780D01*
Y22110000D01*
X24547500D01*
Y22082030D01*
X24526090Y22066090D01*
Y22063750D01*
X24547660Y22047500D01*
Y22010000D01*
X24520620D01*
Y22040000D01*
X24509840D01*
Y22019060D01*
X24509850Y22018390D01*
X24510030Y22014580D01*
X24510480Y22011130D01*
X24511200Y22008040D01*
X24512190Y22005310D01*
X24513170Y22003500D01*
X24514330Y22001970D01*
X24515600Y22000880D01*
X24516970Y22000220D01*
X24518440Y22000000D01*
X24550000D01*
X24551380Y22000190D01*
X24552730Y22000820D01*
X24553970Y22001880D01*
X24555090Y22003380D01*
X24556090Y22005310D01*
X24556340Y22005870D01*
X24557330Y22008640D01*
X24558030Y22011760D01*
X24558450Y22015240D01*
X24558590Y22019060D01*
Y22045470D01*
X24558430Y22047670D01*
X24557880Y22049810D01*
X24556940Y22051720D01*
X24555620Y22053400D01*
X24553910Y22054840D01*
X24539220Y22065000D01*
X24553750Y22075310D01*
X24555260Y22076550D01*
X24556650Y22078190D01*
X24557640Y22080040D01*
X24558240Y22082100D01*
X24558440Y22084380D01*
Y22100940D01*
X24558430Y22101800D01*
X24558230Y22105550D01*
X24557750Y22108950D01*
X24556980Y22111990D01*
X24555940Y22114690D01*
X24554990Y22116520D01*
X24553880Y22118040D01*
X24552650Y22119130D01*
X24551300Y22119780D01*
X24549840Y22120000D01*
G37*
G36*
G01X25175310Y16860000D02*
X25155940D01*
Y16820000D01*
X25110940D01*
Y16800000D01*
X25155940D01*
Y16760000D01*
X25175310D01*
Y16800000D01*
X25220310D01*
Y16820000D01*
X25175310D01*
Y16860000D01*
G37*
G36*
G01X25124690Y24090000D02*
X25044690D01*
Y23850000D01*
X25125310D01*
X25128070Y23850390D01*
X25130770Y23851640D01*
X25133250Y23853770D01*
X25135490Y23856760D01*
X25137500Y23860620D01*
X25138000Y23861740D01*
X25139970Y23867280D01*
X25141380Y23873530D01*
X25142220Y23880470D01*
X25142500Y23888120D01*
Y23941870D01*
X25142420Y23944750D01*
X25142170Y23947460D01*
X25141200Y23952390D01*
X25139570Y23956700D01*
X25137300Y23960380D01*
X25134380Y23963440D01*
X25115940Y23980000D01*
X25133130Y23994690D01*
X25135340Y23997400D01*
X25138200Y24002010D01*
X25140240Y24007000D01*
X25141470Y24012380D01*
X25141880Y24018120D01*
Y24051880D01*
X25141860Y24053600D01*
X25141460Y24061100D01*
X25140490Y24067890D01*
X25138970Y24073980D01*
X25136870Y24079380D01*
X25134990Y24083040D01*
X25132760Y24086080D01*
X25130300Y24088260D01*
X25127610Y24089560D01*
X25124690Y24090000D01*
G37*
G36*
G01X25209060D02*
X25191250D01*
X25177500Y24040000D01*
Y24030000D01*
X25187190D01*
Y23850000D01*
X25209060D01*
Y24090000D01*
G37*
G36*
G01X25179380Y24475000D02*
X25115000D01*
Y24455000D01*
X25179380D01*
Y24475000D01*
G37*
%LPC*%
G75*
G36*
G01X22320620Y21360000D02*
Y21336250D01*
X22334220Y21319530D01*
X22347810Y21336250D01*
Y21360000D01*
X22320620D01*
G37*
G36*
G01X22320310Y21293590D02*
Y21260000D01*
X22348130D01*
Y21293590D01*
X22334220Y21310160D01*
X22320310Y21293590D01*
G37*
G36*
G01X22279040Y24848310D02*
Y24808310D01*
X22309870Y24818310D01*
Y24848310D01*
X22279040D01*
G37*
G36*
G01X22715620Y21360000D02*
Y21336250D01*
X22729220Y21319530D01*
X22742810Y21336250D01*
Y21360000D01*
X22715620D01*
G37*
G36*
G01X22715310Y21293590D02*
Y21260000D01*
X22743130D01*
Y21293590D01*
X22729220Y21310160D01*
X22715310Y21293590D01*
G37*
G36*
G01X23570320Y24315120D02*
X23636980D01*
Y24324810D01*
X23636860Y24326660D01*
X23636490Y24328350D01*
X23635870Y24329860D01*
X23635000Y24331210D01*
X23634690Y24331580D01*
X23633570Y24332630D01*
X23632300Y24333420D01*
X23630860Y24333960D01*
X23629270Y24334240D01*
X23628230Y24334290D01*
X23578960D01*
X23577310Y24334160D01*
X23575800Y24333760D01*
X23574440Y24333110D01*
X23573220Y24332190D01*
X23572710Y24331680D01*
X23571730Y24330450D01*
X23571010Y24329060D01*
X23570540Y24327510D01*
X23570330Y24325810D01*
X23570320Y24325220D01*
Y24315120D01*
G37*
G36*
G01X24250660Y19636050D02*
Y19502710D01*
X24270040D01*
X24273740Y19502960D01*
X24277110Y19503700D01*
X24280140Y19504940D01*
X24282830Y19506680D01*
X24283580Y19507300D01*
X24285670Y19509540D01*
X24287260Y19512090D01*
X24288340Y19514960D01*
X24288900Y19518140D01*
X24288990Y19520210D01*
Y19618760D01*
X24288730Y19622060D01*
X24287950Y19625080D01*
X24286640Y19627800D01*
X24284810Y19630230D01*
X24283790Y19631250D01*
X24281320Y19633210D01*
X24278540Y19634660D01*
X24275440Y19635600D01*
X24272040Y19636020D01*
X24270870Y19636050D01*
X24250660D01*
G37*
G36*
G01X24740620Y19735000D02*
Y19711250D01*
X24754220Y19694530D01*
X24767810Y19711250D01*
Y19735000D01*
X24740620D01*
G37*
G36*
G01X24740310Y19668590D02*
Y19635000D01*
X24768130D01*
Y19668590D01*
X24754220Y19685160D01*
X24740310Y19668590D01*
G37*
G36*
G01X25066250Y24070000D02*
Y23990000D01*
X25098440D01*
X25120000Y24003440D01*
Y24070000D01*
X25066250D01*
G37*
G36*
G01Y23970000D02*
Y23870000D01*
X25120630D01*
Y23955310D01*
X25098750Y23970000D01*
X25066250D01*
G37*
G54D19*
X24734765Y20310000D03*
G54D18*
X24257630Y24811540D03*
G54D17*
X22503980Y21285000D03*
X23728520Y20010000D03*
X23739290Y21458470D03*
X24107540Y22920180D03*
X24703520Y19460000D03*
X24741970Y21568350D03*
%LPD*%
G75*
G54D10*
G01X23978280Y15833720D02*
X22182500D01*
G01D02*
Y16867500D01*
G01D02*
X23978280D01*
G01X22333240Y22082960D02*
X22276810D01*
X22265000Y22079070D01*
X22257120Y22071280D01*
X22254500Y22061540D01*
X22257120Y22051800D01*
X22265000Y22044010D01*
X22276810Y22040120D01*
X22333240D01*
G01X22254500Y21971120D02*
X22333240D01*
X22276810Y22007140D01*
Y21958460D01*
G01X23978280Y16867500D02*
Y15833720D01*
G01X24069750Y19795000D02*
G03X24079750I5000J0D01*
G01D02*
G03X24069750I-5000J0D01*
G01X24089210Y20953740D02*
Y20897310D01*
X24093100Y20885500D01*
X24100890Y20877620D01*
X24110630Y20875000D01*
X24120370Y20877620D01*
X24128160Y20885500D01*
X24132050Y20897310D01*
Y20953740D01*
G01X24167950Y20890750D02*
X24173790Y20881560D01*
X24181580Y20876310D01*
X24190340Y20875000D01*
X24198130Y20876310D01*
X24205920Y20882870D01*
X24210790Y20890750D01*
X24211760Y20898620D01*
X24209820Y20907810D01*
X24203000Y20914370D01*
X24196190Y20917000D01*
X24187420D01*
G01X24196190D02*
X24202030Y20920930D01*
X24206900Y20927490D01*
X24208840Y20935370D01*
X24206900Y20943240D01*
X24202030Y20949800D01*
X24193260Y20953740D01*
X24184500Y20952430D01*
X24175740Y20947180D01*
G01X27963440Y15928700D02*
X25263420D01*
G01X25257680Y15938350D02*
Y25219510D01*
G01X25263960Y25215580D02*
X27963980D01*
G01X27973950Y25211610D02*
Y15930450D01*
G01X22034500Y15700000D02*
Y25367000D01*
X28148000D01*
Y15700000D01*
X22034500D01*
G01X22542690Y25142840D02*
X22518350Y25064100D01*
X22494010Y25142840D01*
G01X22502770Y25115280D02*
X22533930D01*
G01X22462000Y25142840D02*
Y25064100D01*
X22417220Y25142840D01*
Y25064100D01*
G01X22360870D02*
Y25142840D01*
G01X22383260Y25064100D02*
X22338480D01*
G01X22282130Y25142840D02*
Y25064100D01*
X22293810Y25079850D01*
G01Y25142840D02*
X22270450D01*
G01X22756010Y24934190D02*
Y25061190D01*
X22691670D01*
G01X22629690Y25042140D02*
X22620040Y25052730D01*
X22608780Y25059070D01*
X22594300Y25061190D01*
X22579820Y25056960D01*
X22568560Y25048490D01*
X22560520Y25033680D01*
X22558910Y25016740D01*
X22562130Y24999810D01*
X22570170Y24989220D01*
X22581430Y24980760D01*
X22592690Y24978640D01*
X22603950Y24980760D01*
X22618430Y24989220D01*
X22613600Y24934190D01*
X22570170D01*
G01X23006010D02*
Y25061190D01*
X22941670D01*
G01X22825000D02*
Y24934190D01*
X22884520Y25025210D01*
X22804080D01*
G01X24071180Y19799510D02*
Y19720770D01*
X24110120D01*
G01X24188860D02*
X24149920D01*
Y19799510D01*
X24188860D01*
G01X24173280Y19761450D02*
X24149920D01*
G01X24226710Y19720770D02*
Y19799510D01*
X24246180D01*
X24253970Y19795570D01*
X24259810Y19790320D01*
X24264680Y19782450D01*
X24268580Y19773260D01*
X24269550Y19760140D01*
X24268580Y19747020D01*
X24264680Y19737830D01*
X24259810Y19729950D01*
X24253970Y19724710D01*
X24246180Y19720770D01*
X24226710D01*
G01X24326870D02*
Y19799510D01*
X24315190Y19783760D01*
G01Y19720770D02*
X24338550D01*
G01X24746910Y16767090D02*
X24676130Y16673960D01*
G01X24711520Y16657030D02*
Y16784030D01*
G01X24676130Y16767090D02*
X24746910Y16673960D01*
G01X24759780Y16720530D02*
X24663260D01*
G01X24516330Y17983590D02*
X24423200Y18054370D01*
G01X24406270Y18018980D02*
X24533270D01*
G01X24516330Y18054370D02*
X24423200Y17983590D01*
G01X24469770Y17970720D02*
Y18067240D01*
G01X24559990Y22172110D02*
X24432990D01*
Y22107770D01*
G01X24458390Y22045790D02*
X24443570Y22036140D01*
X24435110Y22023270D01*
X24432990Y22008790D01*
X24435110Y21995920D01*
X24445690Y21983050D01*
X24458390Y21975010D01*
X24471090Y21973400D01*
X24485900Y21976620D01*
X24496490Y21987880D01*
X24500720Y21999140D01*
Y22013620D01*
G01Y21999140D02*
X24507070Y21989490D01*
X24517650Y21981440D01*
X24530360Y21978230D01*
X24543060Y21981440D01*
X24553640Y21989490D01*
X24559990Y22003970D01*
X24557870Y22018440D01*
X24549410Y22032920D01*
G54D11*
G01X23051710Y21010000D02*
G03I-10000J0D01*
G01X23869990Y20720830D02*
Y20700830D01*
G01D02*
X23889990D01*
G01X23869990Y21245830D02*
Y21225830D01*
G01Y21245830D02*
X23889990D01*
G01X24371490D02*
X24414990D01*
G01X24110000Y22857000D02*
G03I-10000J0D01*
G01X24394990Y20700830D02*
X24414990D01*
G01Y20720830D02*
Y20700830D01*
G01Y21245830D02*
Y21202330D01*
G01X24869650Y20739290D02*
G03I-10000J0D01*
G54D12*
G01X22189610Y17118910D02*
Y19224090D01*
G01X24023490D02*
Y17118910D01*
X22189610D01*
G01Y19224090D02*
X24023490D01*
G54D13*
G01X22250410Y19987220D02*
X22677130D01*
G01X22250410Y20328420D02*
Y19987220D01*
G01X22677130Y20328420D02*
X22250410D01*
G01X22200410Y21735190D02*
Y21483730D01*
G01X22332490D02*
X22200410D01*
G01Y21735190D02*
X22327000Y21733460D01*
G01X22213110Y21912590D02*
Y22162750D01*
G01X22460890Y21912590D02*
X22213110D01*
G01Y22162750D02*
X22460890D01*
G01X22450000Y17517780D02*
X23750000D01*
G01X22450000Y18817780D02*
Y17517780D01*
G01X22465540Y17513760D02*
X23765540D01*
G01X22465540Y18813760D02*
Y17513760D01*
G01X22730720Y18938570D02*
X22932060D01*
X22944180Y18939140D01*
G01X22730720Y18817780D02*
Y18938570D01*
G01X22450000Y18817780D02*
X22730720D01*
G01X22746260Y18813760D02*
X22465540D01*
G01X22677130Y20328420D02*
Y19987220D01*
G01X22735830Y21483730D02*
Y21735190D01*
G01X22603750Y21483730D02*
X22735830D01*
G01X22603750Y21735190D02*
Y21483730D01*
G01X22529810D02*
Y21735190D01*
G01X22397730Y21483730D02*
X22529810D01*
G01X22397730Y21735190D02*
Y21483730D01*
G01X22332490D02*
Y21735190D01*
G01X22735830D02*
X22603750D01*
G01X22529810D02*
X22397730D01*
G01X22460890Y22162750D02*
Y21912590D01*
G01X22944180Y18818350D02*
X23228020Y18817780D01*
X23257420D01*
G01X22944180Y18939140D02*
Y18818350D01*
G01X22746260Y18934550D02*
Y18813760D01*
G01X22959720Y18814330D02*
Y18935120D01*
X22746260Y18934550D01*
G01X23272960Y18813760D02*
X22959720Y18814330D01*
G01X22884090Y20121150D02*
Y19949950D01*
G01X23206410D02*
X22884090D01*
G01Y20121150D02*
X23206410D01*
G01X23168710Y20954000D02*
Y20446000D01*
X22914710D01*
Y20954000D01*
X23168710D01*
G01X22889710Y20421000D02*
X23193710D01*
G01X22889710Y20979000D02*
Y20421000D01*
G01X23193710D02*
Y20979000D01*
X22889710D01*
G01X22808960Y21483730D02*
Y21735190D01*
G01X22941040Y21483730D02*
X22808960D01*
G01X22941040Y21735190D02*
Y21483730D01*
G01Y21735190D02*
X22808960D01*
G01X23473470Y18938570D02*
X23257420D01*
G01X23473470D02*
Y18817780D01*
G01X23506590D02*
X23473470D01*
G01X23257420Y18938570D02*
Y18817780D01*
G01X23750000D02*
X23506590D01*
G01X23272960Y18934550D02*
Y18813760D01*
G01X23489010Y18934550D02*
X23272960D01*
G01X23489010Y18813760D02*
Y18934550D01*
G01X23765540Y18813760D02*
X23489010D01*
G01X23443860Y20227170D02*
X23751200D01*
G01X23443860Y20069690D02*
Y20227170D01*
G01X23751200Y20069690D02*
X23443860D01*
G01X23206410Y20121150D02*
Y19949950D01*
G01X23337180Y21099060D02*
Y20847600D01*
G01X23469260D02*
X23337180D01*
G01X23469260Y21099060D02*
Y20847600D01*
G01X23437500Y21477500D02*
Y21672500D01*
X23532500D01*
Y21477500D01*
X23437500D01*
G01D02*
Y21672500D01*
G01X23532500Y21477500D02*
X23437500D01*
G01X23532500Y21672500D02*
Y21477500D01*
G01X23337180Y21099060D02*
X23469260D01*
G01X23437500Y21672500D02*
X23532500D01*
G01X23367500Y22900000D02*
Y22710000D01*
G01D02*
X23257500D01*
G01D02*
Y22900000D01*
G01D02*
X23367500D01*
G01X23750000Y17517780D02*
Y18817780D01*
G01X23765540Y17513760D02*
Y18813760D01*
G01X23880740Y20531970D02*
Y20069690D01*
G01D02*
X24132200D01*
G01X23751200Y20227170D02*
Y20069690D01*
G01X23595000Y20462570D02*
Y20769890D01*
G01X23751200Y20462570D02*
X23595000D01*
G01X23751200Y20769890D02*
Y20462570D01*
G01X23880740Y20531970D02*
X24132200D01*
G01X23595000Y20769890D02*
X23751200D01*
G01X23859990Y20690830D02*
Y21255830D01*
G01X24424990Y20690830D02*
X23859990D01*
G01X23795500Y21427870D02*
Y21537870D01*
G01X23985500Y21427870D02*
X23795500D01*
G01X23859990Y21255830D02*
X24424990D01*
G01X23912000Y21851660D02*
X23988000D01*
G01X23912000Y21701660D02*
X23988000D01*
G01X23795500Y21537870D02*
X23985500D01*
G01X23745000Y21656660D02*
Y21896660D01*
G01X24155000Y21656660D02*
X23745000D01*
G01Y21896660D02*
X24155000D01*
G01X24267020Y16842620D02*
Y17320140D01*
G01X24830900Y16842620D02*
X24267020D01*
G01Y17320140D02*
X24830900D01*
G01X24099750Y19685000D02*
X24339750D01*
G01X24099750Y19835000D02*
Y19685000D01*
G01X24339750Y19835000D02*
X24099750D01*
G01X24339750Y19685000D02*
Y19835000D01*
G01X24246050Y20076100D02*
Y20328420D01*
G01X24372250Y20076100D02*
X24246050D01*
G01X24372250Y20328420D02*
Y20076100D01*
G01X24132200Y20531970D02*
Y20069690D01*
G01X24246050Y20328420D02*
X24372250D01*
G01X24268600Y21427870D02*
Y21537870D01*
G01X24078600Y21427870D02*
X24268600D01*
G01X24078600Y21537870D02*
Y21427870D01*
G01X23985500Y21537870D02*
Y21427870D01*
G01X24271940Y21686660D02*
X24371940D01*
G01Y21866660D02*
X24271940D01*
G01X24371940Y21686660D02*
Y21866660D01*
G01X24271940D02*
Y21686660D01*
G01X24078600Y21537870D02*
X24268600D01*
G01X24155000Y21896660D02*
Y21656660D01*
G01X24045000Y22352750D02*
Y22162750D01*
G01X24155000Y22352750D02*
Y22162750D01*
G01X24045000D02*
X24155000D01*
G01X24314990Y21998200D02*
X24424990D01*
G01X24314990Y22188200D02*
Y21998200D01*
G01X24424990D02*
Y22188200D01*
X24314990D01*
G01X24173500Y22832000D02*
Y22535000D01*
G01X24026500D02*
Y22832000D01*
G01X24173670Y22533300D02*
X24026670D01*
G01X24045140Y22353920D02*
X24155140D01*
G01X24026500Y22832000D02*
X24173500D01*
G01X24419140Y17666040D02*
X24670600D01*
G01X24419140Y17533960D02*
Y17666040D01*
G01X24670600Y17533960D02*
X24419140D01*
G01X24670600Y17666040D02*
Y17533960D01*
G01X24619800Y17914840D02*
Y18412680D01*
G01X25051600Y17914840D02*
X24619800D01*
G01X24678220Y18577210D02*
Y18772790D01*
G01X25026200Y18577210D02*
X24678220D01*
G01X24619800Y18412680D02*
X25051600D01*
G01X24698550Y19053100D02*
Y18896900D01*
G01X25005870D02*
X24698550D01*
G01X24678220Y18772790D02*
X25026200D01*
G01X24698550Y19108960D02*
Y19241040D01*
G01X24950010Y19108960D02*
X24698550D01*
G01Y19241040D02*
X24950010D01*
G01X24698550Y19053100D02*
X25005870D01*
G01X24792470Y19626000D02*
Y19774000D01*
G01X25089470Y19626000D02*
X24792470D01*
G01Y19774000D02*
X25089470D01*
G01X24597850Y20328420D02*
Y20076100D01*
G01X24471650D02*
X24597850D01*
G01X24471650Y20328420D02*
Y20076100D01*
G01X25089650Y20227720D02*
X24792650D01*
G01Y20375720D02*
Y20227720D01*
G01X24779770Y19889910D02*
Y20060090D01*
G01X25102350Y19889910D02*
X24779770D01*
G01Y20060090D02*
X25102350D01*
G01X24597850Y20328420D02*
X24471650D01*
G01X25089650Y20375720D02*
X24792650D01*
G01Y20501000D02*
Y20649000D01*
G01X25089650Y20501000D02*
X24792650D01*
G01Y20649000D02*
X25089650D01*
G01X24792650Y20774830D02*
Y21171830D01*
G01X25119650Y20774830D02*
X24792650D01*
G01X24424990Y21255830D02*
Y20690830D01*
G01X24792650Y21171830D02*
X25119650D01*
G01X24792650Y21283070D02*
Y21431070D01*
G01X25089650Y21283070D02*
X24792650D01*
G01Y21431070D02*
X25089650D01*
G01Y21685870D02*
X24792650D01*
G01Y21537870D02*
Y21685870D01*
G01X25089650Y21537870D02*
X24792650D01*
G01X24830900Y17320140D02*
Y16842620D01*
G01X25051600Y18412680D02*
Y17914840D01*
G01X25026200Y18772790D02*
Y18577210D01*
G01X25005870Y19053100D02*
Y18896900D01*
G01X24815240Y19383960D02*
X25066700D01*
G01X24815240Y19516040D02*
Y19383960D01*
G01X25066700D02*
Y19516040D01*
G01X24950010Y19241040D02*
Y19108960D01*
G01X24815240Y19516040D02*
X25066700D01*
G01X25089470Y19774000D02*
Y19626000D01*
G01X25089650Y20375720D02*
Y20227720D01*
G01X25102350Y20060090D02*
Y19889910D01*
G01X25089650Y20649000D02*
Y20501000D01*
G01X25119650Y20774830D02*
Y21171830D01*
G01X25089650Y21431070D02*
Y21283070D01*
G01X24815420Y21758960D02*
Y21891040D01*
G01X25066880Y21758960D02*
X24815420D01*
G01X25066880Y21891040D02*
Y21758960D01*
G01X24815420Y21891040D02*
X25066880D01*
G01X25089650Y21685870D02*
Y21537870D01*
G54D14*
G01X22275810Y20012620D02*
Y20303020D01*
G01X22468770Y20012620D02*
X22275810D01*
G01Y20303020D02*
X22468770D01*
G01X22494410Y16564590D02*
Y16140410D01*
G01D02*
X23680590D01*
G01Y16564590D02*
X22494410D01*
G01X22607530Y20417320D02*
G02I-7620J0D01*
G01X22677410Y21780910D02*
G02I-7620J0D01*
G01X22471390D02*
G02I-7620J0D01*
G01X22882620D02*
G02I-7620J0D01*
G01X23410840Y21144780D02*
G02I-7620J0D01*
G01X23680590Y16140410D02*
Y16564590D01*
G01X23606150Y20201770D02*
X23588910D01*
G01Y20095090D02*
X23606150D01*
G01X23906140Y20361520D02*
Y20240140D01*
G01X23680720Y20416850D02*
G02I-7620J0D01*
G01X23725800Y20596980D02*
Y20635480D01*
G01X23620400D02*
Y20596980D01*
G01X24276900Y15599350D02*
X25107480D01*
G01X24276900Y15872150D02*
Y15599350D01*
G01X24106800Y20240140D02*
Y20361520D01*
G01X24331000Y21657920D02*
G02I-7619J2D01*
G01X24454980Y16918820D02*
X24642940D01*
G01Y17243940D02*
X24454980D01*
G01Y17120250D02*
Y17042510D01*
G01X24723940Y17600000D02*
G02I-7620J0D01*
G01X24670600Y18264090D02*
Y18063430D01*
G01X24872030Y18264090D02*
X24799370D01*
G01X25107480Y15599350D02*
Y15872150D01*
G01X25000800Y18063430D02*
Y18264090D01*
G01X24842960Y18922300D02*
X24861460D01*
G01X25003350Y19169560D02*
G02I-7620J0D01*
G01X24861460Y19027700D02*
X24842960D01*
G01X25120040Y19450000D02*
G02I-7620J0D01*
G01X25120220Y21825000D02*
G02I-7620J0D01*
G01X25574090Y16239220D02*
X26262180D01*
G01X25574090Y24910780D02*
Y16239220D01*
G01X26262180Y24910780D02*
X25574090D01*
G01X26976420Y16239220D02*
X27664510D01*
G01Y24910780D02*
X26976420D01*
G01X27664510Y16239220D02*
Y24910780D01*
G54D15*
G01X24137200Y16268170D02*
G02I-38100J0D01*
G01X26657400Y16061420D02*
G02I-38100J0D01*
G54D16*
G01X22222000Y21945170D02*
Y21925170D01*
G01Y22150170D02*
Y22130170D01*
G01X22452000Y22150170D02*
Y22050170D01*
G01Y21945170D02*
Y21925170D01*
M02*
