G04 ================== begin FILE IDENTIFICATION RECORD ==================*
G04 Layout Name:  echolight2.brd*
G04 Film Name:    TOP*
G04 File Format:  Gerber RS274X*
G04 File Origin:  Cadence Allegro 25.1-P001*
G04 Origin Date:  Sat Feb  7 21:46:11 2026*
G04 *
G04 Layer:  VIA CLASS/TOP*
G04 Layer:  PIN/TOP*
G04 Layer:  ETCH/TOP*
G04 *
G04 Offset:    (0.0000 0.0000)*
G04 Mirror:    No*
G04 Mode:      Positive*
G04 Rotation:  0*
G04 FullContactRelief:  No*
G04 UndefLineWidth:     0.1000*
G04 ================== end FILE IDENTIFICATION RECORD ====================*
%FSLAX25Y25*MOMM*%
%IR0*IPPOS*OFA0.00000B0.00000*MIA0B0*SFA1.00000B1.00000*%
%ADD40R,.4999X.6556*%
%ADD14O,.2499X.4999*%
%ADD20R,.25X1.2*%
%ADD44R,.4X1.35*%
%ADD18C,.4*%
%ADD15R,1.35X.65*%
%ADD12C,.7*%
%ADD16R,.8X1.66*%
%ADD10C,.75*%
%ADD46R,.508X1.3208*%
%ADD23R,1.0056X.95*%
%ADD38R,1.1176X.4572*%
%AMMACRO34*
4,1,44,.2949,.1435,
.2949,-.1435,
.292553,-.17065,
.285527,-.19698,
.274036,-.221691,
.258428,-.24403,
.239179,-.26332,
.216872,-.278974,
.192186,-.290516,
.16587,-.297597,
.138725,-.3,
.1387,-.3,
-.1387,-.3,
-.165846,-.297601,
-.192162,-.290525,
-.21685,-.278986,
-.23916,-.263335,
-.258412,-.244049,
-.274024,-.221712,
-.285519,-.197004,
-.292549,-.170675,
-.2949,-.143525,
-.2949,-.1435,
-.2949,.1435,
-.292553,.17065,
-.285527,.19698,
-.274036,.221691,
-.258428,.24403,
-.239179,.26332,
-.216872,.278974,
-.192186,.290516,
-.16587,.297597,
-.138725,.3,
-.1387,.3,
.1387,.3,
.165846,.297601,
.192162,.290525,
.21685,.278986,
.23916,.263335,
.258412,.244049,
.274024,.221712,
.285519,.197004,
.292549,.170675,
.2949,.143525,
.2949,.1435,
0.0*
%
%ADD34MACRO34*%
%ADD11R,.1X.1*%
%ADD37R,2.1X1.6*%
%ADD51R,1.15X1.4*%
%ADD21R,.3X.3*%
%ADD35R,1.1X1.9*%
%ADD39R,.5X.4*%
%ADD41R,.5X.5*%
%ADD28R,.5001X.5001*%
%ADD53R,6.4X7.3*%
%ADD36R,1.8X1.9*%
%ADD22C,1.5*%
%ADD43R,1.9X1.9*%
%ADD24C,1.6*%
%ADD17R,.522X.6*%
%ADD52C,3.6*%
%ADD42R,.7X.65*%
%ADD50R,.65X.7*%
%ADD25R,1.6X1.6*%
%ADD29R,1.7526X1.016*%
%ADD48R,1.016X1.1938*%
%ADD31R,3.4501X3.4501*%
%ADD30R,.8X.6556*%
%ADD47R,.7556X.8001*%
%ADD54C,2.3876*%
%ADD32O,.5999X.24*%
%ADD27R,.762X.8128*%
%ADD33O,.24X.5999*%
%ADD13R,.5588X.7112*%
%ADD45R,.7112X.5588*%
%ADD19R,.5588X.508*%
%ADD49R,.92X.9799*%
%AMMACRO26*
4,1,44,.1435,-.2949,
-.1435,-.2949,
-.17065,-.292553,
-.19698,-.285527,
-.221691,-.274036,
-.24403,-.258428,
-.26332,-.239179,
-.278974,-.216872,
-.290516,-.192186,
-.297597,-.16587,
-.3,-.138725,
-.3,-.1387,
-.3,.1387,
-.297601,.165846,
-.290525,.192162,
-.278986,.21685,
-.263335,.23916,
-.244049,.258412,
-.221712,.274024,
-.197004,.285519,
-.170675,.292549,
-.143525,.2949,
-.1435,.2949,
.1435,.2949,
.17065,.292553,
.19698,.285527,
.221691,.274036,
.24403,.258428,
.26332,.239179,
.278974,.216872,
.290516,.192186,
.297597,.16587,
.3,.138725,
.3,.1387,
.3,-.1387,
.297601,-.165846,
.290525,-.192162,
.278986,-.21685,
.263335,-.23916,
.244049,-.258412,
.221712,-.274024,
.197004,-.285519,
.170675,-.292549,
.143525,-.2949,
.1435,-.2949,
0.0*
%
%ADD26MACRO26*%
%ADD55C,.2*%
%ADD56C,.3*%
%ADD57C,.15*%
%ADD58C,.36*%
%ADD59C,.54*%
%ADD60C,2.2*%
%ADD61C,2.06*%
%ADD62C,1.2476*%
G75*
%LPD*%
G75*
G36*
G01X22472860Y20157820D02*
G02I-81255J0D01*
G37*
%LPC*%
G75*
G54D62*
X22391600Y20157690D03*
%LPD*%
G75*
G54D10*
X22279020Y16062620D03*
Y16462620D03*
Y16262620D03*
Y16862620D03*
Y16662620D03*
Y17262620D03*
Y17062620D03*
Y17662620D03*
Y17462620D03*
Y18062620D03*
Y17862620D03*
Y18462620D03*
Y18262620D03*
Y18862620D03*
Y18662620D03*
Y19462620D03*
Y19262620D03*
Y19062620D03*
X22354750Y19946800D03*
X22342520Y20391920D03*
Y20991920D03*
Y20791920D03*
Y21191920D03*
X22279020Y22356810D03*
Y22756810D03*
Y22556810D03*
Y23156810D03*
Y22956810D03*
Y23556810D03*
Y23356810D03*
Y23956810D03*
Y23756810D03*
Y24356810D03*
Y24156810D03*
X22704320Y16131750D03*
X22434120Y15936350D03*
X22634120D03*
X22699160Y16507180D03*
X22632780Y16318520D03*
X22655840Y18741960D03*
X22685630Y18939730D03*
X22712640Y19137890D03*
Y19337890D03*
X22507360Y19817520D03*
X22707360D03*
X22666420Y19532480D03*
X22466420D03*
X22498440Y20266670D03*
X22521410Y21281370D03*
X22655300Y21984360D03*
X22602470Y24514310D03*
X22402470Y24514170D03*
X22834120Y15936350D03*
X23034120D03*
X23159810Y16881580D03*
X23018390Y16740160D03*
X22876970Y16598740D03*
X22998490Y18668250D03*
X22806900Y18610880D03*
X22997680Y19053060D03*
X23052660Y18860770D03*
X22997680Y19453060D03*
Y19253060D03*
X22903760Y19855310D03*
X23084690Y19633140D03*
X22850120Y20664970D03*
X22858590Y20465150D03*
X23029240Y20360850D03*
X23210930Y20444440D03*
X23178570Y21026700D03*
X22829190Y20907000D03*
X22890000Y21322500D03*
X23074000Y23010840D03*
Y23410840D03*
Y23210840D03*
Y24010840D03*
Y23810840D03*
Y23610840D03*
Y24410840D03*
Y24210840D03*
X22878940Y24699260D03*
X22802470Y24514460D03*
X23080000Y24755000D03*
X23074000Y24610840D03*
X22825000Y24825000D03*
X23004160Y24858000D03*
X23234120Y15936350D03*
X23434120D03*
X23470900Y17128900D03*
X23301230Y17023000D03*
X23349070Y18641390D03*
X23467360Y18661560D03*
X23250000Y18707500D03*
X23544930Y18753120D03*
X23545400Y18873120D03*
X23468540Y18965280D03*
X23205320Y18813760D03*
X23415070Y19840110D03*
X23226120Y19774570D03*
X23535180Y20311730D03*
X23401320Y20125150D03*
X23242750Y20641890D03*
X23254230Y20841560D03*
X23529000Y23010840D03*
Y23410840D03*
Y23210840D03*
Y24010840D03*
Y23810840D03*
Y23610840D03*
Y24410840D03*
Y24210840D03*
Y24810840D03*
Y24610840D03*
X23478940Y25122470D03*
X23316000Y25169840D03*
X23485000Y24975000D03*
X23634120Y15936350D03*
X23834120D03*
X23870900Y17128900D03*
X23670900D03*
X23815070Y19840110D03*
X23801320Y20125150D03*
X23643420Y21636790D03*
X23935250Y22217250D03*
X23878940Y25122470D03*
X23678940D03*
X24028130Y16065650D03*
X24034120Y15936350D03*
X24360000Y16527500D03*
X24210000Y16450000D03*
X24169550Y16207070D03*
X24365020Y16758920D03*
X24084980Y17351300D03*
X24069570Y17151890D03*
X24309460Y17754170D03*
X24208500Y17581520D03*
X24420000Y19695000D03*
X24200440Y20143800D03*
X24278940Y25122470D03*
X24078940D03*
X24585000Y16465000D03*
X24734710Y16493130D03*
X24770000Y17415000D03*
X24487500Y17732500D03*
X24597500Y17427500D03*
X24606410Y19292520D03*
X24629690Y19491160D03*
X24581880Y19685360D03*
X24702500Y19977500D03*
X24703570Y20352020D03*
X24539840Y21301210D03*
X24678940Y25122470D03*
X24478940D03*
X25234120Y15936350D03*
X25169550Y16208090D03*
X25134710Y16493130D03*
X24934710D03*
X24927500Y19315000D03*
X25163270Y19748070D03*
X25177500Y19960000D03*
X25078940Y25122470D03*
X24878940D03*
X25434120Y15936350D03*
X25634120D03*
X25369550Y16208090D03*
X25569550D03*
X25534710Y16493130D03*
X25334710D03*
X25669760Y23060580D03*
X25570780Y23524480D03*
X25506780Y23335000D03*
X25478940Y25122470D03*
X25278940D03*
X25834120Y15936350D03*
X26034120D03*
X25769550Y16208090D03*
X25969550D03*
X25934710Y16493130D03*
X25734710D03*
X25866770Y23026110D03*
X26044330Y23118140D03*
X26088000Y23494590D03*
X25936220Y23624820D03*
X25736550Y23636370D03*
X26078940Y25122470D03*
X25878940D03*
X25678940D03*
X26362500Y16147500D03*
X26234120Y15936350D03*
X26434120D03*
X26169550Y16208090D03*
X26134710Y16493130D03*
X26129740Y23298990D03*
X26478940Y25122470D03*
X26278940D03*
X26634120Y15936350D03*
X26834120D03*
X26612500Y24505000D03*
X26878940Y25122470D03*
X26678940D03*
X27034120Y15936350D03*
X27234120D03*
X27269760Y17540580D03*
X27106780Y17815000D03*
X27336550Y18116370D03*
X27170780Y18004480D03*
X27239830Y24344480D03*
X27162080Y24160210D03*
X27278940Y25122470D03*
X27078940D03*
X27434120Y15936350D03*
X27634120D03*
X27466770Y17506110D03*
X27644330Y17598140D03*
X27729740Y17778990D03*
X27688000Y17974590D03*
X27536220Y18104820D03*
X27398950Y23903800D03*
X27588790Y23966730D03*
X27676160Y24146640D03*
X27608240Y24334750D03*
X27426090Y24417340D03*
X27678940Y25122470D03*
X27478940D03*
X27834120Y15936350D03*
X27903390Y16123970D03*
Y16323970D03*
Y16523970D03*
Y16723970D03*
Y16923970D03*
Y17123970D03*
Y17323970D03*
Y17523970D03*
Y17723970D03*
Y17923970D03*
Y18123970D03*
Y18323970D03*
Y18523970D03*
Y18723970D03*
Y18923970D03*
Y19123970D03*
Y19323970D03*
Y19523970D03*
Y19723970D03*
Y19923970D03*
Y20123970D03*
Y20323970D03*
Y20523970D03*
Y20723970D03*
Y20923970D03*
Y21123970D03*
Y21323970D03*
Y21523970D03*
Y21723970D03*
Y21923970D03*
Y22123970D03*
Y22323970D03*
Y22523970D03*
Y22723970D03*
Y22923970D03*
Y23123970D03*
Y23323970D03*
Y23523970D03*
Y23723970D03*
Y23923970D03*
Y24123970D03*
Y24323970D03*
Y24523970D03*
Y24723970D03*
Y24923970D03*
X27878940Y25122470D03*
G54D11*
X22321270Y20159570D03*
G54D20*
X22572670Y25110770D03*
G54D30*
X23673100Y20533450D03*
Y20699010D03*
G54D21*
X22661680Y25110770D03*
X22721680D03*
X22911680D03*
X22971680D03*
G54D12*
X22266450Y21439170D03*
Y21783720D03*
X22271550Y22213190D03*
X22616240Y20394010D03*
X22669790Y21438650D03*
X22463770Y21438660D03*
X22512780Y22132670D03*
X22825000Y19675000D03*
X22875000Y21439110D03*
X23532700Y20301590D03*
X23547500Y20995000D03*
X23485000Y21732500D03*
X23673100Y20406820D03*
X23800000Y20625000D03*
X23650000Y21020000D03*
Y21525000D03*
X23930000Y21597500D03*
X24043700Y16986380D03*
X24375000Y17600000D03*
X24154750Y19982630D03*
X24100000Y20625000D03*
X24250000Y21350000D03*
X24210000Y21617500D03*
X24835700Y17810600D03*
X24772290Y19315920D03*
X24650000Y20975000D03*
X24550000Y20925000D03*
X24473330Y20798330D03*
X24650000Y21175000D03*
X24915130Y17081380D03*
X24848730Y18845730D03*
X25000000Y19175000D03*
X25015990Y19827880D03*
X25018470Y19572400D03*
X25150000Y20575000D03*
X25018650Y21237100D03*
X26613970Y16606250D03*
G54D13*
X22265000Y21557390D03*
Y21661530D03*
X23403220Y20921260D03*
Y21025400D03*
G54D31*
X24142490Y20973330D03*
G54D22*
X23087500Y16352500D03*
X22837500D03*
X22835000Y18817780D03*
X23337500Y16352500D03*
X23365000Y18817780D03*
G54D40*
X24309150Y20146980D03*
Y20257540D03*
X24534750Y20146980D03*
Y20257540D03*
G54D32*
X23902490Y21048330D03*
Y20948330D03*
Y20898330D03*
Y20798330D03*
Y20848330D03*
Y20998330D03*
Y21098330D03*
Y21148330D03*
X24382490Y21048330D03*
Y20948330D03*
Y20998330D03*
Y20898330D03*
Y20848330D03*
Y20798330D03*
Y21098330D03*
Y21148330D03*
G54D50*
X25008560Y19975000D03*
X24873560D03*
G54D41*
X24369990Y22048200D03*
Y22138200D03*
G54D23*
X23118030Y20035550D03*
X22972470D03*
G54D14*
X22272000Y21942670D03*
X22271500Y22132670D03*
X22402000D03*
Y21942670D03*
X22337000D03*
Y22132670D03*
G54D60*
G01X23301500Y23010840D02*
Y24872500D01*
G54D33*
X23967490Y20733330D03*
Y21213330D03*
X24017490Y20733330D03*
X24067490D03*
X24217490D03*
X24167490D03*
X24117490D03*
X24317490D03*
X24267490D03*
X24117490Y21213330D03*
X24167490D03*
X24217490D03*
X24317490D03*
X24267490D03*
X24017490D03*
X24067490D03*
G54D42*
X24100000Y22762000D03*
Y22605000D03*
G54D24*
X23041710Y20573000D03*
G54D51*
X24877500Y20862500D03*
X25037500D03*
Y21082500D03*
X24877500D03*
G54D15*
X22337000Y22037670D03*
G54D61*
G01X23301500Y24872500D02*
X23063230Y25110770D01*
G54D25*
X23041710Y20827000D03*
G54D52*
X25819300Y23335000D03*
X27419300Y17815000D03*
G54D43*
X24572190Y15965110D03*
G54D34*
X23931000Y21482870D03*
X23850000D03*
X24214100D03*
X24133100D03*
G54D16*
X22262670Y25110770D03*
G54D26*
X22816680Y25015270D03*
Y25096270D03*
X23312500Y22764500D03*
Y22845500D03*
X24100000Y22217250D03*
Y22298250D03*
G54D17*
X22599910Y20247820D03*
Y20067820D03*
Y20157820D03*
X22517710Y20067820D03*
Y20247820D03*
G54D53*
X26619300Y16640000D03*
Y24510000D03*
G54D35*
X23825000Y21776660D03*
X24075000D03*
G54D44*
X24757190Y16232610D03*
X24692190D03*
X24627190D03*
X24562190D03*
X24822190D03*
G54D45*
X24492800Y17600000D03*
X24596940D03*
X24772210Y19169560D03*
X24876350D03*
X24888900Y19450000D03*
X24993040D03*
X24889080Y21825000D03*
X24993220D03*
G54D27*
X23520060Y20148430D03*
X23675000D03*
G54D54*
X27419300Y24160210D03*
G54D36*
X24312190Y15965110D03*
X24812190D03*
X25072190D03*
G54D18*
X22391610Y20157820D03*
G54D55*
G01X22265000Y21557390D02*
Y21499130D01*
X22266450Y21497680D01*
Y21439170D01*
G01X23600830Y20798330D02*
X23902490D01*
G01X23582510Y20837500D02*
X23831660D01*
X23842490Y20848330D01*
G01X22463770Y21547230D02*
Y21438660D01*
G01X22669790Y21547230D02*
Y21438650D01*
G01X22402000Y22132670D02*
X22512780D01*
G01X22835000Y18817780D02*
X22841550Y18824330D01*
Y19658450D01*
X22825000Y19675000D01*
G01X23118030Y20035550D02*
Y19868030D01*
X22925000Y19675000D01*
X22825000D01*
G01X22875000Y21547230D02*
Y21439110D01*
G01X23673100Y20407220D02*
Y20533450D01*
G01Y20407220D02*
X23667200Y20413120D01*
G01X23673100Y20406820D02*
Y20407220D01*
G01X23800000Y20625000D02*
X23927160D01*
X23980490Y20678330D01*
X23982820D01*
X24004490Y20700000D01*
Y20702330D01*
X24017490Y20715330D01*
Y20733330D01*
G01X24411800Y16986380D02*
X24043700D01*
G01X24154750Y19795000D02*
Y19982630D01*
G01X24382490Y20948330D02*
X24472610D01*
X24495940Y20925000D01*
X24550000D01*
G01X24382490Y20998330D02*
X24572610D01*
X24595940Y20975000D01*
X24650000D01*
G01X24772500Y21098330D02*
X24382490D01*
G01Y21148330D02*
X24648330D01*
X24650000Y21150000D01*
Y21175000D01*
G01X24740700Y18283140D02*
Y18590310D01*
X24705960D01*
X24691320Y18604950D01*
Y18745050D01*
X24705960Y18759690D01*
X24740700D01*
X24774430Y18793420D01*
Y18975000D01*
G01X24772210Y19169560D02*
Y19118920D01*
X24774430Y19116700D01*
Y18975000D01*
G01X24772290Y19315920D02*
Y19271860D01*
X24772170Y19271740D01*
Y19245280D01*
X24772210Y19245240D01*
Y19169560D01*
G01X24863650Y20577500D02*
Y20643060D01*
X24619940Y20886770D01*
X24588230D01*
X24550000Y20925000D01*
G01X24650000Y21175000D02*
X24688230Y21213230D01*
X24722810D01*
X24863650Y21354070D01*
Y21357070D01*
G01X24863470Y19700000D02*
X24862500D01*
G01X24863470D02*
Y19522430D01*
X24888900Y19497000D01*
Y19450000D01*
G01X24866130Y19975000D02*
X24863470Y19972340D01*
Y19700000D01*
G01X25008560Y19975000D02*
Y19917300D01*
X25015990Y19909870D01*
Y19827880D01*
G01X24866130Y20299240D02*
Y19975000D01*
G01D02*
X24873560D01*
G01X24865000Y20577500D02*
X24863650D01*
G01X25020000D02*
X25028650Y20586150D01*
X25036150D01*
G01X24865000Y20302500D02*
X24866130Y20301370D01*
Y20299240D01*
G01X24863650Y20577500D02*
Y20301720D01*
X24866130Y20299240D01*
G01X25150000Y20575000D02*
X25025000D01*
G01X24863650Y21357070D02*
Y21611870D01*
G01D02*
Y21752570D01*
X24889080Y21778000D01*
Y21825000D01*
G54D19*
X22463770Y21547230D03*
Y21671690D03*
X22669790Y21547230D03*
Y21671690D03*
X22875000Y21547230D03*
Y21671690D03*
G54D28*
X23485000Y21525000D03*
Y21625000D03*
G54D37*
X24382190Y16220110D03*
X25002190D03*
G54D46*
X24740700Y18044380D03*
Y18283140D03*
X24835700Y18044380D03*
X24930700D03*
Y18283140D03*
G54D56*
G01X22655740Y25110770D02*
X22572670D01*
G01X22655740D02*
X22661680D01*
G01X22646260Y25112500D02*
X22654010D01*
X22655740Y25110770D01*
G54D47*
X24774430Y18975000D03*
X24929990D03*
G54D29*
X24006470Y20158590D03*
Y20443070D03*
G54D38*
X24411800Y16986380D03*
Y17176380D03*
X24686120D03*
Y17081380D03*
Y16986380D03*
G54D57*
G01X22321270Y20159570D02*
Y20196270D01*
G01D02*
X22376630Y20251630D01*
X22517710D01*
G01Y20067820D02*
Y20064010D01*
X22477560Y20023860D01*
X22276140D01*
X22227500Y20072500D01*
Y20502500D01*
X22823330Y21098330D01*
X23902490D01*
G01X22265000Y21661530D02*
Y21717290D01*
X22266450Y21718740D01*
Y21783720D01*
G01X22463770Y21671690D02*
X22461230D01*
X22272000Y21860920D01*
Y21942670D01*
G01X22271500Y22132670D02*
Y22213140D01*
X22271550Y22213190D01*
G01X22337000Y22037670D02*
Y22067170D01*
X22306320Y22097850D01*
X22293820D01*
X22271500Y22120170D01*
Y22132670D01*
G01X22599910Y20157820D02*
X23282820D01*
X23557500Y20432500D01*
Y20755000D01*
X23600830Y20798330D01*
G01X22972470Y20035550D02*
X22903130D01*
X22870860Y20067820D01*
X22599910D01*
G01X22517710Y20251630D02*
Y20247820D01*
G01D02*
X22515000D01*
G01X22599910D02*
X23301980D01*
X23520000Y20465840D01*
Y20774990D01*
X23582510Y20837500D01*
G01X23842490Y20848330D02*
X23902490D01*
G01X22517710Y20251630D02*
Y20295480D01*
X22616240Y20394010D01*
G01X22463770Y21671690D02*
X22490810D01*
X22575000Y21587500D01*
Y21438650D01*
X22865320Y21148330D01*
X23902490D01*
G01X22669790Y21671690D02*
X22550120D01*
X22337000Y21884810D01*
Y21942670D01*
G01X22402000D02*
Y21881310D01*
X22533310Y21750000D01*
X22794150D01*
X22872460Y21671690D01*
X22875000D01*
G01X22669790D02*
X22717930D01*
X22775000Y21614620D01*
Y21300000D01*
X22861670Y21213330D01*
X23967490D01*
G01X22337000Y22132670D02*
Y22226020D01*
X22385980Y22275000D01*
X22550000D01*
X23002700Y21822300D01*
Y21397300D01*
X23066100Y21333900D01*
X23997120D01*
X24067490Y21263530D01*
Y21213330D01*
G01X23041710Y20573000D02*
X23417600D01*
X23469600Y20625000D01*
Y20772960D01*
X23572670Y20876030D01*
X23701030D01*
X23723330Y20898330D01*
X23902490D01*
G01X23041710Y20827000D02*
X23163040Y20948330D01*
X23352780D01*
Y20876380D01*
X23365960Y20863200D01*
X23440480D01*
X23453660Y20876380D01*
Y20891260D01*
X23519860D01*
X23536100Y20907500D01*
X23583760D01*
X23608760Y20932500D01*
X23686260D01*
X23702090Y20948330D01*
X23902490D01*
G01X24017490Y21213330D02*
X24017710Y21213550D01*
Y21264850D01*
X23982560Y21300000D01*
X23050000D01*
X22950000Y21400000D01*
Y21625000D01*
X22903310Y21671690D01*
X22875000D01*
G01X22816680Y25015270D02*
Y24910730D01*
X22825000Y24902410D01*
Y24825000D01*
G01X23312500Y22845500D02*
Y22999840D01*
X23301500Y23010840D01*
G01X23365000Y18817780D02*
X23371550Y18824330D01*
Y19052870D01*
X23675000Y19356320D01*
Y20148430D01*
G01X23520060D02*
Y20234890D01*
X23532700Y20247530D01*
Y20301590D01*
G01X23403220Y20921260D02*
X23507430D01*
X23523670Y20937500D01*
X23571330D01*
X23596330Y20962500D01*
X23673830D01*
X23709660Y20998330D01*
X23902490D01*
G01X23403220Y21025400D02*
X23461900D01*
X23492300Y20995000D01*
X23547500D01*
G01X23485000Y21525000D02*
X23650000D01*
G01X23485000Y21732500D02*
Y21625000D01*
G01X23312500Y22764500D02*
Y22590000D01*
X23854300Y22048200D01*
X24369990D01*
G01X23312500Y22845500D02*
X23311990D01*
G01X24100000Y22762000D02*
X23915250D01*
X23831750Y22845500D01*
X23312500D01*
G01X23675000Y20148430D02*
Y20208130D01*
X23850000Y20383130D01*
Y20537300D01*
X23862700Y20550000D01*
X23933220D01*
X24067490Y20684270D01*
Y20733330D01*
G01X23902490Y21048330D02*
X23842490D01*
X23824160Y21030000D01*
X23660000D01*
X23650000Y21020000D01*
G01X23967490Y20733330D02*
X23933170Y20699010D01*
X23673100D01*
G01X23967490Y20715330D02*
Y20733330D01*
G01X23931000Y21482870D02*
Y21541300D01*
X23930000Y21542300D01*
Y21597500D01*
G01X23850000Y21482870D02*
Y21482360D01*
G01Y21482870D02*
X23879000D01*
Y21443550D01*
X23892180Y21430370D01*
X23949510D01*
X24117490Y21262390D01*
Y21213330D01*
G01X23825000Y21776660D02*
Y21662600D01*
X23850000Y21637600D01*
Y21482870D01*
G01X24100000Y22217250D02*
X23935250D01*
G01X24492800Y17600000D02*
X24375000D01*
G01X24740700Y18044380D02*
Y17890700D01*
X24675000Y17825000D01*
X24450000D01*
X24375000Y17750000D01*
Y17600000D01*
G01X24154750Y19725000D02*
X24139750D01*
X24006470Y19858280D01*
Y20158590D01*
G01X24284750Y19725000D02*
X24329950D01*
X24534750Y19929800D01*
Y20146980D01*
G01X24284750Y19795000D02*
Y20070740D01*
X24309150Y20095140D01*
Y20146980D01*
G01Y20257540D02*
Y20341670D01*
X24217490Y20433330D01*
Y20733330D01*
G01X24117490D02*
Y20642490D01*
X24100000Y20625000D01*
G01X24534750Y20257540D02*
Y20402550D01*
X24512300Y20425000D01*
X24300000D01*
X24267490Y20457510D01*
Y20733330D01*
G01X24167490D02*
Y20571800D01*
X24150000Y20554310D01*
X24019170D01*
X24006470Y20541610D01*
Y20443070D01*
G01X24382490Y20898330D02*
Y20848330D01*
G01Y20798330D02*
Y20848330D01*
G01X24317490Y20733330D02*
X24382490Y20798330D01*
G01D02*
X24473330D01*
G01X24117490Y20733330D02*
Y20948330D01*
X24142490Y20973330D01*
G01X24788410Y20963570D02*
X24761430D01*
X24676670Y21048330D01*
X24382490D01*
G01X24133100Y21482870D02*
Y21433810D01*
X24167490Y21399420D01*
Y21213330D01*
G01X24075000Y21776660D02*
Y21662600D01*
X24133100Y21604500D01*
Y21482870D01*
G01X24214100D02*
Y21558200D01*
X24210000Y21562300D01*
Y21617500D01*
G01X25037500Y21082500D02*
X24977500Y21022500D01*
Y20997500D01*
X24962500Y20982500D01*
X24817660D01*
X24772500Y21027660D01*
Y21098330D01*
G01X24321940Y21736660D02*
Y21421940D01*
X24250000Y21350000D01*
G01X24217490Y21213330D02*
Y21317490D01*
X24250000Y21350000D01*
G01X24369990Y22138200D02*
X24424100D01*
X24450000Y22112300D01*
Y21400000D01*
X24317490Y21267490D01*
Y21213330D01*
G01X24321940Y21816660D02*
X24381010D01*
X24410560Y21787110D01*
Y21405460D01*
X24267490Y21262390D01*
Y21213330D01*
G01X24369990Y22048200D02*
Y22003000D01*
X24370210Y22002780D01*
Y21945210D01*
X24321940Y21896940D01*
Y21816660D01*
G01X24100510Y22298250D02*
X24100000D01*
G01D02*
X24113250Y22285000D01*
X24175000D01*
X24190000Y22270000D01*
Y22208760D01*
X24260560Y22138200D01*
X24369990D01*
G01X24100000Y22605000D02*
Y22298250D01*
G01X24562190Y16232610D02*
Y16315160D01*
X24482500Y16394850D01*
Y16907500D01*
X24615950Y17040950D01*
Y17044230D01*
X24653100Y17081380D01*
X24686120D01*
G01X24822190Y16232610D02*
Y16597240D01*
X24686120Y16733310D01*
Y16986380D01*
G01X24915130Y17081380D02*
X24686120D01*
G01X24411800Y17176380D02*
Y17218300D01*
X24414590Y17221090D01*
Y17419850D01*
X24422240Y17427500D01*
X24597500D01*
G01X24596940Y17600000D02*
Y17428060D01*
X24597500Y17427500D01*
G01X24930700Y18044380D02*
Y18132180D01*
X24912880Y18150000D01*
X24775000D01*
X24740700Y18115700D01*
Y18044380D01*
G01X24767120Y18675000D02*
X24815500Y18723380D01*
Y18737800D01*
X24830600Y18752900D01*
Y18827600D01*
X24848730Y18845730D01*
G01X24877500Y20862500D02*
Y20875000D01*
X24788930Y20963570D01*
X24788410D01*
G01X24876150Y20863330D02*
Y20875830D01*
X24788410Y20963570D01*
G01X24835700Y18044380D02*
Y17810600D01*
G01X24930700Y18283140D02*
Y18589650D01*
X24937300Y18596250D01*
Y18675000D01*
G01D02*
X24929990Y18682310D01*
Y18975000D01*
G01X24876350Y19169560D02*
X24939360D01*
X24944800Y19175000D01*
X25000000D01*
G01X25017500Y19700000D02*
Y19630800D01*
X25018470Y19629830D01*
Y19572400D01*
G01X24993040Y19450000D02*
Y19502910D01*
X25018470Y19528340D01*
Y19572400D01*
G01X25036150Y20586150D02*
X25025000Y20575000D01*
G01X25020000Y20302500D02*
Y20573650D01*
G01X25037500Y20862500D02*
Y20591150D01*
X25020000Y20573650D01*
G01D02*
X25018650Y20575000D01*
X25025000D01*
G01X24877500Y21082500D02*
X24876980D01*
X24876150Y21083330D01*
Y21172390D01*
X24940860Y21237100D01*
X25018650D01*
G01Y21357070D02*
Y21611870D01*
G01Y21237100D02*
Y21357070D01*
G01Y21611870D02*
Y21752570D01*
X24993220Y21778000D01*
Y21825000D01*
G54D48*
X24767120Y18675000D03*
X24937300D03*
G54D39*
X24154750Y19795000D03*
Y19725000D03*
X24284750D03*
Y19795000D03*
X24321940Y21816660D03*
Y21736660D03*
G54D58*
G01X23063230Y25110770D02*
X22971680D01*
G54D49*
X25017500Y19700000D03*
X24862500D03*
X25020000Y20302500D03*
X24865000D03*
Y20577500D03*
X25020000D03*
X24863650Y21357070D03*
X25018650D03*
X24863650Y21611870D03*
X25018650D03*
G54D59*
G01X22816680Y25096270D02*
X22736180D01*
X22721680Y25110770D01*
G01X22911680D02*
Y25108080D01*
X22899870Y25096270D01*
X22816680D01*
M02*
