G04 ================== begin FILE IDENTIFICATION RECORD ==================*
G04 Layout Name:  echolight2.brd*
G04 Film Name:    BOTTOM*
G04 File Format:  Gerber RS274X*
G04 File Origin:  Cadence Allegro 25.1-P001*
G04 Origin Date:  Sat Feb  7 21:46:11 2026*
G04 *
G04 Layer:  VIA CLASS/BOTTOM*
G04 Layer:  PIN/BOTTOM*
G04 Layer:  ETCH/BOTTOM*
G04 *
G04 Offset:    (0.0000 0.0000)*
G04 Mirror:    No*
G04 Mode:      Positive*
G04 Rotation:  0*
G04 FullContactRelief:  No*
G04 UndefLineWidth:     0.1000*
G04 ================== end FILE IDENTIFICATION RECORD ====================*
%FSLAX25Y25*MOMM*%
%IR0*IPPOS*OFA0.00000B0.00000*MIA0B0*SFA1.00000B1.00000*%
%ADD12C,.4*%
%ADD11C,.7*%
%ADD10C,.75*%
%ADD13C,1.5*%
%ADD14C,1.6*%
%ADD16C,3.6*%
%ADD15R,1.6X1.6*%
%ADD17C,2.3876*%
%ADD18C,.2*%
%ADD19C,.15*%
%ADD23C,.7004*%
%ADD22C,1.8004*%
%ADD24C,1.9004*%
%ADD21C,3.9004*%
%ADD20C,1.7544*%
%ADD25C,2.7944*%
G75*
%LPD*%
G75*
G36*
G01X22761440Y25239970D02*
X28020890D01*
Y15818850D01*
X22161520D01*
Y24631490D01*
X22761440Y24631930D01*
Y25239970D01*
G37*
%LPC*%
G75*
G36*
G01X22946690Y20747000D02*
Y20907000D01*
G02X22961710Y20922020I15020J0D01*
G01X23121710D01*
G02X23136730Y20907000I0J-15020D01*
G01Y20747000D01*
G02X23121710Y20731980I-15020J0D01*
G01X22961710D01*
G02X22946690Y20747000I0J15020D01*
G37*
G36*
G01X23448470Y17004070D02*
G02X23466160Y17011400I17690J-17681D01*
G01X24000390D01*
G02X24043700Y17036400I43310J-25015D01*
G02Y16936360I0J-50020D01*
G02X24000390Y16961360I0J50015D01*
G01X23476520D01*
X22914420Y16399260D01*
G02X22927520Y16352500I-76919J-46764D01*
G02X22865990Y16267110I-90016J0D01*
G01X22862520Y16265950D01*
Y16192860D01*
X22905360Y16150020D01*
X23875570D01*
X24093850Y16368300D01*
G02X24111540Y16375630I17690J-17681D01*
G01X26347970D01*
X26565590Y16593250D01*
X26565020Y16595950D01*
G02X26563950Y16606250I48951J10291D01*
G02X26613970Y16556230I50020J0D01*
G02X26603670Y16557300I-9J50021D01*
G01X26600970Y16557870D01*
X26376020Y16332920D01*
G02X26358330Y16325590I-17690J17681D01*
G01X24121900D01*
X23903620Y16107310D01*
G02X23885930Y16099980I-17690J17681D01*
G01X22895000D01*
G02X22877310Y16107310I0J25011D01*
G01X22819810Y16164810D01*
G02X22812480Y16182500I17681J17690D01*
G01Y16265950D01*
X22809010Y16267110D01*
G02X22747480Y16352500I28486J85390D01*
G02X22837500Y16442520I90020J0D01*
G02X22874380Y16434620I3J-90021D01*
G01X22877580Y16433180D01*
X23448470Y17004070D01*
G37*
G36*
G01X24341560Y17548410D02*
G03X24341240Y17563090I-7180J7187D01*
G02X24324980Y17600000I33763J36910D01*
G02X24425020I50020J0D01*
G02X24400060Y17556710I-50021J0D01*
G01X24397520Y17555240D01*
Y17550000D01*
G02X24390920Y17534080I-22517J7D01*
G01X24247520Y17390670D01*
Y16630000D01*
G02X24240920Y16614080I-22517J7D01*
G01X23965920Y16339080D01*
G02X23950000Y16332480I-15927J15917D01*
G01X23443070D01*
X23442070Y16332020D01*
G02X23432700Y16329980I-9366J20481D01*
G01X23424740D01*
X23423650Y16326370D01*
G02X23337500Y16262480I-86150J26138D01*
G02Y16442520I0J90020D01*
G02X23422890Y16380990I0J-90016D01*
G01X23424050Y16377520D01*
X23940670D01*
X24202480Y16639330D01*
Y17400000D01*
G02X24209080Y17415920I22517J-7D01*
G01X24341560Y17548410D01*
G37*
G36*
G01X23663000Y21068380D02*
X23675620Y21081000D01*
G02X23693310Y21088330I17690J-17681D01*
G01X23961690D01*
G02X23979380Y21081000I0J-25011D01*
G01X24087030Y20973350D01*
X24112970D01*
X24120540Y20980920D01*
G02X24138230Y20988250I17690J-17681D01*
G01X24511770D01*
G02X24529460Y20980920I0J-25011D01*
G01X24537000Y20973380D01*
X24539700Y20973950D01*
G02X24550000Y20975020I10291J-48951D01*
G02X24499980Y20925000I0J-50020D01*
G02X24500040Y20927540I50022J89D01*
G03X24489900Y20938210I-10145J512D01*
G01X24148590D01*
X23848380Y20638000D01*
X23848950Y20635300D01*
G02X23850020Y20625000I-48951J-10291D01*
G02X23800000Y20675020I-50020J0D01*
G02X23810300Y20673950I9J-50021D01*
G01X23813000Y20673380D01*
X24064620Y20925000D01*
X23951330Y21038290D01*
X23703670D01*
X23698380Y21033000D01*
X23698950Y21030300D01*
G02X23700020Y21020000I-48951J-10291D01*
G02X23650000Y21070020I-50020J0D01*
G02X23660300Y21068950I9J-50021D01*
G01X23663000Y21068380D01*
G37*
G36*
G01X24624980Y21018310D02*
Y21131690D01*
G02X24599980Y21175000I25015J43310D01*
G02X24700020I50020J0D01*
G02X24675020Y21131690I-50015J0D01*
G01Y21018310D01*
G02Y20931690I-25015J-43310D01*
G01Y20500000D01*
G02X24667690Y20482310I-25011J0D01*
G01X24574510Y20389130D01*
G02X24556820Y20381800I-17690J17681D01*
G01X23716410D01*
G02X23673100Y20356800I-43310J25015D01*
G02Y20456840I0J50020D01*
G02X23716410Y20431840I0J-50015D01*
G01X24546460D01*
X24624980Y20510360D01*
Y20931690D01*
G02Y21018310I25015J43310D01*
G37*
G36*
G01X23809080Y21334080D02*
X23665730Y21477430D01*
X23662900Y21476670D01*
G02X23650000Y21474980I-12892J48331D01*
G02X23700020Y21525000I0J50020D01*
G02X23698330Y21512100I-50021J-8D01*
G01X23697570Y21509270D01*
X23834330Y21372520D01*
X24205340D01*
G02X24250000Y21400020I44660J-22514D01*
G02Y21299980I0J-50020D01*
G02X24205340Y21327480I0J50014D01*
G01X23825000D01*
G02X23809080Y21334080I7J22517D01*
G37*
G36*
G01X22487760Y21498030D02*
Y22089360D01*
G02X22462760Y22132670I25015J43310D01*
G02X22562800I50020J0D01*
G02X22537800Y22089360I-50015J0D01*
G01Y21487670D01*
G02X22535780Y21477830I-25018J9D01*
G03X22545120Y21463670I9341J-3999D01*
G01X22626480D01*
G02X22669790Y21488670I43310J-25015D01*
G02X22712830Y21464130I0J-50013D01*
G01X22831690D01*
G02X22875000Y21489130I43310J-25015D01*
G02Y21389090I0J-50020D01*
G02X22831690Y21414090I0J50015D01*
G01X22713370D01*
G02X22669790Y21388630I-43580J24568D01*
G02X22626480Y21413630I0J50015D01*
G01X22507080D01*
G02X22463770Y21388640I-43310J25035D01*
G02X22420450Y21413650I0J50022D01*
G02X22419710Y21413640I-708J25010D01*
G02X22415120Y21414060I-25J25022D01*
G01X22414660Y21414150D01*
X22309760D01*
G02X22266450Y21389150I-43310J25015D01*
G02X22256150Y21390220I-9J50021D01*
G01X22253450Y21390790D01*
X22225020Y21362360D01*
Y19910360D01*
X22435360Y19700020D01*
X22781690D01*
G02X22868310I43310J-25015D01*
G01X22914640D01*
X23214940Y20000320D01*
G02X23232630Y20007650I17690J-17681D01*
G01X24111440D01*
G02X24154750Y20032650I43310J-25015D01*
G02X24204770Y19982630I0J-50020D01*
G02X24203700Y19972330I-50021J-9D01*
G01X24203130Y19969630D01*
X24319860Y19852900D01*
X24972680D01*
G02X25015990Y19877900I43310J-25015D01*
G02Y19777860I0J-50020D01*
G02X25005690Y19778930I-9J50021D01*
G01X25002990Y19779500D01*
X24797230Y19573740D01*
Y19359280D01*
G02X24822310Y19315920I-24942J-43360D01*
G02X24722270I-50020J0D01*
G02X24747190Y19359190I50026J0D01*
G01Y19584100D01*
G02X24754520Y19601790I25011J0D01*
G01X24938240Y19785520D01*
G03X24931060Y19802860I-7184J7182D01*
G01X24309500D01*
G02X24291810Y19810190I0J25011D01*
G01X24167750Y19934250D01*
X24165050Y19933680D01*
G02X24154750Y19932610I-10291J48951D01*
G02X24111440Y19957610I0J50015D01*
G01X23242990D01*
X22942690Y19657310D01*
G02X22925000Y19649980I-17690J17681D01*
G01X22868310D01*
G02X22862660Y19642080I-43318J25010D01*
G03X22863120Y19628200I7643J-6694D01*
G01X22872850Y19618470D01*
G02X22880180Y19600780I-17681J-17690D01*
G01Y18934550D01*
G02X22876340Y18921230I-25022J0D01*
G01X22875560Y18919990D01*
Y18898140D01*
G02X22925020Y18817780I-40552J-80360D01*
G02X22744980I-90020J0D01*
G02X22821220Y18906740I90021J0D01*
G01X22825520Y18907410D01*
Y18929930D01*
G02X22829360Y18943250I25022J0D01*
G01X22830140Y18944490D01*
Y19590420D01*
X22807310Y19613250D01*
G02X22799980Y19630940I17681J17690D01*
G02X22799990Y19631680I25020J32D01*
G02X22781690Y19649980I25015J43315D01*
G01X22425000D01*
G02X22407310Y19657310I0J25011D01*
G01X22182310Y19882310D01*
G02X22174980Y19900000I17681J17690D01*
G01Y21372720D01*
G02X22182310Y21390410I25011J0D01*
G01X22218070Y21426170D01*
X22217500Y21428870D01*
G02X22216430Y21439170I48951J10291D01*
G02X22266450Y21489190I50020J0D01*
G02X22309760Y21464190I0J-50015D01*
G01X22420760D01*
G02X22463770Y21488680I43010J-25523D01*
G02X22474070Y21487610I9J-50021D01*
G01X22476770Y21487040D01*
X22487760Y21498030D01*
G37*
G54D23*
X22391610Y20157820D03*
G54D22*
X23365000Y18817780D03*
G54D24*
X23041710Y20573000D03*
G54D21*
X27419300Y17815000D03*
X25819300Y23335000D03*
G54D20*
X23087500Y16352500D03*
G54D25*
X27419300Y24160210D03*
%LPD*%
G75*
G54D10*
X22279020Y16062620D03*
Y16462620D03*
Y16262620D03*
Y16862620D03*
Y16662620D03*
Y17262620D03*
Y17062620D03*
Y17662620D03*
Y17462620D03*
Y18062620D03*
Y17862620D03*
Y18462620D03*
Y18262620D03*
Y18862620D03*
Y18662620D03*
Y19462620D03*
Y19262620D03*
Y19062620D03*
X22354750Y19946800D03*
X22342520Y20391920D03*
Y20991920D03*
Y20791920D03*
Y21191920D03*
X22279020Y22356810D03*
Y22756810D03*
Y22556810D03*
Y23156810D03*
Y22956810D03*
Y23556810D03*
Y23356810D03*
Y23956810D03*
Y23756810D03*
Y24356810D03*
Y24156810D03*
X22704320Y16131750D03*
X22434120Y15936350D03*
X22634120D03*
X22699160Y16507180D03*
X22632780Y16318520D03*
X22655840Y18741960D03*
X22685630Y18939730D03*
X22712640Y19137890D03*
Y19337890D03*
X22507360Y19817520D03*
X22707360D03*
X22666420Y19532480D03*
X22466420D03*
X22498440Y20266670D03*
X22521410Y21281370D03*
X22655300Y21984360D03*
X22602470Y24514310D03*
X22402470Y24514170D03*
X22834120Y15936350D03*
X23034120D03*
X23159810Y16881580D03*
X23018390Y16740160D03*
X22876970Y16598740D03*
X22998490Y18668250D03*
X22806900Y18610880D03*
X22997680Y19053060D03*
X23052660Y18860770D03*
X22997680Y19453060D03*
Y19253060D03*
X22903760Y19855310D03*
X23084690Y19633140D03*
X22850120Y20664970D03*
X22858590Y20465150D03*
X23029240Y20360850D03*
X23210930Y20444440D03*
X23178570Y21026700D03*
X22829190Y20907000D03*
X22890000Y21322500D03*
X23074000Y23010840D03*
Y23410840D03*
Y23210840D03*
Y24010840D03*
Y23810840D03*
Y23610840D03*
Y24410840D03*
Y24210840D03*
X22878940Y24699260D03*
X22802470Y24514460D03*
X23080000Y24755000D03*
X23074000Y24610840D03*
X22825000Y24825000D03*
X23004160Y24858000D03*
X23234120Y15936350D03*
X23434120D03*
X23470900Y17128900D03*
X23301230Y17023000D03*
X23349070Y18641390D03*
X23467360Y18661560D03*
X23250000Y18707500D03*
X23544930Y18753120D03*
X23545400Y18873120D03*
X23468540Y18965280D03*
X23205320Y18813760D03*
X23415070Y19840110D03*
X23226120Y19774570D03*
X23535180Y20311730D03*
X23401320Y20125150D03*
X23242750Y20641890D03*
X23254230Y20841560D03*
X23529000Y23010840D03*
Y23410840D03*
Y23210840D03*
Y24010840D03*
Y23810840D03*
Y23610840D03*
Y24410840D03*
Y24210840D03*
Y24810840D03*
Y24610840D03*
X23478940Y25122470D03*
X23316000Y25169840D03*
X23485000Y24975000D03*
X23634120Y15936350D03*
X23834120D03*
X23870900Y17128900D03*
X23670900D03*
X23815070Y19840110D03*
X23801320Y20125150D03*
X23643420Y21636790D03*
X23935250Y22217250D03*
X23878940Y25122470D03*
X23678940D03*
X24028130Y16065650D03*
X24034120Y15936350D03*
X24360000Y16527500D03*
X24210000Y16450000D03*
X24169550Y16207070D03*
X24365020Y16758920D03*
X24084980Y17351300D03*
X24069570Y17151890D03*
X24309460Y17754170D03*
X24208500Y17581520D03*
X24420000Y19695000D03*
X24200440Y20143800D03*
X24278940Y25122470D03*
X24078940D03*
X24585000Y16465000D03*
X24734710Y16493130D03*
X24770000Y17415000D03*
X24487500Y17732500D03*
X24597500Y17427500D03*
X24606410Y19292520D03*
X24629690Y19491160D03*
X24581880Y19685360D03*
X24702500Y19977500D03*
X24703570Y20352020D03*
X24539840Y21301210D03*
X24678940Y25122470D03*
X24478940D03*
X25234120Y15936350D03*
X25169550Y16208090D03*
X25134710Y16493130D03*
X24934710D03*
X24927500Y19315000D03*
X25163270Y19748070D03*
X25177500Y19960000D03*
X25078940Y25122470D03*
X24878940D03*
X25434120Y15936350D03*
X25634120D03*
X25369550Y16208090D03*
X25569550D03*
X25534710Y16493130D03*
X25334710D03*
X25669760Y23060580D03*
X25570780Y23524480D03*
X25506780Y23335000D03*
X25478940Y25122470D03*
X25278940D03*
X25834120Y15936350D03*
X26034120D03*
X25769550Y16208090D03*
X25969550D03*
X25934710Y16493130D03*
X25734710D03*
X25866770Y23026110D03*
X26044330Y23118140D03*
X26088000Y23494590D03*
X25936220Y23624820D03*
X25736550Y23636370D03*
X26078940Y25122470D03*
X25878940D03*
X25678940D03*
X26362500Y16147500D03*
X26234120Y15936350D03*
X26434120D03*
X26169550Y16208090D03*
X26134710Y16493130D03*
X26129740Y23298990D03*
X26478940Y25122470D03*
X26278940D03*
X26634120Y15936350D03*
X26834120D03*
X26612500Y24505000D03*
X26878940Y25122470D03*
X26678940D03*
X27034120Y15936350D03*
X27234120D03*
X27269760Y17540580D03*
X27106780Y17815000D03*
X27336550Y18116370D03*
X27170780Y18004480D03*
X27239830Y24344480D03*
X27162080Y24160210D03*
X27278940Y25122470D03*
X27078940D03*
X27434120Y15936350D03*
X27634120D03*
X27466770Y17506110D03*
X27644330Y17598140D03*
X27729740Y17778990D03*
X27688000Y17974590D03*
X27536220Y18104820D03*
X27398950Y23903800D03*
X27588790Y23966730D03*
X27676160Y24146640D03*
X27608240Y24334750D03*
X27426090Y24417340D03*
X27678940Y25122470D03*
X27478940D03*
X27834120Y15936350D03*
X27903390Y16123970D03*
Y16323970D03*
Y16523970D03*
Y16723970D03*
Y16923970D03*
Y17123970D03*
Y17323970D03*
Y17523970D03*
Y17723970D03*
Y17923970D03*
Y18123970D03*
Y18323970D03*
Y18523970D03*
Y18723970D03*
Y18923970D03*
Y19123970D03*
Y19323970D03*
Y19523970D03*
Y19723970D03*
Y19923970D03*
Y20123970D03*
Y20323970D03*
Y20523970D03*
Y20723970D03*
Y20923970D03*
Y21123970D03*
Y21323970D03*
Y21523970D03*
Y21723970D03*
Y21923970D03*
Y22123970D03*
Y22323970D03*
Y22523970D03*
Y22723970D03*
Y22923970D03*
Y23123970D03*
Y23323970D03*
Y23523970D03*
Y23723970D03*
Y23923970D03*
Y24123970D03*
Y24323970D03*
Y24523970D03*
Y24723970D03*
Y24923970D03*
X27878940Y25122470D03*
G54D11*
X22266450Y21439170D03*
Y21783720D03*
X22271550Y22213190D03*
X22616240Y20394010D03*
X22669790Y21438650D03*
X22463770Y21438660D03*
X22512780Y22132670D03*
X22825000Y19675000D03*
X22875000Y21439110D03*
X23532700Y20301590D03*
X23547500Y20995000D03*
X23485000Y21732500D03*
X23673100Y20406820D03*
X23800000Y20625000D03*
X23650000Y21020000D03*
Y21525000D03*
X23930000Y21597500D03*
X24043700Y16986380D03*
X24375000Y17600000D03*
X24154750Y19982630D03*
X24100000Y20625000D03*
X24250000Y21350000D03*
X24210000Y21617500D03*
X24835700Y17810600D03*
X24772290Y19315920D03*
X24650000Y20975000D03*
X24550000Y20925000D03*
X24473330Y20798330D03*
X24650000Y21175000D03*
X24915130Y17081380D03*
X24848730Y18845730D03*
X25000000Y19175000D03*
X25015990Y19827880D03*
X25018470Y19572400D03*
X25150000Y20575000D03*
X25018650Y21237100D03*
X26613970Y16606250D03*
G54D12*
X22391610Y20157820D03*
G54D13*
X23087500Y16352500D03*
X22837500D03*
X22835000Y18817780D03*
X23337500Y16352500D03*
X23365000Y18817780D03*
G54D14*
X23041710Y20573000D03*
G54D15*
Y20827000D03*
G54D16*
X25819300Y23335000D03*
X27419300Y17815000D03*
G54D17*
Y24160210D03*
G54D18*
G01X22266450Y21439170D02*
X22200000Y21372720D01*
Y19900000D01*
X22425000Y19675000D01*
X22825000D01*
G01X22266450Y21439170D02*
X22419200D01*
X22419710Y21438660D01*
X22463770D01*
G01D02*
X22463780Y21438650D01*
X22669790D01*
G01D02*
X22670250Y21439110D01*
X22875000D01*
G01X22512780Y22132670D02*
Y21487670D01*
X22463770Y21438660D01*
G01X22837500Y16352500D02*
Y16182500D01*
X22895000Y16125000D01*
X23885930D01*
X24111540Y16350610D01*
X26358330D01*
X26613970Y16606250D01*
G01X22837500Y16352500D02*
Y16357720D01*
X23466160Y16986380D01*
X24043700D01*
G01X22850540Y18813760D02*
Y18929930D01*
X22855160Y18934550D01*
Y19600780D01*
X22825000Y19630940D01*
Y19675000D01*
G01X24154750Y19982630D02*
X23232630D01*
X22925000Y19675000D01*
X22825000D01*
G01X24123330Y20948330D02*
X23800000Y20625000D01*
G01X24650000Y20975000D02*
Y20500000D01*
X24556820Y20406820D01*
X23673100D01*
G01X24123330Y20948330D02*
X24076670D01*
X23961690Y21063310D01*
X23693310D01*
X23650000Y21020000D01*
G01X25015990Y19827880D02*
X24309500D01*
X24154750Y19982630D01*
G01X24550000Y20925000D02*
X24511770Y20963230D01*
X24138230D01*
X24123330Y20948330D01*
G01X24772290Y19315920D02*
X24772210Y19316000D01*
Y19584100D01*
X25015990Y19827880D01*
G01X24650000Y21175000D02*
Y20975000D01*
G54D19*
G01X23087500Y16352500D02*
X23180300D01*
G01X22994700D02*
X23087500D01*
G01D02*
Y16445300D01*
G01Y16259700D02*
Y16352500D01*
G01X23337500D02*
X23432700D01*
X23435200Y16355000D01*
X23950000D01*
X24225000Y16630000D01*
Y17400000D01*
X24375000Y17550000D01*
Y17600000D01*
G01X24250000Y21350000D02*
X23825000D01*
X23650000Y21525000D01*
M02*
